<svg width="376" height="410" viewBox="0 0 376 410" fill="none" xmlns="http://www.w3.org/2000/svg">
<g filter="url(#filter0_bdi_1_563)">
<rect x="16.418" y="12.4087" width="301.843" height="336.15" rx="34.3016" transform="rotate(-0.247746 16.418 12.4087)" fill="url(#paint0_linear_1_563)" fill-opacity="0.93" shape-rendering="crispEdges"/>
</g>
<path d="M45.8677 49.4694C46.1229 49.9132 46.4005 50.2997 46.7005 50.6288C47.012 50.9578 47.3514 51.2123 47.7188 51.3922C48.0862 51.5721 48.4814 51.6603 48.9044 51.6568C49.3961 51.6527 49.7952 51.5237 50.1018 51.2696C50.4084 51.0155 50.5599 50.6712 50.5563 50.2367C50.5532 49.8594 50.4535 49.5572 50.2573 49.3302C50.0724 49.103 49.7907 48.9053 49.4119 48.7369C49.0446 48.557 48.5913 48.3663 48.0522 48.165C47.7656 48.0644 47.4329 47.93 47.0541 47.7616C46.6867 47.5817 46.3361 47.3559 46.0023 47.0843C45.6684 46.8012 45.3911 46.4604 45.1706 46.0621C44.9499 45.6523 44.8372 45.1615 44.8325 44.5898C44.8268 43.9038 44.9934 43.3136 45.3324 42.8191C45.6827 42.3131 46.154 41.9262 46.7463 41.6583C47.35 41.3788 48.0235 41.2361 48.7667 41.2299C49.5327 41.2236 50.1912 41.3496 50.7422 41.608C51.3045 41.8549 51.7703 42.177 52.1394 42.5741C52.52 42.9597 52.8149 43.3632 53.0242 43.7845L51.1122 44.8637C50.9497 44.5792 50.7532 44.3236 50.5227 44.0968C50.3034 43.8585 50.0504 43.6719 49.7634 43.5371C49.4763 43.3908 49.1498 43.3192 48.784 43.3222C48.3038 43.3262 47.9446 43.4435 47.7063 43.6742C47.468 43.8934 47.3501 44.1517 47.3526 44.4489C47.355 44.7462 47.4544 45.0084 47.6507 45.2354C47.8468 45.451 48.1459 45.6601 48.5477 45.8626C48.9495 46.0537 49.4542 46.2496 50.0619 46.4504C50.4518 46.5843 50.8248 46.7528 51.1809 46.9556C51.5485 47.1584 51.8764 47.4073 52.1647 47.7022C52.4644 47.9855 52.6959 48.3266 52.8593 48.7255C53.034 49.1128 53.1235 49.5637 53.1277 50.0782C53.1326 50.6613 53.0225 51.1825 52.7976 51.6417C52.5728 52.101 52.2616 52.4923 51.864 52.8158C51.4664 53.1278 51.0167 53.3659 50.515 53.5301C50.0248 53.7057 49.5053 53.7958 48.9565 53.8003C48.2247 53.8064 47.5376 53.6748 46.895 53.4057C46.2638 53.1251 45.7118 52.7466 45.2391 52.2703C44.7664 51.794 44.3962 51.2768 44.1286 50.7187L45.8677 49.4694ZM54.3008 45.5406L59.1715 45.5002L59.1869 47.3696L54.3163 47.4099L54.3008 45.5406ZM55.633 42.7853L57.7767 42.7676L57.8648 53.4007L55.721 53.4184L55.633 42.7853ZM62.4055 50.9105C62.4074 51.1391 62.4662 51.3387 62.5819 51.5093C62.6976 51.6684 62.853 51.7929 63.0481 51.8828C63.2546 51.9611 63.4779 51.9993 63.718 51.9973C64.061 51.9944 64.3691 51.9233 64.6424 51.7838C64.9156 51.6329 65.1368 51.4253 65.3061 51.1609C65.4754 50.885 65.5584 50.5585 65.5553 50.1812L65.8382 51.2079C65.8424 51.711 65.703 52.1352 65.42 52.4806C65.1484 52.8259 64.7904 53.0861 64.3459 53.2613C63.9128 53.4364 63.4562 53.5259 62.976 53.5299C62.4844 53.534 62.0262 53.4406 61.6016 53.2497C61.1769 53.0588 60.8316 52.7815 60.5656 52.4179C60.3109 52.0426 60.1814 51.5863 60.1769 51.049C60.1706 50.2829 60.4343 49.6747 60.968 49.2244C61.5016 48.774 62.2601 48.5448 63.2434 48.5366C63.7465 48.5325 64.1871 48.5803 64.5652 48.6801C64.9548 48.7797 65.2817 48.9028 65.5459 49.0493C65.8101 49.1957 66 49.3371 66.1154 49.4733L66.1239 50.5023C65.8133 50.2762 65.4632 50.1076 65.0735 49.9965C64.6953 49.8853 64.2946 49.8314 63.8716 49.8349C63.5286 49.8378 63.2488 49.8858 63.0324 49.9791C62.8158 50.0609 62.6567 50.1823 62.5551 50.3432C62.4535 50.4927 62.4036 50.6818 62.4055 50.9105ZM61.5214 47.7105L60.6857 46.2081C61.0955 45.9874 61.5969 45.7775 62.1898 45.5782C62.7827 45.3674 63.445 45.2591 64.1767 45.253C64.8513 45.2474 65.4523 45.3396 65.9799 45.5296C66.5074 45.7197 66.9214 46.0021 67.2218 46.3769C67.5221 46.7403 67.6745 47.1907 67.6789 47.7281L67.7252 53.3191L65.5814 53.3368L65.539 48.2089C65.5372 47.9917 65.5014 47.809 65.4315 47.661C65.3616 47.5014 65.2519 47.3709 65.1024 47.2692C64.9643 47.1674 64.7979 47.0945 64.6032 47.0504C64.4085 47.0062 64.191 46.9852 63.9509 46.9872C63.5851 46.9902 63.2367 47.0331 62.9058 47.1159C62.5749 47.1986 62.2898 47.2982 62.0507 47.4145C61.8115 47.5308 61.6351 47.6295 61.5214 47.7105ZM69.1431 45.4177L74.0138 45.3774L74.0292 47.2468L69.1586 47.2871L69.1431 45.4177ZM70.4753 42.6625L72.619 42.6447L72.707 53.2778L70.5633 53.2956L70.4753 42.6625ZM75.4968 42.3122C75.4937 41.9463 75.6228 41.6479 75.8839 41.4171C76.1448 41.1748 76.4583 41.0522 76.8241 41.0491C77.19 41.0461 77.4997 41.1636 77.7532 41.4016C78.0181 41.6281 78.152 41.9243 78.1551 42.2902C78.158 42.6446 78.029 42.943 77.768 43.1852C77.5184 43.4274 77.2107 43.55 76.8449 43.5531C76.479 43.5561 76.1636 43.4386 75.8986 43.2007C75.6337 42.9628 75.4997 42.6666 75.4968 42.3122ZM75.7621 45.3629L77.9231 45.345L77.9884 53.2341L75.8274 53.252L75.7621 45.3629ZM81.1469 50.4809C81.481 50.7869 81.7918 51.0358 82.0792 51.2279C82.3666 51.4084 82.6364 51.5434 82.8887 51.6328C83.1524 51.7221 83.3986 51.7658 83.6273 51.7639C83.9246 51.7614 84.1527 51.6966 84.3118 51.5696C84.4707 51.431 84.5492 51.2474 84.5473 51.0188C84.5456 50.813 84.4756 50.642 84.3373 50.506C84.2103 50.3584 84.0205 50.2284 83.768 50.1162C83.5156 50.0039 83.1944 49.8865 82.8046 49.764C82.4376 49.6298 82.0819 49.4727 81.7374 49.2926C81.3927 49.101 81.1048 48.8519 80.8736 48.5451C80.6537 48.2267 80.5417 47.8217 80.5377 47.3301C80.5338 46.8613 80.6563 46.4658 80.9052 46.1436C81.154 45.81 81.4892 45.5613 81.9109 45.3978C82.344 45.2227 82.8235 45.133 83.3494 45.1286C83.7953 45.1249 84.2131 45.1786 84.6028 45.2897C84.9925 45.4009 85.3539 45.5522 85.6871 45.7439C86.0202 45.924 86.3135 46.1389 86.5672 46.3883L85.6009 47.7684C85.3126 47.4621 84.9675 47.2134 84.5657 47.0223C84.1753 46.8312 83.7915 46.7372 83.4142 46.7403C83.1627 46.7424 82.963 46.7955 82.8152 46.8996C82.6788 46.9922 82.6114 47.1357 82.613 47.3301C82.6144 47.5016 82.6843 47.6554 82.8226 47.7914C82.9723 47.916 83.179 48.0286 83.4429 48.1293C83.7181 48.2299 84.0279 48.3532 84.3721 48.499C84.7965 48.6555 85.1867 48.8352 85.5429 49.0381C85.9103 49.2295 86.2039 49.4729 86.4236 49.7683C86.6433 50.0638 86.7551 50.4516 86.7591 50.9318C86.7657 51.7208 86.5135 52.3403 86.0027 52.7905C85.4918 53.2292 84.7847 53.4523 83.8815 53.4598C83.3212 53.4644 82.8061 53.3943 82.3361 53.2496C81.8775 53.1047 81.4586 52.9138 81.0793 52.6768C80.7114 52.4283 80.3776 52.1624 80.0779 51.879L81.1469 50.4809ZM87.6633 45.2644L92.534 45.2241L92.5494 47.0935L87.6788 47.1338L87.6633 45.2644ZM88.9955 42.5092L91.1392 42.4914L91.2273 53.1245L89.0835 53.1423L88.9955 42.5092ZM94.017 42.1589C94.014 41.793 94.143 41.4946 94.4041 41.2638C94.665 41.0215 94.9785 40.8989 95.3443 40.8958C95.7102 40.8928 96.0199 41.0103 96.2734 41.2483C96.5383 41.4748 96.6722 41.771 96.6753 42.1369C96.6782 42.4913 96.5492 42.7897 96.2882 43.0319C96.0386 43.2741 95.7309 43.3967 95.3651 43.3998C94.9992 43.4028 94.6838 43.2853 94.4188 43.0474C94.1539 42.8095 94.0199 42.5133 94.017 42.1589ZM94.2823 45.2096L96.4433 45.1917L96.5086 53.0808L94.3476 53.0987L94.2823 45.2096ZM100.943 49.0993C100.947 49.5566 101.053 49.956 101.262 50.2973C101.471 50.6386 101.747 50.905 102.092 51.0965C102.448 51.2879 102.837 51.3819 103.26 51.3784C103.603 51.3756 103.935 51.3214 104.254 51.2158C104.573 51.0988 104.858 50.9478 105.108 50.7628C105.369 50.5663 105.567 50.3417 105.702 50.089L105.721 52.37C105.449 52.6238 105.09 52.8268 104.646 52.9792C104.212 53.12 103.704 53.1928 103.121 53.1976C102.286 53.2045 101.53 53.0393 100.853 52.7018C100.187 52.3643 99.6571 51.8885 99.2633 51.2743C98.8808 50.6486 98.6862 49.9298 98.6795 49.118C98.6726 48.2948 98.8553 47.573 99.2275 46.9524C99.6112 46.3318 100.133 45.8472 100.793 45.4988C101.465 45.1502 102.218 44.9724 103.053 44.9655C103.636 44.9607 104.145 45.0308 104.581 45.1758C105.028 45.3093 105.39 45.495 105.666 45.7328L105.685 48.0138C105.546 47.7634 105.338 47.5479 105.062 47.3672C104.798 47.175 104.505 47.0288 104.184 46.9286C103.863 46.8283 103.543 46.7795 103.222 46.7822C102.799 46.7857 102.411 46.8918 102.059 47.1005C101.717 47.2977 101.445 47.5687 101.242 47.9134C101.039 48.2581 100.94 48.6534 100.943 49.0993Z" fill="#353E6C"/>
<g filter="url(#filter1_d_1_563)">
<rect x="41.5641" y="67.4897" width="257.262" height="257.262" rx="25.7262" transform="rotate(-0.474233 41.5641 67.4897)" fill="white"/>
</g>
<path d="M99.357 108.334C99.9864 108.446 100.521 108.776 100.959 109.327C101.398 109.877 101.618 110.5 101.619 111.197C101.62 111.792 101.463 112.332 101.149 112.816C100.846 113.288 100.403 113.665 99.8188 113.947C99.2348 114.217 98.5551 114.353 97.7797 114.354L93.0937 114.359L93.0797 102.644L97.5465 102.639C98.3444 102.638 99.03 102.772 99.6034 103.041C100.177 103.31 100.61 103.675 100.903 104.135C101.195 104.584 101.342 105.09 101.343 105.651C101.344 106.326 101.164 106.888 100.805 107.338C100.446 107.788 99.9635 108.12 99.357 108.334ZM95.0072 107.564L97.3839 107.561C98.0132 107.56 98.5018 107.419 98.8498 107.138C99.2091 106.845 99.3884 106.429 99.3877 105.89C99.3871 105.362 99.2068 104.952 98.8469 104.66C98.4981 104.357 98.0091 104.206 97.3798 104.207L95.0031 104.209L95.0072 107.564ZM97.6093 112.786C98.2611 112.785 98.7722 112.627 99.1426 112.312C99.5131 111.997 99.698 111.559 99.6973 110.997C99.6966 110.424 99.4994 109.969 99.1057 109.632C98.712 109.296 98.1892 109.128 97.5375 109.128L95.0091 109.131L95.0134 112.789L97.6093 112.786ZM112.533 105.048L112.544 114.336L110.622 114.338L110.621 113.242C110.318 113.625 109.919 113.929 109.425 114.154C108.942 114.368 108.425 114.476 107.875 114.476C107.144 114.477 106.487 114.326 105.902 114.023C105.329 113.721 104.873 113.272 104.535 112.677C104.208 112.081 104.045 111.362 104.044 110.52L104.037 105.058L105.942 105.056L105.948 110.231C105.949 111.062 106.158 111.703 106.574 112.152C106.99 112.589 107.558 112.808 108.277 112.807C108.996 112.806 109.564 112.586 109.979 112.148C110.405 111.698 110.618 111.057 110.617 110.225L110.611 105.05L112.533 105.048ZM118.872 114.48C118.141 114.481 117.484 114.352 116.899 114.095C116.326 113.826 115.87 113.466 115.533 113.017C115.195 112.557 115.015 112.046 114.991 111.484L116.98 111.482C117.015 111.875 117.2 112.206 117.538 112.476C117.887 112.734 118.319 112.862 118.836 112.862C119.376 112.861 119.791 112.759 120.083 112.557C120.386 112.343 120.538 112.073 120.537 111.747C120.537 111.399 120.368 111.141 120.031 110.972C119.705 110.804 119.182 110.619 118.462 110.418C117.765 110.228 117.198 110.043 116.759 109.864C116.321 109.685 115.938 109.41 115.612 109.039C115.297 108.669 115.139 108.18 115.138 107.573C115.138 107.079 115.283 106.629 115.575 106.224C115.867 105.808 116.282 105.482 116.821 105.245C117.372 105.009 118.001 104.89 118.709 104.889C119.765 104.888 120.614 105.156 121.255 105.695C121.907 106.222 122.257 106.947 122.303 107.868L120.381 107.87C120.347 107.455 120.178 107.123 119.874 106.877C119.57 106.63 119.16 106.507 118.643 106.507C118.137 106.508 117.75 106.604 117.48 106.795C117.211 106.987 117.076 107.24 117.077 107.554C117.077 107.801 117.167 108.009 117.347 108.178C117.527 108.346 117.747 108.48 118.005 108.581C118.264 108.671 118.646 108.788 119.152 108.934C119.826 109.113 120.377 109.298 120.804 109.488C121.243 109.667 121.62 109.937 121.935 110.296C122.25 110.655 122.413 111.132 122.425 111.728C122.426 112.256 122.28 112.728 121.989 113.144C121.697 113.561 121.282 113.887 120.742 114.124C120.215 114.36 119.591 114.479 118.872 114.48ZM125.891 103.802C125.543 103.802 125.25 103.684 125.014 103.449C124.778 103.213 124.66 102.921 124.659 102.572C124.659 102.224 124.776 101.932 125.012 101.696C125.248 101.459 125.54 101.341 125.888 101.341C126.225 101.34 126.512 101.458 126.748 101.693C126.984 101.929 127.103 102.221 127.103 102.57C127.104 102.918 126.986 103.21 126.75 103.446C126.515 103.683 126.228 103.801 125.891 103.802ZM126.836 105.031L126.848 114.319L124.926 114.321L124.915 105.033L126.836 105.031ZM134.467 104.87C135.197 104.869 135.849 105.02 136.422 105.323C137.007 105.625 137.463 106.074 137.789 106.67C138.116 107.265 138.28 107.984 138.281 108.827L138.287 114.305L136.383 114.307L136.376 109.115C136.375 108.284 136.167 107.649 135.75 107.211C135.334 106.762 134.766 106.538 134.047 106.539C133.328 106.54 132.755 106.766 132.329 107.216C131.913 107.654 131.706 108.289 131.707 109.121L131.714 114.313L129.792 114.315L129.781 105.027L131.702 105.025L131.704 106.087C132.018 105.704 132.416 105.406 132.899 105.192C133.394 104.978 133.916 104.871 134.467 104.87ZM149.666 109.42C149.667 109.768 149.645 110.083 149.6 110.364L142.504 110.372C142.561 111.114 142.837 111.709 143.332 112.158C143.827 112.607 144.434 112.831 145.153 112.83C146.187 112.829 146.917 112.395 147.343 111.53L149.416 111.527C149.136 112.381 148.626 113.084 147.885 113.636C147.155 114.176 146.245 114.447 145.155 114.448C144.267 114.449 143.469 114.254 142.761 113.861C142.063 113.457 141.512 112.896 141.107 112.178C140.713 111.448 140.515 110.605 140.514 109.65C140.513 108.695 140.703 107.857 141.084 107.138C141.476 106.407 142.021 105.844 142.717 105.45C143.424 105.056 144.233 104.858 145.143 104.857C146.02 104.856 146.801 105.046 147.487 105.427C148.173 105.809 148.707 106.347 149.09 107.044C149.473 107.729 149.665 108.521 149.666 109.42ZM147.66 108.815C147.648 108.107 147.394 107.54 146.899 107.114C146.404 106.687 145.792 106.475 145.061 106.475C144.398 106.476 143.831 106.69 143.359 107.118C142.888 107.534 142.608 108.102 142.519 108.821L147.66 108.815ZM155.356 114.436C154.626 114.437 153.968 114.308 153.383 114.051C152.81 113.782 152.354 113.423 152.017 112.974C151.679 112.513 151.499 112.002 151.476 111.44L153.465 111.438C153.499 111.831 153.685 112.162 154.022 112.432C154.371 112.69 154.803 112.818 155.32 112.818C155.86 112.817 156.275 112.716 156.567 112.513C156.871 112.299 157.022 112.029 157.022 111.703C157.021 111.355 156.852 111.097 156.515 110.929C156.189 110.76 155.666 110.576 154.947 110.374C154.25 110.184 153.682 109.999 153.244 109.82C152.805 109.641 152.423 109.366 152.096 108.995C151.781 108.625 151.623 108.136 151.623 107.529C151.622 107.035 151.768 106.585 152.059 106.18C152.351 105.764 152.766 105.438 153.305 105.201C153.856 104.965 154.485 104.846 155.193 104.845C156.249 104.844 157.098 105.112 157.739 105.651C158.391 106.178 158.741 106.903 158.787 107.824L156.865 107.827C156.831 107.411 156.662 107.08 156.358 106.833C156.055 106.586 155.644 106.463 155.127 106.463C154.622 106.464 154.234 106.56 153.965 106.751C153.695 106.943 153.561 107.196 153.561 107.51C153.561 107.758 153.651 107.965 153.831 108.134C154.011 108.302 154.231 108.437 154.489 108.537C154.748 108.627 155.13 108.745 155.636 108.89C156.31 109.069 156.861 109.254 157.289 109.444C157.727 109.624 158.104 109.893 158.419 110.252C158.734 110.611 158.897 111.089 158.909 111.684C158.91 112.212 158.765 112.684 158.473 113.101C158.181 113.517 157.766 113.843 157.227 114.08C156.699 114.316 156.075 114.435 155.356 114.436ZM164.782 114.425C164.051 114.426 163.394 114.297 162.809 114.039C162.236 113.77 161.78 113.411 161.442 112.962C161.105 112.502 160.924 111.991 160.901 111.429L162.89 111.427C162.924 111.82 163.11 112.151 163.448 112.42C163.796 112.678 164.229 112.807 164.746 112.807C165.285 112.806 165.701 112.704 165.993 112.502C166.296 112.288 166.448 112.018 166.447 111.692C166.447 111.344 166.278 111.085 165.94 110.917C165.614 110.749 165.092 110.564 164.372 110.363C163.675 110.173 163.108 109.988 162.669 109.809C162.231 109.629 161.848 109.354 161.522 108.984C161.207 108.614 161.049 108.125 161.048 107.518C161.048 107.024 161.193 106.574 161.485 106.169C161.776 105.753 162.192 105.427 162.731 105.19C163.281 104.953 163.91 104.835 164.618 104.834C165.675 104.832 166.523 105.101 167.165 105.64C167.817 106.167 168.166 106.892 168.212 107.813L166.291 107.815C166.257 107.4 166.088 107.068 165.784 106.821C165.48 106.574 165.07 106.451 164.553 106.452C164.047 106.453 163.66 106.549 163.39 106.74C163.121 106.931 162.986 107.184 162.987 107.499C162.987 107.746 163.077 107.954 163.257 108.122C163.437 108.291 163.656 108.425 163.915 108.526C164.173 108.616 164.556 108.733 165.062 108.879C165.736 109.058 166.287 109.242 166.714 109.433C167.153 109.612 167.529 109.881 167.844 110.241C168.16 110.6 168.323 111.077 168.335 111.673C168.336 112.201 168.19 112.673 167.898 113.089C167.607 113.505 167.191 113.832 166.652 114.068C166.124 114.305 165.501 114.424 164.782 114.425ZM179.496 114.373C178.709 114.374 178.001 114.24 177.372 113.971C176.742 113.691 176.247 113.298 175.887 112.793C175.527 112.288 175.346 111.698 175.345 111.024L177.402 111.021C177.447 111.527 177.645 111.943 177.993 112.268C178.353 112.593 178.854 112.756 179.494 112.755C180.157 112.754 180.674 112.596 181.044 112.281C181.415 111.955 181.6 111.539 181.599 111.033C181.599 110.64 181.48 110.32 181.244 110.073C181.019 109.826 180.732 109.635 180.384 109.501C180.046 109.366 179.574 109.221 178.967 109.064C178.203 108.863 177.579 108.661 177.095 108.46C176.623 108.247 176.218 107.921 175.881 107.483C175.543 107.046 175.374 106.461 175.373 105.731C175.372 105.057 175.54 104.467 175.876 103.961C176.213 103.454 176.684 103.066 177.291 102.796C177.897 102.525 178.599 102.39 179.397 102.389C180.532 102.387 181.46 102.673 182.18 103.245C182.911 103.806 183.316 104.581 183.396 105.57L181.272 105.572C181.238 105.145 181.035 104.78 180.664 104.477C180.293 104.174 179.804 104.023 179.197 104.024C178.646 104.025 178.197 104.166 177.849 104.447C177.501 104.728 177.327 105.133 177.328 105.661C177.328 106.021 177.436 106.319 177.649 106.554C177.874 106.779 178.155 106.958 178.493 107.093C178.83 107.227 179.291 107.373 179.875 107.529C180.651 107.742 181.281 107.955 181.764 108.167C182.259 108.38 182.675 108.711 183.013 109.16C183.362 109.598 183.536 110.188 183.537 110.93C183.538 111.525 183.376 112.087 183.051 112.616C182.737 113.144 182.271 113.572 181.653 113.899C181.047 114.214 180.328 114.372 179.496 114.373ZM188.463 106.524L188.469 111.665C188.469 112.014 188.548 112.267 188.706 112.424C188.875 112.57 189.156 112.642 189.549 112.642L190.729 112.64L190.731 114.242L189.214 114.244C188.348 114.245 187.685 114.043 187.224 113.639C186.763 113.235 186.532 112.578 186.53 111.668L186.524 106.527L185.429 106.528L185.427 104.96L186.522 104.959L186.52 102.65L188.458 102.647L188.461 104.957L190.72 104.954L190.721 106.522L188.463 106.524ZM192.277 109.554C192.276 108.621 192.466 107.795 192.847 107.075C193.24 106.356 193.767 105.799 194.43 105.405C195.103 104.999 195.845 104.796 196.654 104.795C197.384 104.794 198.019 104.94 198.559 105.231C199.11 105.511 199.549 105.865 199.875 106.292L199.874 104.943L201.812 104.941L201.823 114.228L199.885 114.231L199.883 112.849C199.558 113.287 199.114 113.653 198.553 113.946C197.991 114.239 197.351 114.385 196.632 114.386C195.834 114.387 195.103 114.186 194.44 113.782C193.776 113.367 193.247 112.795 192.853 112.065C192.47 111.324 192.278 110.487 192.277 109.554ZM199.879 109.578C199.878 108.938 199.743 108.382 199.473 107.91C199.214 107.439 198.87 107.079 198.443 106.833C198.016 106.586 197.555 106.463 197.06 106.463C196.566 106.464 196.105 106.588 195.679 106.836C195.252 107.072 194.904 107.427 194.635 107.899C194.377 108.36 194.248 108.911 194.249 109.552C194.25 110.192 194.38 110.754 194.639 111.237C194.909 111.72 195.258 112.09 195.685 112.348C196.124 112.595 196.585 112.718 197.068 112.717C197.562 112.716 198.023 112.592 198.45 112.345C198.876 112.097 199.219 111.737 199.477 111.265C199.746 110.781 199.88 110.219 199.879 109.578ZM207.001 106.502L207.007 111.643C207.008 111.992 207.087 112.244 207.244 112.401C207.413 112.547 207.694 112.62 208.087 112.62L209.267 112.618L209.269 114.219L207.752 114.221C206.887 114.222 206.224 114.021 205.762 113.617C205.301 113.213 205.07 112.556 205.069 111.646L205.063 106.504L203.967 106.506L203.965 104.938L205.061 104.937L205.058 102.628L206.996 102.625L206.999 104.934L209.258 104.932L209.26 106.499L207.001 106.502ZM219.968 109.335C219.968 109.684 219.946 109.998 219.902 110.279L212.805 110.288C212.862 111.029 213.138 111.625 213.633 112.073C214.128 112.522 214.736 112.746 215.455 112.746C216.489 112.744 217.218 112.311 217.644 111.445L219.718 111.442C219.438 112.297 218.927 113 218.186 113.551C217.457 114.092 216.547 114.362 215.457 114.364C214.569 114.365 213.771 114.169 213.062 113.777C212.365 113.373 211.814 112.812 211.408 112.093C211.014 111.363 210.817 110.52 210.815 109.565C210.814 108.61 211.004 107.773 211.386 107.053C211.778 106.322 212.322 105.76 213.019 105.365C213.726 104.971 214.535 104.774 215.445 104.773C216.322 104.772 217.103 104.962 217.789 105.343C218.475 105.724 219.009 106.263 219.392 106.959C219.775 107.644 219.967 108.436 219.968 109.335ZM217.961 108.731C217.949 108.023 217.696 107.456 217.201 107.029C216.706 106.603 216.093 106.39 215.363 106.391C214.7 106.392 214.133 106.606 213.661 107.033C213.19 107.45 212.909 108.018 212.82 108.737L217.961 108.731ZM224.198 106.262C224.479 105.79 224.849 105.424 225.31 105.165C225.781 104.895 226.337 104.76 226.978 104.759L226.98 106.748L226.491 106.748C225.739 106.749 225.166 106.941 224.773 107.324C224.391 107.706 224.201 108.369 224.202 109.313L224.208 114.201L222.286 114.204L222.275 104.916L224.197 104.914L224.198 106.262ZM232.908 104.752C233.627 104.751 234.262 104.896 234.813 105.188C235.375 105.468 235.814 105.821 236.129 106.248L236.127 104.899L238.066 104.897L238.077 114.337C238.078 115.191 237.899 115.949 237.54 116.613C237.182 117.287 236.66 117.816 235.975 118.199C235.301 118.582 234.492 118.774 233.548 118.775C232.29 118.777 231.244 118.48 230.412 117.886C229.58 117.302 229.107 116.505 228.993 115.494L230.898 115.491C231.044 115.974 231.354 116.362 231.826 116.653C232.31 116.956 232.883 117.107 233.546 117.106C234.322 117.105 234.945 116.869 235.416 116.396C235.899 115.924 236.14 115.238 236.139 114.339L236.137 112.788C235.811 113.227 235.368 113.598 234.807 113.902C234.256 114.195 233.627 114.342 232.919 114.343C232.11 114.344 231.368 114.142 230.693 113.739C230.03 113.324 229.501 112.751 229.107 112.021C228.724 111.28 228.532 110.443 228.531 109.51C228.53 108.578 228.72 107.751 229.101 107.032C229.493 106.312 230.021 105.755 230.683 105.361C231.357 104.956 232.099 104.753 232.908 104.752ZM236.133 109.535C236.132 108.894 235.997 108.338 235.726 107.867C235.467 107.395 235.124 107.036 234.697 106.789C234.27 106.542 233.809 106.419 233.314 106.42C232.82 106.42 232.359 106.545 231.932 106.792C231.506 107.029 231.158 107.383 230.889 107.856C230.631 108.317 230.502 108.867 230.503 109.508C230.504 110.148 230.634 110.71 230.893 111.193C231.163 111.676 231.512 112.046 231.939 112.304C232.378 112.551 232.839 112.674 233.322 112.673C233.816 112.673 234.277 112.549 234.703 112.301C235.13 112.053 235.473 111.693 235.73 111.221C236 110.737 236.134 110.175 236.133 109.535ZM249.372 104.884L243.691 118.544L241.702 118.546L243.584 114.026L239.915 104.895L242.056 104.892L244.677 111.969L247.383 104.886L249.372 104.884Z" fill="#353E6C"/>
<g clip-path="url(#clip0_1_563)">
<path d="M280 287.367L279.176 287.367L279.176 286.634L280 286.634L280 287.367ZM277.619 287.367L275.971 287.367L275.971 286.634L277.619 286.634L277.619 287.367ZM274.323 287.367L272.675 287.367L272.675 286.634L274.323 286.634L274.323 287.367ZM271.027 287.367L269.379 287.367L269.379 286.634L271.027 286.634L271.027 287.367ZM267.731 287.367L266.083 287.367L266.083 286.634L267.731 286.634L267.731 287.367ZM264.435 287.367L262.787 287.367L262.787 286.634L264.435 286.634L264.435 287.367ZM261.139 287.367L259.491 287.367L259.491 286.634L261.139 286.634L261.139 287.367ZM257.843 287.367L256.195 287.367L256.195 286.634L257.843 286.634L257.843 287.367ZM254.547 287.367L252.899 287.367L252.899 286.634L254.547 286.634L254.547 287.367ZM251.251 287.367L249.603 287.367L249.603 286.634L251.251 286.634L251.251 287.367ZM247.955 287.367L246.307 287.367L246.307 286.634L247.955 286.634L247.955 287.367ZM244.659 287.367L243.01 287.367L243.01 286.634L244.659 286.634L244.659 287.367ZM241.362 287.367L239.714 287.367L239.714 286.634L241.362 286.634L241.362 287.367ZM238.066 287.367L236.418 287.367L236.418 286.634L238.066 286.634L238.066 287.367ZM234.77 287.367L233.122 287.367L233.122 286.634L234.77 286.634L234.77 287.367ZM231.474 287.367L229.826 287.367L229.826 286.634L231.474 286.634L231.474 287.367ZM228.178 287.367L226.53 287.367L226.53 286.634L228.178 286.634L228.178 287.367ZM224.882 287.367L223.234 287.367L223.234 286.634L224.882 286.634L224.882 287.367ZM221.586 287.367L219.938 287.367L219.938 286.634L221.586 286.634L221.586 287.367ZM218.29 287.367L216.642 287.367L216.642 286.634L218.29 286.634L218.29 287.367ZM215.085 287.367L213.437 287.367L213.437 286.634L215.085 286.634L215.085 287.367ZM211.789 287.367L210.141 287.367L210.141 286.634L211.789 286.634L211.789 287.367ZM208.493 287.367L206.845 287.367L206.845 286.634L208.493 286.634L208.493 287.367ZM205.197 287.367L203.549 287.367L203.549 286.634L205.197 286.634L205.197 287.367ZM201.901 287.367L200.253 287.367L200.253 286.634L201.901 286.634L201.901 287.367ZM198.605 287.367L196.957 287.367L196.957 286.634L198.605 286.634L198.605 287.367ZM195.309 287.367L193.661 287.367L193.661 286.634L195.309 286.634L195.309 287.367ZM192.013 287.367L190.365 287.367L190.365 286.634L192.013 286.634L192.013 287.367ZM188.716 287.367L187.068 287.367L187.068 286.634L188.716 286.634L188.716 287.367ZM185.42 287.367L183.772 287.367L183.772 286.634L185.42 286.634L185.42 287.367ZM182.124 287.367L180.476 287.367L180.476 286.634L182.124 286.634L182.124 287.367ZM178.828 287.367L177.18 287.367L177.18 286.634L178.828 286.634L178.828 287.367ZM175.532 287.367L173.884 287.367L173.884 286.634L175.532 286.634L175.532 287.367ZM172.236 287.367L170.588 287.367L170.588 286.634L172.236 286.634L172.236 287.367ZM168.94 287.367L167.292 287.367L167.292 286.634L168.94 286.634L168.94 287.367ZM165.644 287.367L163.996 287.367L163.996 286.634L165.644 286.634L165.644 287.367ZM162.348 287.367L160.7 287.367L160.7 286.634L162.348 286.634L162.348 287.367ZM159.052 287.367L157.404 287.367L157.404 286.634L159.052 286.634L159.052 287.367ZM155.756 287.367L154.108 287.367L154.108 286.634L155.756 286.634L155.756 287.367ZM152.551 287.367L150.903 287.367L150.903 286.634L152.551 286.634L152.551 287.367ZM149.255 287.367L147.607 287.367L147.607 286.634L149.255 286.634L149.255 287.367ZM145.959 287.367L144.311 287.367L144.311 286.634L145.959 286.634L145.959 287.367ZM142.663 287.367L141.015 287.367L141.015 286.634L142.663 286.634L142.663 287.367ZM139.367 287.367L137.719 287.367L137.719 286.634L139.367 286.634L139.367 287.367ZM136.071 287.367L134.423 287.367L134.423 286.634L136.071 286.634L136.071 287.367ZM132.774 287.367L131.126 287.367L131.126 286.634L132.774 286.634L132.774 287.367ZM129.478 287.367L127.83 287.367L127.83 286.634L129.478 286.634L129.478 287.367ZM126.182 287.367L124.534 287.367L124.534 286.634L126.182 286.634L126.182 287.367ZM122.886 287.367L121.238 287.367L121.238 286.634L122.886 286.634L122.886 287.367ZM119.59 287.367L117.942 287.367L117.942 286.634L119.59 286.634L119.59 287.367ZM116.294 287.367L114.646 287.367L114.646 286.634L116.294 286.634L116.294 287.367ZM112.998 287.367L111.35 287.367L111.35 286.634L112.998 286.634L112.998 287.367ZM109.702 287.367L108.054 287.367L108.054 286.634L109.702 286.634L109.702 287.367ZM106.406 287.367L104.758 287.367L104.758 286.634L106.406 286.634L106.406 287.367ZM103.11 287.367L101.462 287.367L101.462 286.634L103.11 286.634L103.11 287.367ZM99.8135 287.367L98.1655 287.367L98.1655 286.634L99.8135 286.634L99.8135 287.367ZM96.5174 287.367L94.8694 287.367L94.8694 286.634L96.5174 286.634L96.5174 287.367ZM93.2213 287.367L91.5733 287.367L91.5733 286.634L93.2213 286.634L93.2213 287.367ZM90.0168 287.367L88.3688 287.367L88.3688 286.634L90.0168 286.634L90.0168 287.367ZM86.7207 287.367L85.0727 287.367L85.0727 286.634L86.7207 286.634L86.7207 287.367ZM83.4246 287.367L81.7766 287.367L81.7766 286.634L83.4246 286.634L83.4246 287.367ZM80.1285 287.367L78.4805 287.367L78.4805 286.634L80.1285 286.634L80.1285 287.367ZM76.8324 287.367L75.1844 287.367L75.1844 286.634L76.8324 286.634L76.8324 287.367ZM73.5363 287.367L71.8883 287.367L71.8883 286.634L73.5363 286.634L73.5363 287.367ZM70.2402 287.367L68.5922 287.367L68.5922 286.634L70.2402 286.634L70.2402 287.367ZM66.9441 287.367L65.2961 287.367L65.2961 286.634L66.9441 286.634L66.9441 287.367ZM63.648 287.367L62 287.367L62 286.634L63.648 286.634L63.648 287.367Z" fill="#D9D9D8"/>
<path d="M280 252.232L279.176 252.232L279.176 251.498L280 251.498L280 252.232ZM277.619 252.232L275.971 252.232L275.971 251.498L277.619 251.498L277.619 252.232ZM274.323 252.232L272.675 252.232L272.675 251.498L274.323 251.498L274.323 252.232ZM271.027 252.232L269.379 252.232L269.379 251.498L271.027 251.498L271.027 252.232ZM267.731 252.232L266.083 252.232L266.083 251.498L267.731 251.498L267.731 252.232ZM264.435 252.232L262.787 252.232L262.787 251.498L264.435 251.498L264.435 252.232ZM261.139 252.232L259.491 252.232L259.491 251.498L261.139 251.498L261.139 252.232ZM257.843 252.232L256.195 252.232L256.195 251.498L257.843 251.498L257.843 252.232ZM254.547 252.232L252.899 252.232L252.899 251.498L254.547 251.498L254.547 252.232ZM251.251 252.232L249.603 252.232L249.603 251.498L251.251 251.498L251.251 252.232ZM247.955 252.232L246.307 252.232L246.307 251.498L247.955 251.498L247.955 252.232ZM244.659 252.232L243.01 252.232L243.01 251.498L244.659 251.498L244.659 252.232ZM241.362 252.232L239.714 252.232L239.714 251.498L241.362 251.498L241.362 252.232ZM238.066 252.232L236.418 252.232L236.418 251.498L238.066 251.498L238.066 252.232ZM234.77 252.232L233.122 252.232L233.122 251.498L234.77 251.498L234.77 252.232ZM231.474 252.232L229.826 252.232L229.826 251.498L231.474 251.498L231.474 252.232ZM228.178 252.232L226.53 252.232L226.53 251.498L228.178 251.498L228.178 252.232ZM224.882 252.232L223.234 252.232L223.234 251.498L224.882 251.498L224.882 252.232ZM221.586 252.232L219.938 252.232L219.938 251.498L221.586 251.498L221.586 252.232ZM218.29 252.232L216.642 252.232L216.642 251.498L218.29 251.498L218.29 252.232ZM215.085 252.232L213.437 252.232L213.437 251.498L215.085 251.498L215.085 252.232ZM211.789 252.232L210.141 252.232L210.141 251.498L211.789 251.498L211.789 252.232ZM208.493 252.232L206.845 252.232L206.845 251.498L208.493 251.498L208.493 252.232ZM205.197 252.232L203.549 252.232L203.549 251.498L205.197 251.498L205.197 252.232ZM201.901 252.232L200.253 252.232L200.253 251.498L201.901 251.498L201.901 252.232ZM198.605 252.232L196.957 252.232L196.957 251.498L198.605 251.498L198.605 252.232ZM195.309 252.232L193.661 252.232L193.661 251.498L195.309 251.498L195.309 252.232ZM192.013 252.232L190.365 252.232L190.365 251.498L192.013 251.498L192.013 252.232ZM188.716 252.232L187.068 252.232L187.068 251.498L188.716 251.498L188.716 252.232ZM185.42 252.232L183.772 252.232L183.772 251.498L185.42 251.498L185.42 252.232ZM182.124 252.232L180.476 252.232L180.476 251.498L182.124 251.498L182.124 252.232ZM178.828 252.232L177.18 252.232L177.18 251.498L178.828 251.498L178.828 252.232ZM175.532 252.232L173.884 252.232L173.884 251.498L175.532 251.498L175.532 252.232ZM172.236 252.232L170.588 252.232L170.588 251.498L172.236 251.498L172.236 252.232ZM168.94 252.232L167.292 252.232L167.292 251.498L168.94 251.498L168.94 252.232ZM165.644 252.232L163.996 252.232L163.996 251.498L165.644 251.498L165.644 252.232ZM162.348 252.232L160.7 252.232L160.7 251.498L162.348 251.498L162.348 252.232ZM159.052 252.232L157.404 252.232L157.404 251.498L159.052 251.498L159.052 252.232ZM155.756 252.232L154.108 252.232L154.108 251.498L155.756 251.498L155.756 252.232ZM152.551 252.232L150.903 252.232L150.903 251.498L152.551 251.498L152.551 252.232ZM149.255 252.232L147.607 252.232L147.607 251.498L149.255 251.498L149.255 252.232ZM145.959 252.232L144.311 252.232L144.311 251.498L145.959 251.498L145.959 252.232ZM142.663 252.232L141.015 252.232L141.015 251.498L142.663 251.498L142.663 252.232ZM139.367 252.232L137.719 252.232L137.719 251.498L139.367 251.498L139.367 252.232ZM136.071 252.232L134.423 252.232L134.423 251.498L136.071 251.498L136.071 252.232ZM132.774 252.232L131.126 252.232L131.126 251.498L132.774 251.498L132.774 252.232ZM129.478 252.232L127.83 252.232L127.83 251.498L129.478 251.498L129.478 252.232ZM126.182 252.232L124.534 252.232L124.534 251.498L126.182 251.498L126.182 252.232ZM122.886 252.232L121.238 252.232L121.238 251.498L122.886 251.498L122.886 252.232ZM119.59 252.232L117.942 252.232L117.942 251.498L119.59 251.498L119.59 252.232ZM116.294 252.232L114.646 252.232L114.646 251.498L116.294 251.498L116.294 252.232ZM112.998 252.232L111.35 252.232L111.35 251.498L112.998 251.498L112.998 252.232ZM109.702 252.232L108.054 252.232L108.054 251.498L109.702 251.498L109.702 252.232ZM106.406 252.232L104.758 252.232L104.758 251.498L106.406 251.498L106.406 252.232ZM103.11 252.232L101.462 252.232L101.462 251.498L103.11 251.498L103.11 252.232ZM99.8135 252.232L98.1655 252.232L98.1655 251.498L99.8135 251.498L99.8135 252.232ZM96.5174 252.232L94.8694 252.232L94.8694 251.498L96.5174 251.498L96.5174 252.232ZM93.2213 252.232L91.5733 252.232L91.5733 251.498L93.2213 251.498L93.2213 252.232ZM90.0168 252.232L88.3688 252.232L88.3688 251.498L90.0168 251.498L90.0168 252.232ZM86.7207 252.232L85.0727 252.232L85.0727 251.498L86.7207 251.498L86.7207 252.232ZM83.4246 252.232L81.7766 252.232L81.7766 251.498L83.4246 251.498L83.4246 252.232ZM80.1285 252.232L78.4805 252.232L78.4805 251.498L80.1285 251.498L80.1285 252.232ZM76.8324 252.232L75.1844 252.232L75.1844 251.498L76.8324 251.498L76.8324 252.232ZM73.5363 252.232L71.8883 252.232L71.8883 251.498L73.5363 251.498L73.5363 252.232ZM70.2402 252.232L68.5922 252.232L68.5922 251.498L70.2402 251.498L70.2402 252.232ZM66.9441 252.232L65.2961 252.232L65.2961 251.498L66.9441 251.498L66.9441 252.232ZM63.648 252.232L62 252.232L62 251.498L63.648 251.498L63.648 252.232Z" fill="#D9D9D8"/>
<path d="M280 217.005L279.176 217.005L279.176 216.271L280 216.271L280 217.005ZM277.619 217.005L275.971 217.005L275.971 216.271L277.619 216.271L277.619 217.005ZM274.323 217.005L272.675 217.005L272.675 216.271L274.323 216.271L274.323 217.005ZM271.027 217.005L269.379 217.005L269.379 216.271L271.027 216.271L271.027 217.005ZM267.731 217.005L266.083 217.005L266.083 216.271L267.731 216.271L267.731 217.005ZM264.435 217.005L262.787 217.005L262.787 216.271L264.435 216.271L264.435 217.005ZM261.139 217.005L259.491 217.005L259.491 216.271L261.139 216.271L261.139 217.005ZM257.843 217.005L256.195 217.005L256.195 216.271L257.843 216.271L257.843 217.005ZM254.547 217.005L252.899 217.005L252.899 216.271L254.547 216.271L254.547 217.005ZM251.251 217.005L249.603 217.005L249.603 216.271L251.251 216.271L251.251 217.005ZM247.955 217.005L246.307 217.005L246.307 216.271L247.955 216.271L247.955 217.005ZM244.659 217.005L243.01 217.005L243.01 216.271L244.659 216.271L244.659 217.005ZM241.362 217.005L239.714 217.005L239.714 216.271L241.362 216.271L241.362 217.005ZM238.066 217.005L236.418 217.005L236.418 216.271L238.066 216.271L238.066 217.005ZM234.77 217.005L233.122 217.005L233.122 216.271L234.77 216.271L234.77 217.005ZM231.474 217.005L229.826 217.005L229.826 216.271L231.474 216.271L231.474 217.005ZM228.178 217.005L226.53 217.005L226.53 216.271L228.178 216.271L228.178 217.005ZM224.882 217.005L223.234 217.005L223.234 216.271L224.882 216.271L224.882 217.005ZM221.586 217.005L219.938 217.005L219.938 216.271L221.586 216.271L221.586 217.005ZM218.29 217.005L216.642 217.005L216.642 216.271L218.29 216.271L218.29 217.005ZM215.085 217.005L213.437 217.005L213.437 216.271L215.085 216.271L215.085 217.005ZM211.789 217.005L210.141 217.005L210.141 216.271L211.789 216.271L211.789 217.005ZM208.493 217.005L206.845 217.005L206.845 216.271L208.493 216.271L208.493 217.005ZM205.197 217.005L203.549 217.005L203.549 216.271L205.197 216.271L205.197 217.005ZM201.901 217.005L200.253 217.005L200.253 216.271L201.901 216.271L201.901 217.005ZM198.605 217.005L196.957 217.005L196.957 216.271L198.605 216.271L198.605 217.005ZM195.309 217.005L193.661 217.005L193.661 216.271L195.309 216.271L195.309 217.005ZM192.013 217.005L190.365 217.005L190.365 216.271L192.013 216.271L192.013 217.005ZM188.716 217.005L187.068 217.005L187.068 216.271L188.716 216.271L188.716 217.005ZM185.42 217.005L183.772 217.005L183.772 216.271L185.42 216.271L185.42 217.005ZM182.124 217.005L180.476 217.005L180.476 216.271L182.124 216.271L182.124 217.005ZM178.828 217.005L177.18 217.005L177.18 216.271L178.828 216.271L178.828 217.005ZM175.532 217.005L173.884 217.005L173.884 216.271L175.532 216.271L175.532 217.005ZM172.236 217.005L170.588 217.005L170.588 216.271L172.236 216.271L172.236 217.005ZM168.94 217.005L167.292 217.005L167.292 216.271L168.94 216.271L168.94 217.005ZM165.644 217.005L163.996 217.005L163.996 216.271L165.644 216.271L165.644 217.005ZM162.348 217.005L160.7 217.005L160.7 216.271L162.348 216.271L162.348 217.005ZM159.052 217.005L157.404 217.005L157.404 216.271L159.052 216.271L159.052 217.005ZM155.756 217.005L154.108 217.005L154.108 216.271L155.756 216.271L155.756 217.005ZM152.551 217.005L150.903 217.005L150.903 216.271L152.551 216.271L152.551 217.005ZM149.255 217.005L147.607 217.005L147.607 216.271L149.255 216.271L149.255 217.005ZM145.959 217.005L144.311 217.005L144.311 216.271L145.959 216.271L145.959 217.005ZM142.663 217.005L141.015 217.005L141.015 216.271L142.663 216.271L142.663 217.005ZM139.367 217.005L137.719 217.005L137.719 216.271L139.367 216.271L139.367 217.005ZM136.071 217.005L134.423 217.005L134.423 216.271L136.071 216.271L136.071 217.005ZM132.774 217.005L131.126 217.005L131.126 216.271L132.774 216.271L132.774 217.005ZM129.478 217.005L127.83 217.005L127.83 216.271L129.478 216.271L129.478 217.005ZM126.182 217.005L124.534 217.005L124.534 216.271L126.182 216.271L126.182 217.005ZM122.886 217.005L121.238 217.005L121.238 216.271L122.886 216.271L122.886 217.005ZM119.59 217.005L117.942 217.005L117.942 216.271L119.59 216.271L119.59 217.005ZM116.294 217.005L114.646 217.005L114.646 216.271L116.294 216.271L116.294 217.005ZM112.998 217.005L111.35 217.005L111.35 216.271L112.998 216.271L112.998 217.005ZM109.702 217.005L108.054 217.005L108.054 216.271L109.702 216.271L109.702 217.005ZM106.406 217.005L104.758 217.005L104.758 216.271L106.406 216.271L106.406 217.005ZM103.11 217.005L101.462 217.005L101.462 216.271L103.11 216.271L103.11 217.005ZM99.8135 217.005L98.1655 217.005L98.1655 216.271L99.8135 216.271L99.8135 217.005ZM96.5174 217.005L94.8694 217.005L94.8694 216.271L96.5174 216.271L96.5174 217.005ZM93.2213 217.005L91.5733 217.005L91.5733 216.271L93.2213 216.271L93.2213 217.005ZM90.0168 217.005L88.3688 217.005L88.3688 216.271L90.0168 216.271L90.0168 217.005ZM86.7207 217.005L85.0727 217.005L85.0727 216.271L86.7207 216.271L86.7207 217.005ZM83.4246 217.005L81.7766 217.005L81.7766 216.271L83.4246 216.271L83.4246 217.005ZM80.1285 217.005L78.4805 217.005L78.4805 216.271L80.1285 216.271L80.1285 217.005ZM76.8324 217.005L75.1844 217.005L75.1844 216.271L76.8324 216.271L76.8324 217.005ZM73.5363 217.005L71.8883 217.005L71.8883 216.271L73.5363 216.271L73.5363 217.005ZM70.2402 217.005L68.5922 217.005L68.5922 216.271L70.2402 216.271L70.2402 217.005ZM66.9441 217.005L65.2961 217.005L65.2961 216.271L66.9441 216.271L66.9441 217.005ZM63.648 217.005L62 217.005L62 216.271L63.648 216.271L63.648 217.005Z" fill="#D9D9D8"/>
<path d="M280 181.869L279.176 181.869L279.176 181.135L280 181.135L280 181.869ZM277.619 181.869L275.971 181.869L275.971 181.135L277.619 181.135L277.619 181.869ZM274.323 181.869L272.675 181.869L272.675 181.135L274.323 181.135L274.323 181.869ZM271.027 181.869L269.379 181.869L269.379 181.135L271.027 181.135L271.027 181.869ZM267.731 181.869L266.083 181.869L266.083 181.135L267.731 181.135L267.731 181.869ZM264.435 181.869L262.787 181.869L262.787 181.135L264.435 181.135L264.435 181.869ZM261.139 181.869L259.491 181.869L259.491 181.135L261.139 181.135L261.139 181.869ZM257.843 181.869L256.195 181.869L256.195 181.135L257.843 181.135L257.843 181.869ZM254.547 181.869L252.899 181.869L252.899 181.135L254.547 181.135L254.547 181.869ZM251.251 181.869L249.603 181.869L249.603 181.135L251.251 181.135L251.251 181.869ZM247.955 181.869L246.307 181.869L246.307 181.135L247.955 181.135L247.955 181.869ZM244.659 181.869L243.01 181.869L243.01 181.135L244.659 181.135L244.659 181.869ZM241.362 181.869L239.714 181.869L239.714 181.135L241.362 181.135L241.362 181.869ZM238.066 181.869L236.418 181.869L236.418 181.135L238.066 181.135L238.066 181.869ZM234.77 181.869L233.122 181.869L233.122 181.135L234.77 181.135L234.77 181.869ZM231.474 181.869L229.826 181.869L229.826 181.135L231.474 181.135L231.474 181.869ZM228.178 181.869L226.53 181.869L226.53 181.135L228.178 181.135L228.178 181.869ZM224.882 181.869L223.234 181.869L223.234 181.135L224.882 181.135L224.882 181.869ZM221.586 181.869L219.938 181.869L219.938 181.135L221.586 181.135L221.586 181.869ZM218.29 181.869L216.642 181.869L216.642 181.135L218.29 181.135L218.29 181.869ZM215.085 181.869L213.437 181.869L213.437 181.135L215.085 181.135L215.085 181.869ZM211.789 181.869L210.141 181.869L210.141 181.135L211.789 181.135L211.789 181.869ZM208.493 181.869L206.845 181.869L206.845 181.135L208.493 181.135L208.493 181.869ZM205.197 181.869L203.549 181.869L203.549 181.135L205.197 181.135L205.197 181.869ZM201.901 181.869L200.253 181.869L200.253 181.135L201.901 181.135L201.901 181.869ZM198.605 181.869L196.957 181.869L196.957 181.135L198.605 181.135L198.605 181.869ZM195.309 181.869L193.661 181.869L193.661 181.135L195.309 181.135L195.309 181.869ZM192.013 181.869L190.365 181.869L190.365 181.135L192.013 181.135L192.013 181.869ZM188.716 181.869L187.068 181.869L187.068 181.135L188.716 181.135L188.716 181.869ZM185.42 181.869L183.772 181.869L183.772 181.135L185.42 181.135L185.42 181.869ZM182.124 181.869L180.476 181.869L180.476 181.135L182.124 181.135L182.124 181.869ZM178.828 181.869L177.18 181.869L177.18 181.135L178.828 181.135L178.828 181.869ZM175.532 181.869L173.884 181.869L173.884 181.135L175.532 181.135L175.532 181.869ZM172.236 181.869L170.588 181.869L170.588 181.135L172.236 181.135L172.236 181.869ZM168.94 181.869L167.292 181.869L167.292 181.135L168.94 181.135L168.94 181.869ZM165.644 181.869L163.996 181.869L163.996 181.135L165.644 181.135L165.644 181.869ZM162.348 181.869L160.7 181.869L160.7 181.135L162.348 181.135L162.348 181.869ZM159.052 181.869L157.404 181.869L157.404 181.135L159.052 181.135L159.052 181.869ZM155.756 181.869L154.108 181.869L154.108 181.135L155.756 181.135L155.756 181.869ZM152.551 181.869L150.903 181.869L150.903 181.135L152.551 181.135L152.551 181.869ZM149.255 181.869L147.607 181.869L147.607 181.135L149.255 181.135L149.255 181.869ZM145.959 181.869L144.311 181.869L144.311 181.135L145.959 181.135L145.959 181.869ZM142.663 181.869L141.015 181.869L141.015 181.135L142.663 181.135L142.663 181.869ZM139.367 181.869L137.719 181.869L137.719 181.135L139.367 181.135L139.367 181.869ZM136.071 181.869L134.423 181.869L134.423 181.135L136.071 181.135L136.071 181.869ZM132.774 181.869L131.126 181.869L131.126 181.135L132.774 181.135L132.774 181.869ZM129.478 181.869L127.83 181.869L127.83 181.135L129.478 181.135L129.478 181.869ZM126.182 181.869L124.534 181.869L124.534 181.135L126.182 181.135L126.182 181.869ZM122.886 181.869L121.238 181.869L121.238 181.135L122.886 181.135L122.886 181.869ZM119.59 181.869L117.942 181.869L117.942 181.135L119.59 181.135L119.59 181.869ZM116.294 181.869L114.646 181.869L114.646 181.135L116.294 181.135L116.294 181.869ZM112.998 181.869L111.35 181.869L111.35 181.135L112.998 181.135L112.998 181.869ZM109.702 181.869L108.054 181.869L108.054 181.135L109.702 181.135L109.702 181.869ZM106.406 181.869L104.758 181.869L104.758 181.135L106.406 181.135L106.406 181.869ZM103.11 181.869L101.462 181.869L101.462 181.135L103.11 181.135L103.11 181.869ZM99.8135 181.869L98.1655 181.869L98.1655 181.135L99.8135 181.135L99.8135 181.869ZM96.5174 181.869L94.8694 181.869L94.8694 181.135L96.5174 181.135L96.5174 181.869ZM93.2213 181.869L91.5733 181.869L91.5733 181.135L93.2213 181.135L93.2213 181.869ZM90.0168 181.869L88.3688 181.869L88.3688 181.135L90.0168 181.135L90.0168 181.869ZM86.7207 181.869L85.0727 181.869L85.0727 181.135L86.7207 181.135L86.7207 181.869ZM83.4246 181.869L81.7766 181.869L81.7766 181.135L83.4246 181.135L83.4246 181.869ZM80.1285 181.869L78.4805 181.869L78.4805 181.135L80.1285 181.135L80.1285 181.869ZM76.8324 181.869L75.1844 181.869L75.1844 181.135L76.8324 181.135L76.8324 181.869ZM73.5363 181.869L71.8883 181.869L71.8883 181.135L73.5363 181.135L73.5363 181.869ZM70.2402 181.869L68.5922 181.869L68.5922 181.135L70.2402 181.135L70.2402 181.869ZM66.9441 181.869L65.2961 181.869L65.2961 181.135L66.9441 181.135L66.9441 181.869ZM63.648 181.869L62 181.869L62 181.135L63.648 181.135L63.648 181.869Z" fill="#D9D9D8"/>
<path d="M280 146.734L279.176 146.734L279.176 146L280 146L280 146.734ZM277.619 146.734L275.971 146.734L275.971 146L277.619 146L277.619 146.734ZM274.323 146.734L272.675 146.734L272.675 146L274.323 146L274.323 146.734ZM271.027 146.734L269.379 146.734L269.379 146L271.027 146L271.027 146.734ZM267.731 146.734L266.083 146.734L266.083 146L267.731 146L267.731 146.734ZM264.435 146.734L262.787 146.734L262.787 146L264.435 146L264.435 146.734ZM261.139 146.734L259.491 146.734L259.491 146L261.139 146L261.139 146.734ZM257.843 146.734L256.195 146.734L256.195 146L257.843 146L257.843 146.734ZM254.547 146.734L252.899 146.734L252.899 146L254.547 146L254.547 146.734ZM251.251 146.734L249.603 146.734L249.603 146L251.251 146L251.251 146.734ZM247.955 146.734L246.307 146.734L246.307 146L247.955 146L247.955 146.734ZM244.659 146.734L243.01 146.734L243.01 146L244.659 146L244.659 146.734ZM241.362 146.734L239.714 146.734L239.714 146L241.362 146L241.362 146.734ZM238.066 146.734L236.418 146.734L236.418 146L238.066 146L238.066 146.734ZM234.77 146.734L233.122 146.734L233.122 146L234.77 146L234.77 146.734ZM231.474 146.734L229.826 146.734L229.826 146L231.474 146L231.474 146.734ZM228.178 146.734L226.53 146.734L226.53 146L228.178 146L228.178 146.734ZM224.882 146.734L223.234 146.734L223.234 146L224.882 146L224.882 146.734ZM221.586 146.734L219.938 146.734L219.938 146L221.586 146L221.586 146.734ZM218.29 146.734L216.642 146.734L216.642 146L218.29 146L218.29 146.734ZM215.085 146.734L213.437 146.734L213.437 146L215.085 146L215.085 146.734ZM211.789 146.734L210.141 146.734L210.141 146L211.789 146L211.789 146.734ZM208.493 146.734L206.845 146.734L206.845 146L208.493 146L208.493 146.734ZM205.197 146.734L203.549 146.734L203.549 146L205.197 146L205.197 146.734ZM201.901 146.734L200.253 146.734L200.253 146L201.901 146L201.901 146.734ZM198.605 146.734L196.957 146.734L196.957 146L198.605 146L198.605 146.734ZM195.309 146.734L193.661 146.734L193.661 146L195.309 146L195.309 146.734ZM192.013 146.734L190.365 146.734L190.365 146L192.013 146L192.013 146.734ZM188.716 146.734L187.068 146.734L187.068 146L188.716 146L188.716 146.734ZM185.42 146.734L183.772 146.734L183.772 146L185.42 146L185.42 146.734ZM182.124 146.734L180.476 146.734L180.476 146L182.124 146L182.124 146.734ZM178.828 146.734L177.18 146.734L177.18 146L178.828 146L178.828 146.734ZM175.532 146.734L173.884 146.734L173.884 146L175.532 146L175.532 146.734ZM172.236 146.734L170.588 146.734L170.588 146L172.236 146L172.236 146.734ZM168.94 146.734L167.292 146.734L167.292 146L168.94 146L168.94 146.734ZM165.644 146.734L163.996 146.734L163.996 146L165.644 146L165.644 146.734ZM162.348 146.734L160.7 146.734L160.7 146L162.348 146L162.348 146.734ZM159.052 146.734L157.404 146.734L157.404 146L159.052 146L159.052 146.734ZM155.756 146.734L154.108 146.734L154.108 146L155.756 146L155.756 146.734ZM152.551 146.734L150.903 146.734L150.903 146L152.551 146L152.551 146.734ZM149.255 146.734L147.607 146.734L147.607 146L149.255 146L149.255 146.734ZM145.959 146.734L144.311 146.734L144.311 146L145.959 146L145.959 146.734ZM142.663 146.734L141.015 146.734L141.015 146L142.663 146L142.663 146.734ZM139.367 146.734L137.719 146.734L137.719 146L139.367 146L139.367 146.734ZM136.071 146.734L134.423 146.734L134.423 146L136.071 146L136.071 146.734ZM132.774 146.734L131.126 146.734L131.126 146L132.774 146L132.774 146.734ZM129.478 146.734L127.83 146.734L127.83 146L129.478 146L129.478 146.734ZM126.182 146.734L124.534 146.734L124.534 146L126.182 146L126.182 146.734ZM122.886 146.734L121.238 146.734L121.238 146L122.886 146L122.886 146.734ZM119.59 146.734L117.942 146.734L117.942 146L119.59 146L119.59 146.734ZM116.294 146.734L114.646 146.734L114.646 146L116.294 146L116.294 146.734ZM112.998 146.734L111.35 146.734L111.35 146L112.998 146L112.998 146.734ZM109.702 146.734L108.054 146.734L108.054 146L109.702 146L109.702 146.734ZM106.406 146.734L104.758 146.734L104.758 146L106.406 146L106.406 146.734ZM103.11 146.734L101.462 146.734L101.462 146L103.11 146L103.11 146.734ZM99.8135 146.734L98.1655 146.734L98.1655 146L99.8135 146L99.8135 146.734ZM96.5174 146.734L94.8694 146.734L94.8694 146L96.5174 146L96.5174 146.734ZM93.2213 146.734L91.5733 146.734L91.5733 146L93.2213 146L93.2213 146.734ZM90.0168 146.734L88.3688 146.734L88.3688 146L90.0168 146L90.0168 146.734ZM86.7207 146.734L85.0727 146.734L85.0727 146L86.7207 146L86.7207 146.734ZM83.4246 146.734L81.7766 146.734L81.7766 146L83.4246 146L83.4246 146.734ZM80.1285 146.734L78.4805 146.734L78.4805 146L80.1285 146L80.1285 146.734ZM76.8324 146.734L75.1844 146.734L75.1844 146L76.8324 146L76.8324 146.734ZM73.5363 146.734L71.8883 146.734L71.8883 146L73.5363 146L73.5363 146.734ZM70.2402 146.734L68.5922 146.734L68.5922 146L70.2402 146L70.2402 146.734ZM66.9441 146.734L65.2961 146.734L65.2961 146L66.9441 146L66.9441 146.734ZM63.648 146.734L62 146.734L62 146L63.648 146L63.648 146.734Z" fill="#D9D9D8"/>
<path d="M68.1344 165.815L62.4578 165.815L62.4578 287.001L68.1344 287.001L68.1344 165.815Z" fill="url(#paint1_linear_1_563)"/>
<path d="M68.1344 214.344L62.4578 214.344L62.4578 287.001L68.1344 287.001L68.1344 214.344Z" fill="url(#paint2_linear_1_563)"/>
<path d="M79.7623 187.649L74.0857 187.649L74.0857 287.001L79.7623 287.001L79.7623 187.649Z" fill="url(#paint3_linear_1_563)"/>
<path d="M79.7623 227.463L74.0857 227.463L74.0857 287.001L79.7623 287.001L79.7623 227.463Z" fill="url(#paint4_linear_1_563)"/>
<path d="M91.3902 226.362L85.7136 226.362L85.7136 286.909L91.3902 286.909L91.3902 226.362Z" fill="url(#paint5_linear_1_563)"/>
<path d="M91.3902 250.673L85.7136 250.673L85.7136 287.001L91.3902 287.001L91.3902 250.673Z" fill="url(#paint6_linear_1_563)"/>
<path d="M115.012 181.502L109.336 181.502L109.336 287.001L115.012 287.001L115.012 181.502Z" fill="url(#paint7_linear_1_563)"/>
<path d="M115.012 239.48L109.336 239.48L109.336 286.909L115.012 286.909L115.012 239.48Z" fill="url(#paint8_linear_1_563)"/>
<path d="M126.64 165.815L120.964 165.815L120.964 287.001L126.64 287.001L126.64 165.815Z" fill="url(#paint9_linear_1_563)"/>
<path d="M126.64 249.021L120.964 249.021L120.964 287.001L126.64 287.001L126.64 249.021Z" fill="url(#paint10_linear_1_563)"/>
<path d="M138.268 199.85L132.591 199.85L132.591 287.001L138.268 287.001L138.268 199.85Z" fill="url(#paint11_linear_1_563)"/>
<path d="M138.268 221.683L132.591 221.683L132.591 287L138.268 287L138.268 221.683Z" fill="url(#paint12_linear_1_563)"/>
<path d="M161.89 221.683L156.213 221.683L156.213 287L161.89 287L161.89 221.683Z" fill="url(#paint13_linear_1_563)"/>
<path d="M161.89 247.829L156.213 247.829L156.213 287.001L161.89 287.001L161.89 247.829Z" fill="url(#paint14_linear_1_563)"/>
<path d="M173.518 192.144L167.841 192.144L167.841 287.001L173.518 287.001L173.518 192.144Z" fill="url(#paint15_linear_1_563)"/>
<path d="M173.518 230.123L167.841 230.123L167.841 287.001L173.518 287.001L173.518 230.123Z" fill="url(#paint16_linear_1_563)"/>
<path d="M185.146 241.132L179.469 241.132L179.469 287.001L185.146 287.001L185.146 241.132Z" fill="url(#paint17_linear_1_563)"/>
<path d="M185.146 259.479L179.469 259.479L179.469 287.001L185.146 287.001L185.146 259.479Z" fill="url(#paint18_linear_1_563)"/>
<path d="M255.371 235.719L249.694 235.719L249.694 287.001L255.371 287.001L255.371 235.719Z" fill="url(#paint19_linear_1_563)"/>
<path d="M255.371 256.269L249.694 256.269L249.694 287.001L255.371 287.001L255.371 256.269Z" fill="url(#paint20_linear_1_563)"/>
<path d="M266.999 212.51L261.322 212.51L261.322 287.001L266.999 287.001L266.999 212.51Z" fill="url(#paint21_linear_1_563)"/>
<path d="M266.999 242.324L261.322 242.324L261.322 287.001L266.999 287.001L266.999 242.324Z" fill="url(#paint22_linear_1_563)"/>
<path d="M278.627 250.948L272.95 250.948L272.95 287.001L278.627 287.001L278.627 250.948Z" fill="url(#paint23_linear_1_563)"/>
<path d="M278.627 265.351L272.95 265.351L272.95 286.909L278.627 286.909L278.627 265.351Z" fill="url(#paint24_linear_1_563)"/>
<path d="M208.768 227.463L203.091 227.463L203.091 287.001L208.768 287.001L208.768 227.463Z" fill="url(#paint25_linear_1_563)"/>
<path d="M208.768 251.315L203.091 251.315L203.091 287.001L208.768 287.001L208.768 251.315Z" fill="url(#paint26_linear_1_563)"/>
<path d="M220.396 214.344L214.719 214.344L214.719 287.001L220.396 287.001L220.396 214.344Z" fill="url(#paint27_linear_1_563)"/>
<path d="M220.396 271.405L214.719 271.405L214.719 286.909L220.396 286.909L220.396 271.405Z" fill="url(#paint28_linear_1_563)"/>
<path d="M232.024 243.425L226.347 243.425L226.347 287.001L232.024 287.001L232.024 243.425Z" fill="url(#paint29_linear_1_563)"/>
<path d="M232.024 260.855L226.347 260.855L226.347 286.909L232.024 286.909L232.024 260.855Z" fill="url(#paint30_linear_1_563)"/>
<path d="M65.3876 296.45L65.3876 296.908L62.6409 296.908C62.6409 296.817 62.6409 296.633 62.7324 296.541C62.824 296.358 62.9155 296.174 63.0987 295.991C63.2818 295.807 63.4649 295.624 63.7396 295.349C64.1974 294.982 64.472 294.707 64.6551 294.431C64.8383 294.248 64.9298 293.973 64.9298 293.789C64.9298 293.606 64.8383 293.422 64.7467 293.239C64.5636 293.055 64.3805 293.055 64.1974 293.055C63.9227 293.055 63.7396 293.147 63.648 293.239C63.4649 293.422 63.4649 293.606 63.4649 293.881L62.9155 293.789C62.9155 293.422 63.0987 293.147 63.2818 292.872C63.5565 292.688 63.8311 292.597 64.1974 292.597C64.5636 292.597 64.9298 292.688 65.1129 292.964C65.3876 293.147 65.4792 293.422 65.4792 293.789C65.4792 293.973 65.4792 294.156 65.3876 294.248C65.2961 294.431 65.2045 294.615 65.0214 294.707C64.8383 294.89 64.5636 295.165 64.1974 295.441C63.9227 295.716 63.7396 295.899 63.648 295.991C63.5565 296.083 63.4649 296.174 63.4649 296.266L65.3876 296.266L65.3876 296.45Z" fill="#252138"/>
<path d="M66.2117 294.89C66.2117 294.431 66.3032 293.973 66.3948 293.698C66.4863 293.422 66.6695 293.147 66.8526 292.964C67.0357 292.78 67.3104 292.688 67.585 292.688C67.7682 292.688 68.0428 292.688 68.1344 292.78C68.3175 292.872 68.4091 292.964 68.5922 293.147C68.6837 293.331 68.7753 293.514 68.8669 293.789C68.9584 294.065 68.9584 294.34 68.9584 294.798C68.9584 295.257 68.8669 295.716 68.7753 295.991C68.6837 296.266 68.5006 296.541 68.3175 296.725C68.1344 296.908 67.8597 297 67.585 297C67.2188 297 66.8526 296.817 66.6695 296.541C66.3032 296.175 66.2117 295.624 66.2117 294.89ZM66.761 294.89C66.761 295.532 66.8526 295.991 67.0357 296.266C67.2188 296.45 67.4019 296.633 67.585 296.633C67.8597 296.633 68.0428 296.541 68.1344 296.266C68.3175 296.083 68.4091 295.624 68.4091 294.89C68.4091 294.248 68.3175 293.789 68.1344 293.514C67.9513 293.331 67.7682 293.147 67.585 293.147C67.3104 293.147 67.1273 293.239 67.0357 293.422C66.8526 293.698 66.761 294.156 66.761 294.89Z" fill="#252138"/>
<path d="M93.7706 295.807L94.32 295.716C94.4115 295.991 94.5031 296.174 94.5947 296.358C94.7778 296.449 94.8693 296.541 95.144 296.541C95.4187 296.541 95.6018 296.449 95.7849 296.266C95.968 296.083 96.0596 295.899 96.0596 295.624C96.0596 295.349 95.968 295.165 95.8765 295.073C95.6934 294.89 95.5102 294.89 95.3271 294.89C95.2356 294.89 95.144 294.89 94.9609 294.982L95.0524 294.523L95.144 294.523C95.3271 294.523 95.5102 294.431 95.6933 294.34C95.8765 294.248 95.968 294.064 95.968 293.789C95.968 293.606 95.8765 293.422 95.7849 293.33C95.6934 293.239 95.5102 293.147 95.3271 293.147C95.144 293.147 94.9609 293.239 94.8693 293.33C94.7778 293.422 94.6862 293.606 94.5947 293.881L94.0453 293.789C94.1369 293.422 94.2284 293.147 94.5031 292.963C94.6862 292.78 94.9609 292.688 95.3271 292.688C95.5102 292.688 95.7849 292.78 95.968 292.872C96.1511 292.963 96.3343 293.055 96.4258 293.239C96.5174 293.422 96.6089 293.606 96.6089 293.789C96.6089 293.973 96.5174 294.156 96.4258 294.248C96.3343 294.431 96.1511 294.523 95.968 294.615C96.2427 294.706 96.4258 294.798 96.5174 294.982C96.6089 295.165 96.7005 295.349 96.7005 295.624C96.7005 295.991 96.6089 296.266 96.3343 296.541C96.0596 296.816 95.7849 296.908 95.3271 296.908C94.9609 296.908 94.6862 296.816 94.4115 296.541C93.9537 296.449 93.8622 296.174 93.7706 295.807Z" fill="#252138"/>
<path d="M97.3414 294.89C97.3414 294.431 97.433 293.973 97.5245 293.697C97.6161 293.422 97.7992 293.147 97.9823 292.963C98.1655 292.78 98.4401 292.688 98.7148 292.688C98.8979 292.688 99.1726 292.688 99.2642 292.78C99.4473 292.872 99.5388 292.963 99.7219 293.147C99.8135 293.33 99.9051 293.514 99.9966 293.789C100.088 294.064 100.088 294.34 100.088 294.798C100.088 295.257 99.9966 295.716 99.9051 295.991C99.8135 296.266 99.6304 296.541 99.4473 296.725C99.2642 296.908 98.9895 297 98.7148 297C98.3486 297 97.9823 296.816 97.7992 296.541C97.433 296.174 97.3414 295.624 97.3414 294.89ZM97.7992 294.89C97.7992 295.532 97.8908 295.991 98.0739 296.266C98.257 296.449 98.4401 296.633 98.6232 296.633C98.8979 296.633 99.081 296.541 99.1726 296.266C99.3557 296.083 99.4473 295.624 99.4473 294.89C99.4473 294.248 99.3557 293.789 99.1726 293.514C98.9895 293.33 98.8064 293.147 98.6232 293.147C98.3486 293.147 98.1655 293.239 98.0739 293.422C97.8908 293.697 97.7992 294.156 97.7992 294.89Z" fill="#252138"/>
<path d="M126.457 296.908L126.457 295.899L124.626 295.899L124.626 295.44L126.548 292.78L127.006 292.78L127.006 295.44L127.556 295.44L127.556 295.899L127.006 295.899L127.006 296.908L126.457 296.908ZM126.457 295.44L126.457 293.606L125.175 295.44L126.457 295.44Z" fill="#252138"/>
<path d="M128.38 294.89C128.38 294.431 128.471 293.973 128.563 293.697C128.654 293.422 128.837 293.147 129.021 292.963C129.204 292.78 129.478 292.688 129.753 292.688C129.936 292.688 130.211 292.688 130.302 292.78C130.485 292.872 130.577 292.963 130.76 293.147C130.852 293.33 130.943 293.514 131.035 293.789C131.126 294.064 131.126 294.34 131.126 294.798C131.126 295.257 131.035 295.716 130.943 295.991C130.852 296.266 130.669 296.541 130.485 296.725C130.302 296.908 130.028 297 129.753 297C129.387 297 129.021 296.816 128.837 296.541C128.471 296.174 128.38 295.624 128.38 294.89ZM128.837 294.89C128.837 295.532 128.929 295.991 129.112 296.266C129.295 296.449 129.478 296.633 129.661 296.633C129.936 296.633 130.119 296.541 130.211 296.266C130.394 296.083 130.485 295.624 130.485 294.89C130.485 294.248 130.394 293.789 130.211 293.514C130.028 293.33 129.845 293.147 129.661 293.147C129.387 293.147 129.204 293.239 129.112 293.422C128.929 293.697 128.837 294.156 128.837 294.89Z" fill="#252138"/>
<path d="M155.939 295.807L156.488 295.807C156.488 296.083 156.58 296.266 156.763 296.358C156.946 296.45 157.037 296.541 157.312 296.541C157.587 296.541 157.77 296.45 157.953 296.266C158.136 296.083 158.228 295.807 158.228 295.532C158.228 295.257 158.136 294.982 157.953 294.89C157.77 294.707 157.587 294.615 157.312 294.615C157.129 294.615 157.037 294.615 156.854 294.707C156.763 294.798 156.58 294.89 156.58 294.982L156.122 294.89L156.488 292.78L158.502 292.78L158.502 293.239L156.854 293.239L156.671 294.34C156.946 294.156 157.221 294.064 157.495 294.064C157.861 294.064 158.136 294.156 158.411 294.431C158.685 294.707 158.777 294.982 158.777 295.44C158.777 295.807 158.685 296.174 158.411 296.45C158.136 296.816 157.77 296.908 157.312 296.908C156.946 296.908 156.671 296.816 156.397 296.633C156.122 296.45 155.939 296.174 155.939 295.807Z" fill="#252138"/>
<path d="M159.418 294.89C159.418 294.431 159.51 293.973 159.601 293.697C159.693 293.422 159.876 293.147 160.059 292.963C160.242 292.78 160.517 292.688 160.791 292.688C160.974 292.688 161.249 292.688 161.341 292.78C161.524 292.872 161.615 292.963 161.798 293.147C161.89 293.33 161.982 293.514 162.073 293.789C162.165 294.064 162.165 294.34 162.165 294.798C162.165 295.257 162.073 295.716 161.982 295.991C161.89 296.266 161.707 296.541 161.524 296.725C161.341 296.908 161.066 297 160.791 297C160.425 297 160.059 296.816 159.876 296.541C159.601 296.174 159.418 295.624 159.418 294.89ZM159.967 294.89C159.967 295.532 160.059 295.991 160.242 296.266C160.425 296.449 160.608 296.633 160.791 296.633C161.066 296.633 161.249 296.541 161.341 296.266C161.524 296.083 161.615 295.624 161.615 294.89C161.615 294.248 161.524 293.789 161.341 293.514C161.158 293.33 160.974 293.147 160.791 293.147C160.517 293.147 160.334 293.239 160.242 293.422C160.059 293.697 159.967 294.156 159.967 294.89Z" fill="#252138"/>
<path d="M189.632 293.789L189.083 293.789C189.083 293.606 188.991 293.422 188.9 293.33C188.808 293.147 188.625 293.147 188.35 293.147C188.167 293.147 188.076 293.147 187.893 293.239C187.709 293.33 187.618 293.514 187.526 293.789C187.435 293.973 187.343 294.34 187.343 294.707C187.435 294.523 187.618 294.34 187.801 294.248C187.984 294.156 188.167 294.156 188.35 294.156C188.717 294.156 188.991 294.248 189.174 294.523C189.449 294.798 189.541 295.073 189.541 295.532C189.541 295.807 189.449 295.991 189.357 296.266C189.266 296.45 189.083 296.633 188.9 296.816C188.717 296.908 188.442 297 188.259 297C187.801 297 187.526 296.816 187.252 296.541C186.977 296.266 186.885 295.716 186.885 294.982C186.885 294.156 187.068 293.606 187.343 293.239C187.618 292.964 187.984 292.78 188.35 292.78C188.717 292.78 188.9 292.872 189.174 293.055C189.449 293.239 189.541 293.422 189.632 293.789ZM187.526 295.532C187.526 295.716 187.526 295.899 187.618 295.991C187.709 296.174 187.801 296.266 187.893 296.358C187.984 296.45 188.167 296.45 188.35 296.45C188.533 296.45 188.717 296.358 188.9 296.174C189.083 295.991 189.174 295.807 189.174 295.44C189.174 295.165 189.083 294.89 188.991 294.798C188.808 294.615 188.625 294.523 188.442 294.523C188.167 294.523 187.984 294.615 187.893 294.798C187.618 295.073 187.526 295.257 187.526 295.532Z" fill="#252138"/>
<path d="M190.456 294.89C190.456 294.431 190.548 293.973 190.639 293.697C190.731 293.422 190.914 293.147 191.097 292.963C191.28 292.78 191.555 292.688 191.83 292.688C192.013 292.688 192.287 292.688 192.379 292.78C192.562 292.872 192.654 292.963 192.837 293.147C192.928 293.33 193.02 293.514 193.111 293.789C193.203 294.064 193.203 294.34 193.203 294.798C193.203 295.257 193.111 295.716 193.02 295.991C192.928 296.266 192.745 296.541 192.562 296.725C192.379 296.908 192.104 297 191.83 297C191.463 297 191.097 296.816 190.914 296.541C190.639 296.174 190.456 295.624 190.456 294.89ZM191.006 294.89C191.006 295.532 191.097 295.991 191.28 296.266C191.463 296.449 191.646 296.633 191.83 296.633C192.104 296.633 192.287 296.541 192.379 296.266C192.562 296.083 192.654 295.624 192.654 294.89C192.654 294.248 192.562 293.789 192.379 293.514C192.196 293.33 192.013 293.147 191.83 293.147C191.555 293.147 191.372 293.239 191.28 293.422C191.097 293.697 191.006 294.156 191.006 294.89Z" fill="#252138"/>
<path d="M218.107 293.33L218.107 292.78L220.762 292.78L220.762 293.147C220.487 293.422 220.213 293.789 219.938 294.248C219.663 294.707 219.48 295.165 219.297 295.716C219.205 296.083 219.114 296.45 219.114 296.816L218.564 296.816C218.564 296.45 218.656 296.083 218.748 295.624C218.839 295.165 219.022 294.707 219.297 294.248C219.48 293.789 219.755 293.422 220.029 293.147L218.107 293.147L218.107 293.33Z" fill="#252138"/>
<path d="M221.494 294.89C221.494 294.431 221.586 293.973 221.677 293.697C221.769 293.422 221.952 293.147 222.135 292.963C222.318 292.78 222.593 292.688 222.868 292.688C223.051 292.688 223.326 292.688 223.417 292.78C223.6 292.872 223.692 292.963 223.875 293.147C223.966 293.33 224.058 293.514 224.15 293.789C224.241 294.064 224.241 294.34 224.241 294.798C224.241 295.257 224.15 295.716 224.058 295.991C223.966 296.266 223.783 296.541 223.6 296.725C223.417 296.908 223.142 297 222.868 297C222.502 297 222.135 296.816 221.952 296.541C221.586 296.174 221.494 295.624 221.494 294.89ZM221.952 294.89C221.952 295.532 222.044 295.991 222.227 296.266C222.41 296.449 222.593 296.633 222.776 296.633C223.051 296.633 223.234 296.541 223.326 296.266C223.509 296.083 223.6 295.624 223.6 294.89C223.6 294.248 223.509 293.789 223.326 293.514C223.142 293.33 222.959 293.147 222.776 293.147C222.502 293.147 222.318 293.239 222.227 293.422C222.044 293.697 221.952 294.156 221.952 294.89Z" fill="#252138"/>
<path d="M249.877 294.615C249.694 294.523 249.511 294.431 249.42 294.248C249.328 294.064 249.236 293.973 249.236 293.697C249.236 293.422 249.328 293.147 249.603 292.963C249.786 292.78 250.06 292.688 250.427 292.688C250.793 292.688 251.068 292.78 251.251 292.963C251.434 293.147 251.617 293.422 251.617 293.697C251.617 293.881 251.525 294.064 251.434 294.156C251.342 294.34 251.159 294.431 250.976 294.523C251.251 294.615 251.434 294.706 251.525 294.89C251.617 295.073 251.709 295.257 251.709 295.532C251.709 295.899 251.617 296.174 251.342 296.449C251.068 296.725 250.793 296.816 250.335 296.816C249.877 296.816 249.603 296.725 249.328 296.449C249.053 296.174 248.962 295.899 248.962 295.532C248.962 295.257 249.053 295.073 249.145 294.89C249.42 294.89 249.603 294.706 249.877 294.615ZM249.603 295.716C249.603 295.899 249.603 295.991 249.694 296.174C249.786 296.266 249.877 296.449 249.969 296.449C250.06 296.541 250.244 296.541 250.427 296.541C250.701 296.541 250.885 296.449 251.068 296.266C251.251 296.083 251.342 295.899 251.342 295.716C251.342 295.44 251.251 295.257 251.068 295.073C250.885 294.89 250.701 294.798 250.427 294.798C250.152 294.798 249.969 294.89 249.877 295.073C249.694 295.257 249.603 295.44 249.603 295.716ZM249.786 293.789C249.786 293.973 249.877 294.156 249.969 294.248C250.06 294.34 250.244 294.431 250.427 294.431C250.61 294.431 250.793 294.34 250.885 294.248C250.976 294.156 251.068 293.973 251.068 293.789C251.068 293.606 250.976 293.422 250.885 293.33C250.793 293.239 250.61 293.147 250.427 293.147C250.244 293.147 250.06 293.239 249.969 293.33C249.786 293.514 249.786 293.606 249.786 293.789Z" fill="#252138"/>
<path d="M252.624 294.89C252.624 294.431 252.716 293.973 252.807 293.697C252.899 293.422 253.082 293.147 253.265 292.963C253.448 292.78 253.723 292.688 253.998 292.688C254.181 292.688 254.455 292.688 254.547 292.78C254.73 292.872 254.822 292.963 255.005 293.147C255.096 293.33 255.188 293.514 255.279 293.789C255.371 294.064 255.371 294.34 255.371 294.798C255.371 295.257 255.279 295.716 255.188 295.991C255.096 296.266 254.913 296.541 254.73 296.725C254.547 296.908 254.272 297 253.998 297C253.631 297 253.265 296.816 253.082 296.541C252.716 296.174 252.624 295.624 252.624 294.89ZM253.174 294.89C253.174 295.532 253.265 295.991 253.448 296.266C253.631 296.449 253.814 296.633 253.998 296.633C254.272 296.633 254.455 296.541 254.547 296.266C254.638 295.991 254.822 295.624 254.822 294.89C254.822 294.248 254.73 293.789 254.547 293.514C254.364 293.33 254.181 293.147 253.998 293.147C253.723 293.147 253.54 293.239 253.448 293.422C253.265 293.697 253.174 294.156 253.174 294.89Z" fill="#252138"/>
</g>
<defs>
<filter id="filter0_bdi_1_563" x="-4.87256" y="-10.187" width="380.176" height="419.48" filterUnits="userSpaceOnUse" color-interpolation-filters="sRGB">
<feFlood flood-opacity="0" result="BackgroundImageFix"/>
<feGaussianBlur in="BackgroundImageFix" stdDeviation="10.7192"/>
<feComposite in2="SourceAlpha" operator="in" result="effect1_backgroundBlur_1_563"/>
<feColorMatrix in="SourceAlpha" type="matrix" values="0 0 0 0 0 0 0 0 0 0 0 0 0 0 0 0 0 0 127 0" result="hardAlpha"/>
<feOffset dx="19.7234" dy="24.8686"/>
<feGaussianBlur stdDeviation="18.0083"/>
<feComposite in2="hardAlpha" operator="out"/>
<feColorMatrix type="matrix" values="0 0 0 0 0.633333 0 0 0 0 0.633333 0 0 0 0 0.633333 0 0 0 0.25 0"/>
<feBlend mode="multiply" in2="effect1_backgroundBlur_1_563" result="effect2_dropShadow_1_563"/>
<feBlend mode="normal" in="SourceGraphic" in2="effect2_dropShadow_1_563" result="shape"/>
<feColorMatrix in="SourceAlpha" type="matrix" values="0 0 0 0 0 0 0 0 0 0 0 0 0 0 0 0 0 0 127 0" result="hardAlpha"/>
<feOffset dx="-2.57262" dy="2.57262"/>
<feComposite in2="hardAlpha" operator="arithmetic" k2="-1" k3="1"/>
<feColorMatrix type="matrix" values="0 0 0 0 1 0 0 0 0 1 0 0 0 0 1 0 0 0 1 0"/>
<feBlend mode="normal" in2="shape" result="effect3_innerShadow_1_563"/>
</filter>
<filter id="filter1_d_1_563" x="39.2035" y="65.5725" width="264.103" height="264.103" filterUnits="userSpaceOnUse" color-interpolation-filters="sRGB">
<feFlood flood-opacity="0" result="BackgroundImageFix"/>
<feColorMatrix in="SourceAlpha" type="matrix" values="0 0 0 0 0 0 0 0 0 0 0 0 0 0 0 0 0 0 127 0" result="hardAlpha"/>
<feOffset dy="2.57262"/>
<feGaussianBlur stdDeviation="1.28631"/>
<feComposite in2="hardAlpha" operator="out"/>
<feColorMatrix type="matrix" values="0 0 0 0 0.7875 0 0 0 0 0.7875 0 0 0 0 0.7875 0 0 0 0.25 0"/>
<feBlend mode="normal" in2="BackgroundImageFix" result="effect1_dropShadow_1_563"/>
<feBlend mode="normal" in="SourceGraphic" in2="effect1_dropShadow_1_563" result="shape"/>
</filter>
<linearGradient id="paint0_linear_1_563" x1="291.628" y1="134.99" x2="29.2762" y2="108.215" gradientUnits="userSpaceOnUse">
<stop stop-color="#F4F4F4"/>
<stop offset="0.421875" stop-color="#F4F4F4"/>
<stop offset="1" stop-color="white"/>
</linearGradient>
<linearGradient id="paint1_linear_1_563" x1="65.2929" y1="286.983" x2="65.2929" y2="165.822" gradientUnits="userSpaceOnUse">
<stop stop-color="#FFCE06"/>
<stop offset="0.2535" stop-color="#FECA0E"/>
<stop offset="0.561" stop-color="#FDC01E"/>
<stop offset="0.8954" stop-color="#FBAE2E"/>
<stop offset="1" stop-color="#FAA832"/>
</linearGradient>
<linearGradient id="paint2_linear_1_563" x1="65.2929" y1="286.983" x2="65.2929" y2="214.358" gradientUnits="userSpaceOnUse">
<stop stop-color="#59A3D9"/>
<stop offset="1" stop-color="#90BEE6"/>
</linearGradient>
<linearGradient id="paint3_linear_1_563" x1="76.939" y1="286.983" x2="76.939" y2="187.627" gradientUnits="userSpaceOnUse">
<stop stop-color="#FFCE06"/>
<stop offset="0.2535" stop-color="#FECA0E"/>
<stop offset="0.561" stop-color="#FDC01E"/>
<stop offset="0.8954" stop-color="#FBAE2E"/>
<stop offset="1" stop-color="#FAA832"/>
</linearGradient>
<linearGradient id="paint4_linear_1_563" x1="76.939" y1="286.983" x2="76.939" y2="227.428" gradientUnits="userSpaceOnUse">
<stop stop-color="#59A3D9"/>
<stop offset="1" stop-color="#90BEE6"/>
</linearGradient>
<linearGradient id="paint5_linear_1_563" x1="88.586" y1="286.983" x2="88.586" y2="226.402" gradientUnits="userSpaceOnUse">
<stop stop-color="#FFCE06"/>
<stop offset="0.2535" stop-color="#FECA0E"/>
<stop offset="0.561" stop-color="#FDC01E"/>
<stop offset="0.8954" stop-color="#FBAE2E"/>
<stop offset="1" stop-color="#FAA832"/>
</linearGradient>
<linearGradient id="paint6_linear_1_563" x1="88.586" y1="286.983" x2="88.586" y2="250.671" gradientUnits="userSpaceOnUse">
<stop stop-color="#59A3D9"/>
<stop offset="1" stop-color="#90BEE6"/>
</linearGradient>
<linearGradient id="paint7_linear_1_563" x1="112.161" y1="286.983" x2="112.161" y2="181.513" gradientUnits="userSpaceOnUse">
<stop stop-color="#FFCE06"/>
<stop offset="0.2535" stop-color="#FECA0E"/>
<stop offset="0.561" stop-color="#FDC01E"/>
<stop offset="0.8954" stop-color="#FBAE2E"/>
<stop offset="1" stop-color="#FAA832"/>
</linearGradient>
<linearGradient id="paint8_linear_1_563" x1="112.161" y1="286.983" x2="112.161" y2="239.514" gradientUnits="userSpaceOnUse">
<stop stop-color="#59A3D9"/>
<stop offset="1" stop-color="#90BEE6"/>
</linearGradient>
<linearGradient id="paint9_linear_1_563" x1="123.807" y1="286.983" x2="123.807" y2="165.822" gradientUnits="userSpaceOnUse">
<stop stop-color="#FFCE06"/>
<stop offset="0.2535" stop-color="#FECA0E"/>
<stop offset="0.561" stop-color="#FDC01E"/>
<stop offset="0.8954" stop-color="#FBAE2E"/>
<stop offset="1" stop-color="#FAA832"/>
</linearGradient>
<linearGradient id="paint10_linear_1_563" x1="123.807" y1="286.983" x2="123.807" y2="249.041" gradientUnits="userSpaceOnUse">
<stop stop-color="#59A3D9"/>
<stop offset="1" stop-color="#90BEE6"/>
</linearGradient>
<linearGradient id="paint11_linear_1_563" x1="135.454" y1="286.983" x2="135.454" y2="199.83" gradientUnits="userSpaceOnUse">
<stop stop-color="#FFCE06"/>
<stop offset="0.2535" stop-color="#FECA0E"/>
<stop offset="0.561" stop-color="#FDC01E"/>
<stop offset="0.8954" stop-color="#FBAE2E"/>
<stop offset="1" stop-color="#FAA832"/>
</linearGradient>
<linearGradient id="paint12_linear_1_563" x1="135.454" y1="286.983" x2="135.454" y2="221.656" gradientUnits="userSpaceOnUse">
<stop stop-color="#59A3D9"/>
<stop offset="1" stop-color="#90BEE6"/>
</linearGradient>
<linearGradient id="paint13_linear_1_563" x1="159.03" y1="286.983" x2="159.03" y2="221.656" gradientUnits="userSpaceOnUse">
<stop stop-color="#FFCE06"/>
<stop offset="0.2535" stop-color="#FECA0E"/>
<stop offset="0.561" stop-color="#FDC01E"/>
<stop offset="0.8954" stop-color="#FBAE2E"/>
<stop offset="1" stop-color="#FAA832"/>
</linearGradient>
<linearGradient id="paint14_linear_1_563" x1="159.03" y1="286.983" x2="159.03" y2="247.826" gradientUnits="userSpaceOnUse">
<stop stop-color="#59A3D9"/>
<stop offset="1" stop-color="#90BEE6"/>
</linearGradient>
<linearGradient id="paint15_linear_1_563" x1="170.676" y1="286.983" x2="170.676" y2="192.161" gradientUnits="userSpaceOnUse">
<stop stop-color="#FFCE06"/>
<stop offset="0.2535" stop-color="#FECA0E"/>
<stop offset="0.561" stop-color="#FDC01E"/>
<stop offset="0.8954" stop-color="#FBAE2E"/>
<stop offset="1" stop-color="#FAA832"/>
</linearGradient>
<linearGradient id="paint16_linear_1_563" x1="170.676" y1="286.983" x2="170.676" y2="230.146" gradientUnits="userSpaceOnUse">
<stop stop-color="#59A3D9"/>
<stop offset="1" stop-color="#90BEE6"/>
</linearGradient>
<linearGradient id="paint17_linear_1_563" x1="182.323" y1="286.983" x2="182.323" y2="241.089" gradientUnits="userSpaceOnUse">
<stop stop-color="#FFCE06"/>
<stop offset="0.2535" stop-color="#FECA0E"/>
<stop offset="0.561" stop-color="#FDC01E"/>
<stop offset="0.8954" stop-color="#FBAE2E"/>
<stop offset="1" stop-color="#FAA832"/>
</linearGradient>
<linearGradient id="paint18_linear_1_563" x1="182.323" y1="286.983" x2="182.323" y2="259.474" gradientUnits="userSpaceOnUse">
<stop stop-color="#59A3D9"/>
<stop offset="1" stop-color="#90BEE6"/>
</linearGradient>
<linearGradient id="paint19_linear_1_563" x1="252.535" y1="286.983" x2="252.535" y2="235.684" gradientUnits="userSpaceOnUse">
<stop stop-color="#FFCE06"/>
<stop offset="0.2535" stop-color="#FECA0E"/>
<stop offset="0.561" stop-color="#FDC01E"/>
<stop offset="0.8954" stop-color="#FBAE2E"/>
<stop offset="1" stop-color="#FAA832"/>
</linearGradient>
<linearGradient id="paint20_linear_1_563" x1="252.535" y1="286.983" x2="252.535" y2="256.234" gradientUnits="userSpaceOnUse">
<stop stop-color="#59A3D9"/>
<stop offset="1" stop-color="#90BEE6"/>
</linearGradient>
<linearGradient id="paint21_linear_1_563" x1="264.181" y1="286.983" x2="264.181" y2="212.521" gradientUnits="userSpaceOnUse">
<stop stop-color="#FFCE06"/>
<stop offset="0.2535" stop-color="#FECA0E"/>
<stop offset="0.561" stop-color="#FDC01E"/>
<stop offset="0.8954" stop-color="#FBAE2E"/>
<stop offset="1" stop-color="#FAA832"/>
</linearGradient>
<linearGradient id="paint22_linear_1_563" x1="264.181" y1="286.983" x2="264.181" y2="242.35" gradientUnits="userSpaceOnUse">
<stop stop-color="#59A3D9"/>
<stop offset="1" stop-color="#90BEE6"/>
</linearGradient>
<linearGradient id="paint23_linear_1_563" x1="275.828" y1="286.983" x2="275.828" y2="250.943" gradientUnits="userSpaceOnUse">
<stop stop-color="#FFCE06"/>
<stop offset="0.2535" stop-color="#FECA0E"/>
<stop offset="0.561" stop-color="#FDC01E"/>
<stop offset="0.8954" stop-color="#FBAE2E"/>
<stop offset="1" stop-color="#FAA832"/>
</linearGradient>
<linearGradient id="paint24_linear_1_563" x1="275.828" y1="286.983" x2="275.828" y2="265.38" gradientUnits="userSpaceOnUse">
<stop stop-color="#59A3D9"/>
<stop offset="1" stop-color="#90BEE6"/>
</linearGradient>
<linearGradient id="paint25_linear_1_563" x1="205.898" y1="286.983" x2="205.898" y2="227.428" gradientUnits="userSpaceOnUse">
<stop stop-color="#FFCE06"/>
<stop offset="0.2535" stop-color="#FECA0E"/>
<stop offset="0.561" stop-color="#FDC01E"/>
<stop offset="0.8954" stop-color="#FBAE2E"/>
<stop offset="1" stop-color="#FAA832"/>
</linearGradient>
<linearGradient id="paint26_linear_1_563" x1="205.898" y1="286.983" x2="205.898" y2="251.285" gradientUnits="userSpaceOnUse">
<stop stop-color="#59A3D9"/>
<stop offset="1" stop-color="#90BEE6"/>
</linearGradient>
<linearGradient id="paint27_linear_1_563" x1="217.544" y1="286.983" x2="217.544" y2="214.358" gradientUnits="userSpaceOnUse">
<stop stop-color="#FFCE06"/>
<stop offset="0.2535" stop-color="#FECA0E"/>
<stop offset="0.561" stop-color="#FDC01E"/>
<stop offset="0.8954" stop-color="#FBAE2E"/>
<stop offset="1" stop-color="#FAA832"/>
</linearGradient>
<linearGradient id="paint28_linear_1_563" x1="217.544" y1="286.983" x2="217.544" y2="271.437" gradientUnits="userSpaceOnUse">
<stop stop-color="#59A3D9"/>
<stop offset="1" stop-color="#90BEE6"/>
</linearGradient>
<linearGradient id="paint29_linear_1_563" x1="229.191" y1="286.983" x2="229.191" y2="243.452" gradientUnits="userSpaceOnUse">
<stop stop-color="#FFCE06"/>
<stop offset="0.2535" stop-color="#FECA0E"/>
<stop offset="0.561" stop-color="#FDC01E"/>
<stop offset="0.8954" stop-color="#FBAE2E"/>
<stop offset="1" stop-color="#FAA832"/>
</linearGradient>
<linearGradient id="paint30_linear_1_563" x1="229.191" y1="286.983" x2="229.191" y2="260.89" gradientUnits="userSpaceOnUse">
<stop stop-color="#59A3D9"/>
<stop offset="1" stop-color="#90BEE6"/>
</linearGradient>
<clipPath id="clip0_1_563">
<rect width="218" height="151" fill="white" transform="translate(62 146)"/>
</clipPath>
</defs>
</svg>
