<svg width="232" height="229" viewBox="0 0 232 229" fill="none" xmlns="http://www.w3.org/2000/svg">
    <g id="cirle-data">
        <g id="4173037_2185110 1" clip-path="url(#clip0_2_47)">
            <g id="Group">
                <g id="Vector" style="mix-blend-mode:multiply" opacity="0.83">
                    <path
                        d="M181.42 69.9864C164.81 52.849 141.717 42.1594 116.004 41.8127C90.2919 41.4661 66.8694 51.6086 49.7563 68.2427C32.6432 84.8767 21.9682 108.132 21.6219 133.881C21.2755 159.631 31.4033 183.086 48.0134 200.224C64.6235 217.361 87.8455 228.051 113.558 228.398C139.27 228.745 162.693 218.602 179.806 201.968C196.919 185.334 207.594 162.079 207.94 136.329C208.158 110.58 198.159 87.1243 181.42 69.9864Z"
                        fill="url(#paint0_radial_2_47)" />
                </g>
                <g id="lt-btm">
                    <path id="Vector_2"
                        d="M10.9374 122.07C10.5871 148.983 21.2277 173.606 38.6109 191.393C55.9936 209.309 80.2476 220.52 107.123 220.871L108.361 123.308L10.9374 122.07Z"
                        fill="#FCC103" />
                    <path id="Vector_3"
                        d="M49.1831 122.588C48.9982 138.892 55.408 153.795 65.9663 164.7C76.5246 175.606 91.2319 182.385 107.512 182.57L108.232 123.308L49.1831 122.588Z"
                        fill="#F97F06" />
                </g>
                <g id="lt-top">
                    <path id="Vector_4"
                        d="M33.5493 46.5777C13.9728 65.6619 1.60611 92.4053 1.24646 122.036L108.36 123.438L109.76 16.1704C80.172 15.6811 53.2555 27.3645 33.5493 46.5777Z"
                        fill="#35BAE9" />
                    <path id="Vector_5"
                        d="M67.1567 80.9832C56.2666 91.5568 49.4972 106.285 49.1831 122.588L108.361 123.308L109.08 64.0457C92.7992 63.9901 77.9176 70.4093 67.1567 80.9832Z"
                        fill="#1891B2" />
                </g>
                <g id="rt-top">
                    <path id="Vector_6"
                        d="M196.39 37.5584C174.501 14.9681 143.925 0.888577 109.944 0.384305L108.36 123.437L231.238 125.022C231.612 90.9911 218.279 60.1486 196.39 37.5584Z"
                        fill="#42DABF" />
                    <path id="Vector_7"
                        d="M150.755 82.0452C140.196 71.1396 125.489 64.3606 109.209 64.1756L108.489 123.438L167.667 124.158C167.723 107.854 161.313 92.9508 150.755 82.0452Z"
                        fill="#1AA086" />
                </g>
                <path id="Vector_8" opacity="0.08"
                    d="M95.4151 16.8978L94.1473 123.26L108.49 123.438L109.89 16.1708C104.851 16.0242 100.198 16.2671 95.4151 16.8978Z"
                    fill="url(#paint1_linear_2_47)" />
                <path id="Vector_9" opacity="0.08"
                    d="M108.199 132.883L108.361 123.308L10.9374 122.07C10.9264 125.304 11.045 128.41 11.2924 131.646L108.199 132.883Z"
                    fill="url(#paint2_linear_2_47)" />
                <g id="rt-btm">
                    <path id="Vector_10"
                        d="M108.36 123.437L107.285 211.166C131.447 211.508 153.446 202.007 169.522 186.276C185.599 170.544 195.622 148.839 195.964 124.513L108.36 123.437Z"
                        fill="#F9327A" />
                    <path id="Vector_11"
                        d="M108.36 123.438L107.641 182.7C123.921 182.885 138.803 176.466 149.693 165.892C160.583 155.319 167.353 140.59 167.537 124.287L108.36 123.438Z"
                        fill="#CE2469" />
                </g>
                <path id="Vector_12" opacity="0.08"
                    d="M125.157 123.624L108.36 123.437L107.285 211.166C113.1 211.186 118.658 210.688 124.088 209.8L125.157 123.624Z"
                    fill="url(#paint3_linear_2_47)" />
                <path id="Vector_13" opacity="0.08"
                    d="M108.544 107.522L108.36 123.438L231.238 125.022C231.256 119.587 231.016 114.281 230.387 109.103L108.544 107.522Z"
                    fill="url(#paint4_linear_2_47)" />
                <g id="Vector_14" style="mix-blend-mode:multiply" opacity="0.83">
                    <path
                        d="M147.582 102.997C139.985 95.2071 129.535 90.3837 117.777 90.2141C106.019 90.0445 95.4079 94.6667 87.6291 102.275C79.8502 109.883 75.0336 120.347 74.8641 132.122C74.6947 143.897 79.3101 154.523 86.9071 162.313C94.5042 170.103 104.954 174.927 116.712 175.096C128.47 175.266 139.081 170.644 146.86 163.036C154.639 155.428 159.456 144.963 159.625 133.188C159.794 121.413 155.179 110.787 147.582 102.997Z"
                        fill="url(#paint5_radial_2_47)" />
                </g>
                <path id="Vector_15"
                    d="M138.698 93.7793C131.101 85.9894 120.651 81.166 108.893 80.9964C97.135 80.8268 86.5236 85.449 78.7448 93.0569C70.9659 100.665 66.1493 111.13 65.9798 122.905C65.8104 134.679 70.4258 145.306 78.0228 153.096C85.6199 160.886 96.0697 165.709 107.828 165.879C119.586 166.048 130.197 161.426 137.976 153.818C145.755 146.21 150.571 135.745 150.741 123.97C150.91 112.196 146.295 101.569 138.698 93.7793Z"
                    fill="white" />
                <path id="75%"
                    d="M155.1 67.5801L158.664 59.8475L154.018 59.8316L154.024 58.1563L160.783 58.1794L160.778 59.4294L157.187 67.5873L155.1 67.5801ZM165.165 61.5965C165.741 61.5984 166.252 61.7097 166.698 61.9303C167.148 62.1509 167.501 62.4743 167.758 62.9004C168.014 63.3266 168.141 63.851 168.139 64.4739C168.136 65.1526 167.993 65.7384 167.708 66.2314C167.427 66.7202 167.007 67.0946 166.447 67.3547C165.892 67.6148 165.2 67.7435 164.371 67.7407C163.877 67.739 163.411 67.6944 162.973 67.607C162.54 67.5239 162.16 67.3959 161.834 67.223L161.84 65.5026C162.166 65.6756 162.556 65.823 163.011 65.9448C163.471 66.0623 163.902 66.1218 164.306 66.1232C164.701 66.1245 165.034 66.0741 165.305 65.9719C165.576 65.8655 165.781 65.703 165.919 65.4844C166.061 65.2615 166.133 64.9782 166.134 64.6346C166.136 64.175 165.982 63.8222 165.674 63.5763C165.366 63.3304 164.891 63.2064 164.251 63.2042C164.007 63.2033 163.751 63.2261 163.484 63.2724C163.222 63.3188 163.003 63.3653 162.827 63.4119L162.036 62.984L162.406 58.185L167.516 58.2024L167.51 59.8906L164.147 59.8791L163.966 61.7277C164.113 61.6981 164.272 61.6686 164.444 61.6391C164.615 61.6096 164.856 61.5954 165.165 61.5965ZM171.402 58.0804C172.14 58.0829 172.7 58.3426 173.081 58.8593C173.461 59.3761 173.65 60.1005 173.647 61.0327C173.643 61.9648 173.461 62.6922 173.098 63.2151C172.735 63.7379 172.163 63.9979 171.381 63.9953C170.655 63.9928 170.104 63.7289 169.728 63.2035C169.352 62.6782 169.165 61.9495 169.169 61.0174C169.172 60.0852 169.35 59.3621 169.704 58.8478C170.063 58.3336 170.628 58.0778 171.402 58.0804ZM171.41 59.4271C171.199 59.4264 171.044 59.559 170.945 59.825C170.845 60.091 170.794 60.4946 170.792 61.0358C170.79 61.577 170.838 61.9831 170.936 62.2541C171.034 62.525 171.188 62.6609 171.399 62.6616C171.609 62.6623 171.764 62.5297 171.864 62.2637C171.968 61.9934 172.021 61.5855 172.023 61.04C172.025 60.4988 171.975 60.0948 171.872 59.8281C171.775 59.5615 171.62 59.4278 171.41 59.4271ZM178.089 58.2386L172.832 67.6407L171.285 67.6354L176.543 58.2333L178.089 58.2386ZM177.987 61.8658C178.725 61.8683 179.285 62.1279 179.666 62.6447C180.046 63.1615 180.235 63.8859 180.232 64.818C180.228 65.7459 180.046 66.4712 179.683 66.994C179.32 67.5168 178.748 67.7769 177.966 67.7742C177.24 67.7717 176.689 67.5078 176.313 66.9825C175.937 66.4571 175.75 65.7306 175.754 64.8027C175.757 63.8706 175.935 63.1474 176.289 62.6332C176.648 62.1189 177.213 61.8631 177.987 61.8658ZM177.995 63.2125C177.784 63.2117 177.629 63.3444 177.53 63.6104C177.43 63.8763 177.379 64.2799 177.377 64.8212C177.375 65.3624 177.423 65.7685 177.521 66.0394C177.619 66.3104 177.773 66.4462 177.984 66.447C178.194 66.4477 178.349 66.315 178.449 66.0491C178.553 65.7788 178.606 65.3709 178.608 64.8254C178.61 64.2841 178.56 63.8802 178.457 63.6135C178.36 63.3469 178.205 63.2132 177.995 63.2125Z"
                    fill="#1AA086" />
                <path id="20%"
                    d="M49.0172 178.689L44.6457 178.674L44.6488 177.755L46.224 176.173C46.5417 175.849 46.7964 175.579 46.9882 175.363C47.1828 175.144 47.3233 174.945 47.4094 174.766C47.4984 174.586 47.5433 174.394 47.544 174.189C47.5448 173.94 47.4756 173.755 47.3363 173.632C47.1998 173.506 47.0161 173.442 46.7852 173.442C46.5428 173.441 46.3073 173.496 46.0788 173.606C45.8503 173.717 45.6117 173.874 45.3629 174.078L44.6472 173.225C44.8274 173.071 45.0175 172.927 45.2176 172.79C45.4205 172.654 45.6547 172.545 45.9202 172.463C46.1885 172.379 46.5095 172.337 46.883 172.338C47.2937 172.34 47.6456 172.415 47.9388 172.564C48.2348 172.714 48.4623 172.917 48.6211 173.174C48.7799 173.429 48.8588 173.717 48.8577 174.039C48.8565 174.384 48.787 174.699 48.6491 174.984C48.5113 175.268 48.3107 175.55 48.0474 175.829C47.787 176.107 47.4722 176.415 47.1032 176.754L46.2965 177.508L46.2963 177.568L49.021 177.577L49.0172 178.689ZM54.0067 175.579C54.005 176.084 53.9635 176.535 53.8823 176.931C53.804 177.327 53.6773 177.663 53.5025 177.939C53.3304 178.215 53.1044 178.425 52.8245 178.57C52.5445 178.714 52.2049 178.786 51.8057 178.784C51.3038 178.783 50.8922 178.654 50.5708 178.399C50.2495 178.142 50.0126 177.773 49.8603 177.293C49.708 176.811 49.6329 176.235 49.6352 175.564C49.6375 174.889 49.7094 174.311 49.8507 173.833C49.995 173.351 50.2272 172.983 50.5474 172.727C50.8677 172.472 51.2945 172.345 51.8277 172.347C52.3267 172.349 52.7369 172.478 53.0583 172.736C53.3825 172.991 53.6222 173.36 53.7774 173.842C53.9326 174.322 54.009 174.901 54.0067 175.579ZM50.9484 175.569C50.9467 176.045 50.9711 176.443 51.0213 176.763C51.0744 177.079 51.1634 177.318 51.2883 177.478C51.4132 177.638 51.5869 177.718 51.8093 177.719C52.0289 177.72 52.2017 177.642 52.3277 177.486C52.4566 177.326 52.5486 177.089 52.6039 176.772C52.6592 176.453 52.6876 176.054 52.6893 175.575C52.6909 175.099 52.6652 174.701 52.6121 174.381C52.559 174.062 52.4685 173.822 52.3408 173.662C52.2159 173.499 52.0436 173.417 51.824 173.416C51.6016 173.415 51.4274 173.496 51.3014 173.658C51.1754 173.817 51.0847 174.057 51.0294 174.376C50.977 174.695 50.95 175.093 50.9484 175.569ZM56.0879 172.37C56.5784 172.372 56.9499 172.544 57.2026 172.887C57.4552 173.23 57.5804 173.711 57.5783 174.33C57.5762 174.949 57.4548 175.432 57.2141 175.779C56.9734 176.126 56.5935 176.298 56.0745 176.297C55.5926 176.295 55.2268 176.12 54.977 175.771C54.7273 175.422 54.6034 174.938 54.6056 174.32C54.6077 173.701 54.7262 173.221 54.9612 172.879C55.1991 172.538 55.5746 172.368 56.0879 172.37ZM56.0934 173.264C55.9537 173.263 55.8507 173.351 55.7846 173.528C55.7184 173.705 55.6847 173.973 55.6834 174.332C55.6822 174.691 55.7141 174.961 55.779 175.141C55.844 175.32 55.9464 175.411 56.0861 175.411C56.2258 175.412 56.3288 175.324 56.395 175.147C56.464 174.968 56.4992 174.697 56.5004 174.335C56.5016 173.975 56.4683 173.707 56.4005 173.53C56.3355 173.353 56.2332 173.264 56.0934 173.264ZM60.5275 172.475L57.0372 178.717L56.0107 178.713L59.501 172.471L60.5275 172.475ZM60.4594 174.883C60.9499 174.885 61.3214 175.057 61.5741 175.4C61.8267 175.743 61.9519 176.224 61.9498 176.843C61.9477 177.459 61.8263 177.94 61.5856 178.287C61.3449 178.634 60.965 178.807 60.446 178.805C59.9641 178.804 59.5983 178.628 59.3485 178.28C59.0988 177.931 58.9749 177.449 58.977 176.833C58.9792 176.214 59.0977 175.734 59.3327 175.392C59.5706 175.051 59.9461 174.881 60.4594 174.883ZM60.4649 175.777C60.3252 175.776 60.2222 175.864 60.156 176.041C60.0899 176.218 60.0561 176.486 60.0549 176.845C60.0537 177.204 60.0856 177.474 60.1505 177.654C60.2155 177.833 60.3179 177.924 60.4576 177.924C60.5973 177.925 60.7003 177.837 60.7665 177.66C60.8355 177.481 60.8707 177.21 60.8719 176.848C60.8731 176.488 60.8398 176.22 60.772 176.043C60.707 175.866 60.6046 175.777 60.4649 175.777Z"
                    fill="#F97F06" />
                <path id="5%"
                    d="M149.069 175.614C149.436 175.615 149.762 175.686 150.046 175.827C150.334 175.967 150.559 176.174 150.723 176.445C150.886 176.717 150.967 177.052 150.966 177.449C150.964 177.882 150.873 178.256 150.691 178.571C150.512 178.882 150.244 179.121 149.887 179.287C149.533 179.453 149.091 179.535 148.562 179.533C148.247 179.532 147.95 179.504 147.67 179.448C147.394 179.395 147.152 179.314 146.944 179.203L146.947 178.106C147.155 178.216 147.404 178.31 147.695 178.388C147.988 178.463 148.263 178.501 148.52 178.502C148.773 178.502 148.985 178.47 149.158 178.405C149.331 178.337 149.461 178.233 149.55 178.094C149.64 177.952 149.686 177.771 149.687 177.552C149.688 177.259 149.59 177.034 149.393 176.877C149.197 176.72 148.894 176.641 148.486 176.639C148.33 176.639 148.166 176.653 147.996 176.683C147.829 176.712 147.689 176.742 147.577 176.772L147.072 176.499L147.309 173.437L150.568 173.448L150.565 174.525L148.419 174.518L148.304 175.697C148.397 175.678 148.499 175.66 148.608 175.641C148.718 175.622 148.872 175.613 149.069 175.614ZM153.048 173.37C153.519 173.372 153.876 173.538 154.119 173.867C154.362 174.197 154.482 174.659 154.48 175.254C154.478 175.849 154.361 176.313 154.13 176.646C153.898 176.98 153.533 177.146 153.035 177.144C152.571 177.142 152.22 176.974 151.98 176.639C151.74 176.304 151.621 175.839 151.623 175.244C151.625 174.649 151.739 174.188 151.965 173.86C152.193 173.532 152.554 173.369 153.048 173.37ZM153.053 174.23C152.919 174.229 152.82 174.314 152.756 174.483C152.692 174.653 152.66 174.911 152.659 175.256C152.658 175.601 152.688 175.86 152.751 176.033C152.813 176.206 152.911 176.293 153.046 176.293C153.18 176.294 153.279 176.209 153.343 176.039C153.409 175.867 153.443 175.607 153.444 175.259C153.445 174.913 153.413 174.656 153.348 174.485C153.285 174.315 153.187 174.23 153.053 174.23ZM157.314 173.471L153.96 179.47L152.973 179.466L156.328 173.468L157.314 173.471ZM157.249 175.785C157.72 175.787 158.077 175.953 158.32 176.282C158.563 176.612 158.683 177.074 158.681 177.669C158.679 178.261 158.562 178.724 158.331 179.057C158.1 179.391 157.735 179.557 157.236 179.555C156.773 179.553 156.421 179.385 156.181 179.05C155.941 178.715 155.822 178.251 155.824 177.659C155.826 177.064 155.94 176.603 156.166 176.275C156.394 175.947 156.755 175.784 157.249 175.785ZM157.254 176.645C157.12 176.644 157.021 176.729 156.957 176.898C156.894 177.068 156.861 177.326 156.86 177.671C156.859 178.016 156.889 178.275 156.952 178.448C157.014 178.621 157.113 178.708 157.247 178.708C157.381 178.709 157.48 178.624 157.544 178.454C157.61 178.282 157.644 178.022 157.645 177.674C157.646 177.328 157.614 177.071 157.549 176.9C157.487 176.73 157.388 176.645 157.254 176.645Z"
                    fill="#CE2469" />
                <path id="50%"
                    d="M44.5256 61.7596C45.0317 61.7613 45.4808 61.8591 45.873 62.0531C46.2689 62.2471 46.5795 62.5314 46.8049 62.9061C47.0302 63.2808 47.1419 63.742 47.1401 64.2896C47.138 64.8864 47.0116 65.4015 46.7609 65.835C46.5139 66.2648 46.1445 66.594 45.6527 66.8227C45.1647 67.0514 44.5562 67.1646 43.8273 67.1621C43.3929 67.1606 42.9832 67.1214 42.5982 67.0446C42.217 66.9715 41.8831 66.8589 41.5966 66.7069L41.6018 65.1942C41.8883 65.3463 42.2316 65.4759 42.6316 65.583C43.0354 65.6863 43.4148 65.7386 43.7698 65.7398C44.1173 65.741 44.4102 65.6967 44.6484 65.6069C44.8867 65.5133 45.0666 65.3703 45.1881 65.1781C45.3134 64.9822 45.3766 64.7331 45.3776 64.4309C45.379 64.0268 45.2441 63.7166 44.9729 63.5004C44.7017 63.2842 44.2847 63.1751 43.7219 63.1732C43.5066 63.1725 43.2818 63.1925 43.0475 63.2332C42.817 63.274 42.6242 63.3149 42.4692 63.3559L41.7736 62.9796L42.0997 58.7599L46.5924 58.7752L46.5873 60.2596L43.6299 60.2495L43.4714 61.8749C43.5999 61.8489 43.7397 61.823 43.8909 61.7971C44.0421 61.7711 44.2536 61.7586 44.5256 61.7596ZM53.8923 62.9417C53.89 63.6102 53.8351 64.2068 53.7275 64.7314C53.6238 65.256 53.4561 65.7012 53.2244 66.0667C52.9966 66.4323 52.6972 66.7108 52.3264 66.9022C51.9556 67.0935 51.5058 67.1883 50.9771 67.1865C50.3123 67.1842 49.7671 67.0143 49.3415 66.6767C48.9158 66.3353 48.6021 65.847 48.4003 65.2118C48.1986 64.5728 48.0992 63.8095 48.1022 62.9219C48.1053 62.0267 48.2004 61.2622 48.3877 60.6283C48.5787 59.9907 48.8863 59.5026 49.3105 59.1641C49.7347 58.8256 50.2999 58.6576 51.0062 58.66C51.6671 58.6623 52.2105 58.8341 52.6361 59.1755C53.0655 59.5131 53.383 60.0014 53.5886 60.6404C53.7941 61.2757 53.8954 62.0427 53.8923 62.9417ZM49.8415 62.9278C49.8393 63.5586 49.8715 64.0856 49.9381 64.5088C50.0084 64.9283 50.1263 65.2441 50.2918 65.4562C50.4572 65.6683 50.6873 65.7748 50.9819 65.7758C51.2727 65.7768 51.5016 65.6737 51.6685 65.4665C51.8391 65.2556 51.9611 64.9406 52.0343 64.5217C52.1075 64.0989 52.1452 63.5702 52.1473 62.9357C52.1495 62.3049 52.1154 61.7779 52.0451 61.3547C51.9748 60.9314 51.855 60.6137 51.6858 60.4016C51.5203 60.1858 51.2922 60.0774 51.0013 60.0764C50.7067 60.0754 50.476 60.1822 50.3091 60.3969C50.1421 60.6079 50.0221 60.9247 49.9489 61.3475C49.8795 61.7703 49.8437 62.2971 49.8415 62.9278ZM56.6489 58.6906C57.2986 58.6928 57.7907 58.9211 58.1253 59.3755C58.4599 59.8299 58.6258 60.4669 58.623 61.2865C58.6202 62.1061 58.4594 62.7457 58.1405 63.2054C57.8217 63.6652 57.3186 63.8938 56.6312 63.8915C55.9929 63.8893 55.5083 63.6573 55.1775 63.1953C54.8467 62.7334 54.6827 62.0926 54.6855 61.273C54.6883 60.4534 54.8453 59.8175 55.1566 59.3654C55.4716 58.9132 55.9691 58.6883 56.6489 58.6906ZM56.6562 59.8747C56.4711 59.8741 56.3348 59.9907 56.2471 60.2246C56.1594 60.4585 56.1148 60.8133 56.1132 61.2892C56.1115 61.7651 56.1537 62.1222 56.2398 62.3605C56.3259 62.5987 56.4614 62.7181 56.6465 62.7188C56.8316 62.7194 56.9679 62.6028 57.0556 62.3689C57.1471 62.1313 57.1936 61.7726 57.1953 61.2929C57.1969 60.817 57.1528 60.4619 57.0629 60.2274C56.9769 59.9929 56.8413 59.8754 56.6562 59.8747ZM62.5293 58.8297L57.9063 67.0969L56.5466 67.0922L61.1695 58.825L62.5293 58.8297ZM62.439 62.019C63.0887 62.0213 63.5808 62.2496 63.9154 62.7039C64.25 63.1583 64.4159 63.7953 64.4131 64.6149C64.4103 65.4307 64.2495 66.0685 63.9307 66.5282C63.6118 66.9879 63.1087 67.2166 62.4213 67.2143C61.783 67.2121 61.2984 66.98 60.9676 66.5181C60.6368 66.0562 60.4728 65.4173 60.4756 64.6015C60.4784 63.7819 60.6354 63.146 60.9467 62.6938C61.2617 62.2416 61.7592 62.0167 62.439 62.019ZM62.4463 63.2032C62.2613 63.2025 62.1249 63.3191 62.0372 63.553C61.9495 63.7869 61.9049 64.1418 61.9033 64.6177C61.9016 65.0936 61.9439 65.4507 62.0299 65.6889C62.116 65.9271 62.2515 66.0466 62.4366 66.0472C62.6217 66.0478 62.7581 65.9312 62.8457 65.6973C62.9372 65.4597 62.9837 65.1011 62.9854 64.6214C62.987 64.1455 62.9429 63.7903 62.853 63.5558C62.767 63.3213 62.6314 63.2038 62.4463 63.2032Z"
                    fill="#1891B2" />
                <g id="Group_2">
                    <path id="DATA"
                        d="M120.604 18.2618C120.603 18.7572 120.506 19.171 120.314 19.5033C120.125 19.8336 119.85 20.0824 119.491 20.2496C119.131 20.4149 118.698 20.4966 118.193 20.4949L116.948 20.4906L116.963 16.0923L118.343 16.097C118.805 16.0985 119.205 16.1821 119.543 16.3478C119.881 16.5114 120.143 16.754 120.329 17.0755C120.514 17.395 120.606 17.7905 120.604 18.2618ZM119.636 18.2826C119.637 17.9576 119.59 17.6907 119.494 17.4818C119.4 17.2709 119.261 17.115 119.074 17.0141C118.89 16.9131 118.662 16.8622 118.389 16.8613L117.893 16.8596L117.883 19.7237L118.283 19.725C118.738 19.7266 119.077 19.6064 119.298 19.3645C119.521 19.1225 119.634 18.7619 119.636 18.2826ZM124.201 20.5154L123.886 19.4674L122.282 19.4619L121.96 20.5078L120.955 20.5043L122.522 16.0932L123.663 16.0971L125.206 20.5189L124.201 20.5154ZM123.666 18.6844L123.35 17.6604C123.33 17.5922 123.304 17.5048 123.27 17.3984C123.238 17.29 123.206 17.1806 123.172 17.0702C123.14 16.9577 123.114 16.8604 123.095 16.7781C123.074 16.8602 123.046 16.9624 123.009 17.0847C122.975 17.2049 122.941 17.3191 122.909 17.4273C122.876 17.5355 122.853 17.6126 122.839 17.6587L122.519 18.6805L123.666 18.6844ZM127.459 20.5266L126.527 20.5234L126.539 16.9012L125.345 16.8971L125.347 16.1209L128.669 16.1322L128.666 16.9084L127.472 16.9043L127.459 20.5266ZM132.023 20.5421L131.708 19.4941L130.104 19.4886L129.782 20.5345L128.777 20.5311L130.344 16.1199L131.485 16.1238L133.028 20.5456L132.023 20.5421ZM131.488 18.7111L131.172 17.6872C131.153 17.6189 131.126 17.5316 131.092 17.4252C131.06 17.3167 131.028 17.2073 130.994 17.0969C130.962 16.9845 130.936 16.8871 130.917 16.8048C130.896 16.887 130.868 16.9892 130.831 17.1114C130.797 17.2316 130.763 17.3458 130.731 17.454C130.698 17.5622 130.675 17.6393 130.661 17.6854L130.342 18.7072L131.488 18.7111Z"
                        fill="#1AA086" />
                    <path id="01"
                        d="M119.666 27.8762C119.665 28.2312 119.636 28.548 119.579 28.8266C119.523 29.1052 119.434 29.3416 119.311 29.5357C119.19 29.7299 119.031 29.8777 118.835 29.9794C118.638 30.081 118.399 30.1313 118.118 30.1304C117.765 30.1291 117.476 30.0389 117.249 29.8596C117.023 29.6783 116.857 29.419 116.75 29.0817C116.643 28.7424 116.59 28.3371 116.591 27.8657C116.593 27.3904 116.644 26.9844 116.743 26.6478C116.844 26.3092 117.008 26.05 117.233 25.8703C117.458 25.6905 117.758 25.6013 118.133 25.6026C118.484 25.6038 118.773 25.695 118.999 25.8763C119.227 26.0556 119.396 26.3149 119.505 26.6542C119.614 26.9916 119.668 27.3989 119.666 27.8762ZM117.515 27.8689C117.514 28.2038 117.531 28.4837 117.566 28.7084C117.604 28.9312 117.666 29.0989 117.754 29.2115C117.842 29.3241 117.964 29.3807 118.121 29.3812C118.275 29.3818 118.397 29.327 118.485 29.217C118.576 29.105 118.641 28.9378 118.679 28.7153C118.718 28.4908 118.738 28.21 118.739 27.8731C118.741 27.5381 118.723 27.2583 118.685 27.0335C118.648 26.8088 118.584 26.6401 118.494 26.5274C118.406 26.4128 118.285 26.3552 118.131 26.3547C117.974 26.3542 117.852 26.4109 117.763 26.5249C117.675 26.637 117.611 26.8052 117.572 27.0297C117.535 27.2542 117.516 27.534 117.515 27.8689ZM122.432 30.0849L121.503 30.0817L121.511 27.5366C121.512 27.4664 121.513 27.3801 121.515 27.2779C121.518 27.1736 121.521 27.0673 121.525 26.959C121.53 26.8487 121.534 26.7494 121.539 26.6612C121.516 26.6872 121.471 26.7322 121.403 26.7961C121.336 26.8581 121.274 26.914 121.216 26.9639L120.709 27.3684L120.262 26.8073L121.683 25.6839L122.447 25.6865L122.432 30.0849Z"
                        fill="#1AA086" />
                </g>
                <g id="Group_3">
                    <path id="DATA_2"
                        d="M14.432 102.057C14.4303 102.552 14.3336 102.966 14.1419 103.298C13.9523 103.628 13.6776 103.877 13.318 104.044C12.9585 104.21 12.526 104.291 12.0205 104.29L10.775 104.285L10.79 99.8871L12.1709 99.8918C12.6322 99.8933 13.0321 99.9769 13.3705 100.143C13.7089 100.306 13.9708 100.549 14.1562 100.87C14.3417 101.19 14.4336 101.585 14.432 102.057ZM13.4632 102.077C13.4643 101.752 13.417 101.486 13.3215 101.277C13.2279 101.066 13.0881 100.91 12.9019 100.809C12.7177 100.708 12.4892 100.657 12.2165 100.656L11.7201 100.654L11.7103 103.518L12.1104 103.52C12.5657 103.521 12.9041 103.401 13.1255 103.159C13.349 102.917 13.4615 102.557 13.4632 102.077ZM18.0285 104.31L17.7131 103.262L16.1096 103.257L15.7871 104.303L14.7823 104.299L16.3498 99.888L17.49 99.8919L19.0333 104.314L18.0285 104.31ZM17.4932 102.479L17.1778 101.455C17.158 101.387 17.1312 101.3 17.0974 101.193C17.0657 101.085 17.033 100.975 16.9993 100.865C16.9676 100.753 16.9418 100.655 16.9221 100.573C16.9017 100.655 16.8733 100.757 16.8368 100.879C16.8023 101 16.7688 101.114 16.7363 101.222C16.7039 101.33 16.6805 101.407 16.6663 101.453L16.347 102.475L17.4932 102.479ZM21.2866 104.321L20.354 104.318L20.3664 100.696L19.172 100.692L19.1747 99.9157L22.496 99.927L22.4934 100.703L21.299 100.699L21.2866 104.321ZM25.8505 104.337L25.5352 103.289L23.9317 103.283L23.6092 104.329L22.6044 104.326L24.1718 99.9147L25.312 99.9186L26.8553 104.34L25.8505 104.337ZM25.3152 102.506L24.9998 101.482C24.98 101.414 24.9532 101.326 24.9195 101.22C24.8878 101.112 24.8551 101.002 24.8213 100.892C24.7896 100.779 24.7639 100.682 24.7441 100.6C24.7238 100.682 24.6953 100.784 24.6588 100.906C24.6243 101.026 24.5908 101.141 24.5584 101.249C24.5259 101.357 24.5026 101.434 24.4884 101.48L24.169 102.502L25.3152 102.506Z"
                        fill="#1891B2" />
                    <path id="02"
                        d="M13.4936 111.671C13.4923 112.026 13.4632 112.343 13.4061 112.621C13.351 112.9 13.2619 113.136 13.1389 113.331C13.0179 113.525 12.8589 113.673 12.662 113.774C12.4651 113.876 12.2263 113.926 11.9455 113.925C11.5925 113.924 11.303 113.834 11.077 113.654C10.8509 113.473 10.6844 113.214 10.5772 112.877C10.4701 112.537 10.4173 112.132 10.4189 111.661C10.4205 111.185 10.471 110.779 10.5705 110.443C10.6719 110.104 10.8353 109.845 11.0605 109.665C11.2858 109.485 11.5859 109.396 11.961 109.397C12.312 109.399 12.6005 109.49 12.8265 109.671C13.0545 109.85 13.2231 110.11 13.3323 110.449C13.4414 110.786 13.4952 111.194 13.4936 111.671ZM11.3425 111.664C11.3414 111.999 11.3585 112.278 11.3938 112.503C11.4311 112.726 11.4937 112.894 11.5816 113.006C11.6695 113.119 11.7916 113.176 11.9481 113.176C12.1025 113.177 12.224 113.122 12.3127 113.012C12.4033 112.9 12.468 112.733 12.5069 112.51C12.5458 112.286 12.5658 112.005 12.5669 111.668C12.5681 111.333 12.55 111.053 12.5127 110.828C12.4753 110.604 12.4117 110.435 12.3218 110.322C12.234 110.208 12.1128 110.15 11.9584 110.15C11.802 110.149 11.6794 110.206 11.5908 110.32C11.5021 110.432 11.4384 110.6 11.3995 110.825C11.3626 111.049 11.3436 111.329 11.3425 111.664ZM17.0361 113.882L13.9614 113.872L13.9636 113.225L15.0715 112.113C15.2949 111.885 15.4741 111.695 15.609 111.543C15.7459 111.389 15.8447 111.249 15.9053 111.123C15.9679 110.997 15.9994 110.861 15.9999 110.717C16.0005 110.542 15.9518 110.412 15.8538 110.325C15.7579 110.237 15.6286 110.192 15.4662 110.192C15.2957 110.191 15.1301 110.23 14.9694 110.307C14.8087 110.385 14.6408 110.496 14.4658 110.639L13.9624 110.039C14.0892 109.931 14.2229 109.829 14.3636 109.734C14.5064 109.638 14.6711 109.561 14.8578 109.504C15.0465 109.444 15.2723 109.415 15.535 109.416C15.8238 109.417 16.0714 109.47 16.2776 109.575C16.4858 109.68 16.6458 109.823 16.7575 110.003C16.8692 110.182 16.9247 110.385 16.9239 110.612C16.923 110.854 16.8742 111.076 16.7772 111.276C16.6802 111.476 16.5392 111.674 16.354 111.87C16.1708 112.066 15.9494 112.283 15.6899 112.521L15.1225 113.052L15.1223 113.094L17.0387 113.1L17.0361 113.882Z"
                        fill="#1891B2" />
                </g>
                <g id="Group_4">
                    <path id="DATA_3"
                        d="M87.9347 197.834C87.9332 198.268 87.8485 198.63 87.6806 198.921C87.5145 199.211 87.2739 199.428 86.9589 199.575C86.644 199.72 86.2651 199.791 85.8224 199.79L84.7313 199.786L84.7445 195.933L85.9541 195.937C86.3582 195.939 86.7084 196.012 87.0049 196.157C87.3013 196.3 87.5307 196.513 87.6932 196.795C87.8556 197.074 87.9361 197.421 87.9347 197.834ZM87.086 197.852C87.087 197.567 87.0456 197.333 86.9619 197.15C86.88 196.966 86.7575 196.829 86.5944 196.741C86.4331 196.652 86.2329 196.608 85.994 196.607L85.5592 196.605L85.5506 199.114L85.9011 199.115C86.2999 199.117 86.5963 199.011 86.7903 198.8C86.986 198.588 87.0846 198.272 87.086 197.852ZM91.0851 199.808L90.8089 198.89L89.4043 198.885L89.1218 199.801L88.2416 199.798L89.6146 195.934L90.6134 195.937L91.9653 199.811L91.0851 199.808ZM90.6162 198.204L90.3399 197.307C90.3226 197.247 90.2991 197.171 90.2696 197.077C90.2418 196.982 90.2131 196.887 90.1836 196.79C90.1558 196.691 90.1333 196.606 90.1159 196.534C90.0981 196.606 90.0732 196.695 90.0412 196.803C90.011 196.908 89.9817 197.008 89.9532 197.103C89.9248 197.197 89.9044 197.265 89.8919 197.305L89.6122 198.2L90.6162 198.204ZM93.9392 199.818L93.1222 199.815L93.1331 196.642L92.0868 196.638L92.0892 195.958L94.9986 195.968L94.9963 196.648L93.95 196.645L93.9392 199.818ZM97.937 199.831L97.6608 198.913L96.2561 198.908L95.9737 199.824L95.0935 199.821L96.4665 195.957L97.4653 195.961L98.8172 199.834L97.937 199.831ZM97.4681 198.227L97.1918 197.33C97.1745 197.271 97.151 197.194 97.1215 197.101C97.0937 197.006 97.065 196.91 97.0355 196.813C97.0077 196.715 96.9851 196.629 96.9678 196.557C96.95 196.629 96.9251 196.719 96.8931 196.826C96.8629 196.931 96.8336 197.031 96.8051 197.126C96.7767 197.221 96.7563 197.288 96.7438 197.329L96.464 198.224L97.4681 198.227Z"
                        fill="#F97F06" />
                    <path id="03"
                        d="M97.9665 206.316C97.9654 206.627 97.9399 206.904 97.8898 207.148C97.8416 207.392 97.7635 207.599 97.6558 207.769C97.5498 207.939 97.4106 208.069 97.2381 208.158C97.0656 208.247 96.8564 208.291 96.6104 208.29C96.3012 208.289 96.0476 208.21 95.8496 208.053C95.6516 207.894 95.5057 207.667 95.4118 207.372C95.318 207.074 95.2717 206.719 95.2731 206.307C95.2746 205.89 95.3188 205.535 95.4059 205.24C95.4948 204.943 95.6379 204.716 95.8352 204.559C96.0325 204.401 96.2954 204.323 96.624 204.324C96.9314 204.325 97.1841 204.405 97.3821 204.564C97.5819 204.721 97.7296 204.948 97.8252 205.245C97.9208 205.541 97.9679 205.898 97.9665 206.316ZM96.0822 206.309C96.0812 206.603 96.0962 206.848 96.1271 207.045C96.1598 207.24 96.2147 207.387 96.2916 207.485C96.3686 207.584 96.4756 207.634 96.6127 207.634C96.7479 207.635 96.8544 207.587 96.932 207.49C97.0114 207.392 97.0681 207.246 97.1022 207.051C97.1362 206.854 97.1538 206.608 97.1548 206.313C97.1558 206.02 97.1399 205.774 97.1072 205.578C97.0745 205.381 97.0188 205.233 96.9401 205.134C96.8631 205.034 96.757 204.983 96.6217 204.983C96.4847 204.982 96.3773 205.032 96.2997 205.132C96.222 205.23 96.1662 205.378 96.1321 205.574C96.0998 205.771 96.0832 206.016 96.0822 206.309ZM100.93 205.261C100.929 205.439 100.892 205.592 100.817 205.722C100.743 205.852 100.643 205.958 100.516 206.04C100.391 206.122 100.25 206.182 100.094 206.22L100.093 206.236C100.403 206.276 100.637 206.371 100.796 206.523C100.957 206.675 101.037 206.877 101.037 207.13C101.036 207.355 100.98 207.556 100.868 207.733C100.759 207.91 100.59 208.049 100.361 208.15C100.132 208.251 99.8378 208.301 99.4777 208.3C99.2651 208.299 99.0666 208.281 98.8823 208.245C98.6996 208.211 98.5276 208.159 98.3663 208.088L98.3686 207.395C98.5335 207.48 98.7063 207.545 98.8871 207.589C99.0679 207.632 99.2365 207.654 99.3929 207.654C99.6845 207.655 99.8885 207.606 100.005 207.506C100.123 207.405 100.182 207.262 100.183 207.08C100.183 206.973 100.156 206.882 100.102 206.808C100.048 206.734 99.9532 206.677 99.818 206.638C99.6846 206.599 99.4976 206.579 99.2569 206.578L98.9644 206.577L98.9665 205.953L99.2643 205.954C99.5015 205.955 99.6816 205.933 99.8048 205.89C99.9297 205.845 100.014 205.783 100.058 205.706C100.104 205.627 100.127 205.538 100.128 205.438C100.128 205.301 100.086 205.193 100.002 205.116C99.9184 205.038 99.7779 204.999 99.5812 204.998C99.4582 204.998 99.3457 205.013 99.2437 205.045C99.1434 205.074 99.0528 205.111 98.9719 205.154C98.8909 205.196 98.8196 205.237 98.758 205.278L98.383 204.715C98.5345 204.606 98.7114 204.517 98.9137 204.445C99.1177 204.374 99.3603 204.339 99.6414 204.34C100.038 204.341 100.353 204.422 100.584 204.583C100.815 204.743 100.931 204.97 100.93 205.261Z"
                        fill="#F97F06" />
                </g>
                <g id="Group_5">
                    <path id="DATA_4"
                        d="M175.396 133.595C175.394 134.029 175.31 134.391 175.142 134.682C174.976 134.971 174.735 135.189 174.42 135.336C174.105 135.481 173.726 135.552 173.283 135.551L172.192 135.547L172.206 131.694L173.415 131.698C173.819 131.7 174.17 131.773 174.466 131.918C174.762 132.061 174.992 132.274 175.154 132.555C175.317 132.835 175.397 133.182 175.396 133.595ZM174.547 133.613C174.548 133.328 174.507 133.094 174.423 132.911C174.341 132.727 174.219 132.59 174.056 132.502C173.894 132.413 173.694 132.369 173.455 132.368L173.02 132.366L173.012 134.875L173.362 134.876C173.761 134.878 174.057 134.772 174.251 134.56C174.447 134.349 174.546 134.033 174.547 133.613ZM178.546 135.569L178.27 134.651L176.865 134.646L176.583 135.562L175.703 135.559L177.076 131.695L178.075 131.698L179.426 135.572L178.546 135.569ZM178.077 133.965L177.801 133.068C177.784 133.008 177.76 132.932 177.731 132.838C177.703 132.743 177.674 132.647 177.645 132.551C177.617 132.452 177.594 132.367 177.577 132.295C177.559 132.367 177.534 132.456 177.502 132.563C177.472 132.669 177.443 132.769 177.414 132.864C177.386 132.958 177.366 133.026 177.353 133.066L177.073 133.961L178.077 133.965ZM181.4 135.578L180.583 135.576L180.594 132.403L179.548 132.399L179.55 131.719L182.46 131.729L182.457 132.409L181.411 132.405L181.4 135.578ZM185.398 135.592L185.122 134.674L183.717 134.669L183.435 135.585L182.555 135.582L183.928 131.718L184.926 131.722L186.278 135.595L185.398 135.592ZM184.929 133.988L184.653 133.091C184.636 133.031 184.612 132.955 184.583 132.862C184.555 132.767 184.526 132.671 184.497 132.574C184.469 132.476 184.446 132.39 184.429 132.318C184.411 132.39 184.386 132.48 184.354 132.587C184.324 132.692 184.295 132.792 184.266 132.887C184.238 132.982 184.217 133.049 184.205 133.09L183.925 133.985L184.929 133.988Z"
                        fill="#CE2469" />
                    <path id="04"
                        d="M185.428 142.077C185.427 142.388 185.401 142.665 185.351 142.909C185.303 143.153 185.225 143.36 185.117 143.53C185.011 143.7 184.872 143.83 184.699 143.919C184.527 144.008 184.318 144.052 184.072 144.051C183.762 144.05 183.509 143.971 183.311 143.814C183.113 143.655 182.967 143.428 182.873 143.133C182.779 142.835 182.733 142.48 182.734 142.067C182.736 141.651 182.78 141.295 182.867 141.001C182.956 140.704 183.099 140.477 183.296 140.32C183.494 140.162 183.757 140.084 184.085 140.085C184.393 140.086 184.645 140.166 184.843 140.325C185.043 140.482 185.191 140.709 185.286 141.006C185.382 141.302 185.429 141.659 185.428 142.077ZM183.543 142.07C183.542 142.364 183.557 142.609 183.588 142.806C183.621 143.001 183.676 143.148 183.753 143.246C183.83 143.345 183.937 143.395 184.074 143.395C184.209 143.395 184.316 143.348 184.393 143.251C184.473 143.153 184.529 143.007 184.563 142.812C184.597 142.615 184.615 142.369 184.616 142.074C184.617 141.781 184.601 141.535 184.568 141.338C184.536 141.142 184.48 140.994 184.401 140.895C184.324 140.795 184.218 140.744 184.083 140.744C183.946 140.743 183.838 140.793 183.761 140.893C183.683 140.991 183.627 141.139 183.593 141.335C183.561 141.532 183.544 141.777 183.543 142.07ZM188.62 143.216L188.157 143.214L188.154 144.012L187.358 144.01L187.361 143.211L185.716 143.206L185.718 142.639L187.416 140.157L188.167 140.16L188.159 142.581L188.623 142.583L188.62 143.216ZM187.363 142.579L187.365 141.925C187.365 141.864 187.366 141.791 187.368 141.706C187.372 141.622 187.376 141.538 187.38 141.454C187.384 141.369 187.387 141.295 187.391 141.23C187.397 141.163 187.4 141.116 187.402 141.09L187.381 141.09C187.348 141.162 187.312 141.232 187.275 141.3C187.238 141.367 187.195 141.437 187.145 141.511L186.435 142.576L187.363 142.579Z"
                        fill="#CE2469" />
                </g>
            </g>
        </g>
    </g>
    <defs>
        <radialGradient id="paint0_radial_2_47" cx="0" cy="0" r="1" gradientUnits="userSpaceOnUse"
            gradientTransform="translate(114.766 135.084) rotate(0.740783) scale(93.1276 93.2608)">
            <stop />
            <stop offset="1" stop-color="white" />
        </radialGradient>
        <linearGradient id="paint1_linear_2_47" x1="94.7766" y1="69.5704" x2="109.062" y2="69.7547"
            gradientUnits="userSpaceOnUse">
            <stop stop-color="white" />
            <stop offset="1" />
        </linearGradient>
        <linearGradient id="paint2_linear_2_47" x1="59.4996" y1="134.205" x2="59.6446" y2="122.984"
            gradientUnits="userSpaceOnUse">
            <stop stop-color="white" />
            <stop offset="1" />
        </linearGradient>
        <linearGradient id="paint3_linear_2_47" x1="107.799" y1="167.255" x2="124.623" y2="167.472"
            gradientUnits="userSpaceOnUse">
            <stop />
            <stop offset="1" stop-color="white" />
        </linearGradient>
        <linearGradient id="paint4_linear_2_47" x1="169.75" y1="126.732" x2="169.956" y2="110.837"
            gradientUnits="userSpaceOnUse">
            <stop />
            <stop offset="0.0961573" stop-color="#1D1D1D" />
            <stop offset="0.4331" stop-color="#7C7C7C" />
            <stop offset="0.706" stop-color="#C3C3C3" />
            <stop offset="0.9012" stop-color="#EEEEEE" />
            <stop offset="1" stop-color="white" />
        </linearGradient>
        <radialGradient id="paint5_radial_2_47" cx="0" cy="0" r="1" gradientUnits="userSpaceOnUse"
            gradientTransform="translate(117.296 132.568) rotate(0.740783) scale(42.3758 42.4364)">
            <stop />
            <stop offset="1" stop-color="white" />
        </radialGradient>
        <clipPath id="clip0_2_47">
            <rect width="230" height="228" fill="white"
                transform="translate(1.66327 0.0144424) rotate(0.19571)" />
        </clipPath>
    </defs>
</svg>