<svg width="23" height="22" viewBox="0 0 23 22" fill="none" xmlns="http://www.w3.org/2000/svg">
<path d="M16.3328 2.07524C17.5616 2.07877 18.739 2.55006 19.6079 3.38618C20.4768 4.22229 20.9666 5.3553 20.9703 6.53774V15.4618C20.9666 16.6442 20.4768 17.7772 19.6079 18.6134C18.739 19.4495 17.5616 19.9208 16.3328 19.9243H7.0589C5.8301 19.9208 4.65268 19.4495 3.78378 18.6134C2.91489 17.7772 2.42512 16.6442 2.42145 15.4618V6.53774C2.42512 5.3553 2.91489 4.22229 3.78378 3.38618C4.65268 2.55006 5.8301 2.07877 7.0589 2.07524H16.3328ZM16.3328 0.290527H7.0589C3.48816 0.290527 0.566772 3.1017 0.566772 6.53774V15.4618C0.566772 18.8978 3.48816 21.709 7.0589 21.709H16.3328C19.9035 21.709 22.8249 18.8978 22.8249 15.4618V6.53774C22.8249 3.1017 19.9035 0.290527 16.3328 0.290527Z" fill="white"/>
<path d="M17.724 6.53815C17.4488 6.53815 17.1799 6.45964 16.9511 6.31255C16.7223 6.16545 16.544 5.95638 16.4387 5.71178C16.3334 5.46717 16.3059 5.19801 16.3596 4.93834C16.4132 4.67866 16.5457 4.44014 16.7403 4.25292C16.9348 4.06571 17.1827 3.93821 17.4526 3.88656C17.7224 3.83491 18.0021 3.86142 18.2563 3.96274C18.5105 4.06406 18.7278 4.23564 18.8807 4.45578C19.0335 4.67592 19.1151 4.93473 19.1151 5.19949C19.1155 5.3754 19.0798 5.54964 19.01 5.71222C18.9402 5.87481 18.8378 6.02253 18.7085 6.14691C18.5793 6.27129 18.4258 6.36988 18.2568 6.43702C18.0878 6.50416 17.9068 6.53853 17.724 6.53815ZM11.6959 7.43027C12.4296 7.43027 13.1469 7.63964 13.757 8.03191C14.3671 8.42417 14.8426 8.98171 15.1234 9.63403C15.4041 10.2863 15.4776 11.0041 15.3345 11.6966C15.1913 12.3891 14.838 13.0252 14.3192 13.5245C13.8003 14.0237 13.1393 14.3637 12.4196 14.5015C11.7 14.6392 10.9541 14.5685 10.2762 14.2983C9.5983 14.0281 9.0189 13.5706 8.61125 12.9835C8.20361 12.3964 7.98603 11.7062 7.98603 11.0002C7.98708 10.0537 8.37828 9.14625 9.07378 8.47699C9.76929 7.80772 10.7123 7.43128 11.6959 7.43027ZM11.6959 5.64555C10.5953 5.64555 9.51948 5.9596 8.6044 6.54797C7.68931 7.13634 6.97609 7.97262 6.55493 8.95105C6.13376 9.92948 6.02356 11.0061 6.23827 12.0448C6.45298 13.0835 6.98295 14.0376 7.76117 14.7865C8.53938 15.5353 9.53089 16.0453 10.6103 16.2519C11.6897 16.4585 12.8086 16.3525 13.8253 15.9472C14.8421 15.5419 15.7112 14.8556 16.3226 13.975C16.9341 13.0945 17.2604 12.0592 17.2604 11.0002C17.2604 9.58004 16.6742 8.21807 15.6306 7.21389C14.5871 6.2097 13.1717 5.64555 11.6959 5.64555Z" fill="white"/>
</svg>
