<svg width="23" height="22" viewBox="0 0 23 22" fill="none" xmlns="http://www.w3.org/2000/svg">
<path d="M20.3064 0.125H2.15447C1.16262 0.125 0.296021 0.83867 0.296021 1.81887V20.0111C0.296021 20.9967 1.16262 21.8749 2.15447 21.8749H20.3011C21.2983 21.8749 22.046 20.9909 22.046 20.0111V1.81887C22.0518 0.83867 21.2983 0.125 20.3064 0.125ZM7.03801 18.2546H3.92214V8.56669H7.03801V18.2546ZM5.58786 7.09372H5.56552C4.56833 7.09372 3.92263 6.3514 3.92263 5.42218C3.92263 4.47596 4.58532 3.75112 5.60485 3.75112C6.62438 3.75112 7.24823 4.47062 7.27056 5.42218C7.27008 6.3514 6.62438 7.09372 5.58786 7.09372ZM18.4257 18.2546H15.3098V12.9575C15.3098 11.6884 14.8563 10.8213 13.729 10.8213C12.8678 10.8213 12.358 11.4039 12.1313 11.9714C12.0463 12.1753 12.0235 12.453 12.0235 12.7366V18.2546H8.90763V8.56669H12.0235V9.9149C12.477 9.2692 13.1853 8.33997 14.8335 8.33997C16.8789 8.33997 18.4261 9.68817 18.4261 12.5948L18.4257 18.2546Z" fill="white"/>
</svg>
