<svg width="32" height="32" viewBox="0 0 32 32" fill="none" xmlns="http://www.w3.org/2000/svg">
<path fill-rule="evenodd" clip-rule="evenodd" d="M16 2.6665C21.16 2.6665 25.3333 6.83984 25.3333 11.9998C25.3333 18.9998 16 29.3332 16 29.3332C16 29.3332 6.66666 18.9998 6.66666 11.9998C6.66666 6.83984 10.84 2.6665 16 2.6665ZM9.33332 11.9998C9.33332 15.7998 13.2267 21.6132 16 25.1732C18.8267 21.5865 22.6667 15.8398 22.6667 11.9998C22.6667 8.31984 19.68 5.33317 16 5.33317C12.32 5.33317 9.33332 8.31984 9.33332 11.9998ZM16 15.3332C14.159 15.3332 12.6667 13.8408 12.6667 11.9998C12.6667 10.1589 14.159 8.6665 16 8.6665C17.8409 8.6665 19.3333 10.1589 19.3333 11.9998C19.3333 13.8408 17.8409 15.3332 16 15.3332Z" fill="#F69322"/>
</svg>
