<svg width="146" height="90" viewBox="0 0 146 90" fill="none" xmlns="http://www.w3.org/2000/svg">
<g clip-path="url(#clip0_2_22)">
<path d="M23.8046 52.1824C23.8046 53.8241 23.3355 55.2312 22.456 56.2866C21.5765 57.4006 20.4039 58.2215 18.8795 58.7492C17.4137 59.2768 15.772 59.57 13.9544 59.57H0V30.7817H16.0065C17.355 30.7817 18.5277 31.1335 19.5244 31.8371C20.5212 32.5407 21.2834 33.4788 21.8111 34.5928C22.3388 35.7068 22.6319 36.8795 22.6319 38.1107C22.6319 39.4593 22.2801 40.7492 21.5765 41.9804C20.873 43.2117 19.8176 44.1498 18.4691 44.7361C20.1107 45.2052 21.4007 46.0847 22.3974 47.3159C23.3355 48.6645 23.8046 50.2475 23.8046 52.1824ZM6.68404 36.469V42.4495H13.1922C13.6612 42.4495 14.1303 42.3322 14.5407 42.0977C14.9511 41.8632 15.3029 41.57 15.5961 41.101C15.8893 40.6319 16.0065 40.1042 16.0065 39.4006C16.0065 38.7557 15.8893 38.228 15.6547 37.7589C15.4202 37.3485 15.127 36.9967 14.7166 36.7622C14.3648 36.5277 13.8958 36.4104 13.4267 36.4104H6.68404V36.469ZM17.0619 50.8925C17.0619 50.2475 16.9446 49.7198 16.7101 49.2508C16.4756 48.7817 16.1238 48.3713 15.772 48.1368C15.3616 47.8436 14.8925 47.7264 14.3648 47.7264H6.68404V53.9413H14.0717C14.658 53.9413 15.127 53.8241 15.5961 53.5309C16.0651 53.2378 16.4169 52.886 16.6515 52.4169C16.886 52.0065 17.0619 51.4788 17.0619 50.8925Z" fill="#2580C0"/>
<path d="M49.6613 36.6449H40.8665V59.6286H34.2411V36.6449H25.4463V30.7817H49.6613V36.6449Z" fill="#F69322"/>
<path d="M59.5115 44.9121C59.5115 43.1532 59.8633 41.4529 60.5082 39.7525C61.1532 38.0522 62.0913 36.5278 63.3225 35.1206C64.5538 33.7134 66.0783 32.6581 67.8958 31.8372C69.6548 31.0164 71.7069 30.606 73.9936 30.606C76.6906 30.606 79.0359 31.1923 81.0294 32.3649C83.0229 33.5376 84.4887 35.062 85.4854 36.9382L80.3258 40.4561C79.9154 39.4007 79.3291 38.6385 78.6255 38.0522C77.9219 37.4659 77.1011 37.1141 76.2802 36.8796C75.4007 36.645 74.5799 36.5278 73.8177 36.5278C72.5278 36.5278 71.4138 36.7623 70.4756 37.29C69.5375 37.8177 68.7167 38.4626 68.1304 39.2835C67.4854 40.1043 67.075 41.0424 66.7232 42.0978C66.43 43.1532 66.2541 44.1499 66.2541 45.2053C66.2541 46.3193 66.43 47.4333 66.7818 48.4887C67.1336 49.5441 67.6613 50.4822 68.3063 51.303C68.9512 52.1239 69.7721 52.7688 70.7102 53.2379C71.6483 53.7069 72.7037 53.9415 73.8177 53.9415C74.6385 53.9415 75.4594 53.8242 76.2802 53.531C77.1011 53.2379 77.9219 52.8275 78.6255 52.2411C79.3291 51.6548 79.9154 50.8926 80.2672 49.9545L85.7199 53.1792C85.1336 54.5864 84.1955 55.8177 82.9056 56.8144C81.6157 57.8112 80.1499 58.5734 78.5082 59.1011C76.8665 59.6288 75.2248 59.9219 73.6418 59.9219C71.531 59.9219 69.6548 59.5115 67.8958 58.632C66.1369 57.7525 64.6711 56.6385 63.3812 55.2314C62.1499 53.8242 61.1532 52.2411 60.4496 50.4235C59.8633 48.5473 59.5115 46.7297 59.5115 44.9121Z" fill="#5F2C7F"/>
<path d="M89.1206 59.57V30.7817H102.137C103.485 30.7817 104.717 31.0749 105.889 31.6026C107.062 32.1303 108.059 32.8925 108.88 33.8306C109.7 34.7687 110.345 35.8241 110.873 36.9967C111.401 38.1694 111.577 39.342 111.577 40.5146C111.577 41.6873 111.401 42.8599 110.99 43.9153C110.639 44.9707 110.052 45.9674 109.349 46.7883C108.645 47.6091 107.824 48.3127 106.827 48.899L113.16 59.6286H105.831L100.261 50.3062H95.746V59.6286H89.1206V59.57ZM95.746 44.5016H101.844C102.371 44.5016 102.84 44.3257 103.31 43.9739C103.72 43.6221 104.072 43.1531 104.365 42.5668C104.658 41.9804 104.775 41.2769 104.775 40.5146C104.775 39.7524 104.599 39.0488 104.306 38.4625C104.013 37.8762 103.603 37.4071 103.134 37.114C102.665 36.7622 102.196 36.6449 101.668 36.6449H95.8046V44.5016H95.746Z" fill="#5F2C7F"/>
<path d="M139.016 59.57V42.4495L132.801 54.9381H129.166L122.951 42.4495V59.6286H116.267V30.7817H123.479L130.925 45.8501L138.43 30.7817H145.642V59.6286H139.016V59.57Z" fill="#5F2C7F"/>
<path d="M103.075 20.8143L102.723 20.3453C95.3942 11.4332 84.4886 6.27362 72.8795 6.27362C61.2704 6.27362 50.3649 11.3746 43.0359 20.3453L42.6841 20.8143H34.8274L36.1759 18.8795C44.6189 7.03583 58.2802 0 72.8209 0C87.3616 0 101.081 7.03583 109.466 18.8795L110.814 20.8143H103.075Z" fill="url(#paint0_linear_2_22)"/>
<path d="M72.8209 89.9999C58.2802 89.9999 44.5603 82.9641 36.1759 71.1204L34.8274 69.1855H42.6254L42.9772 69.6546C50.3062 78.5667 61.2118 83.7263 72.8209 83.7263C84.43 83.7263 95.3355 78.6253 102.665 69.6546L103.016 69.1855H110.814L109.466 71.1204C101.081 82.9641 87.4202 89.9999 72.8209 89.9999Z" fill="url(#paint1_linear_2_22)"/>
</g>
<defs>
<linearGradient id="paint0_linear_2_22" x1="50.8772" y1="30.7821" x2="97.177" y2="3.71762" gradientUnits="userSpaceOnUse">
<stop stop-color="#F9D015"/>
<stop offset="1" stop-color="#F38622"/>
</linearGradient>
<linearGradient id="paint1_linear_2_22" x1="102.805" y1="75.3591" x2="47.4525" y2="80.2846" gradientUnits="userSpaceOnUse">
<stop offset="0.026455" stop-color="#1768A2"/>
<stop offset="0.2533" stop-color="#186AA4"/>
<stop offset="0.4408" stop-color="#1B6FA9"/>
<stop offset="0.6144" stop-color="#2178B1"/>
<stop offset="0.7795" stop-color="#2786BE"/>
<stop offset="0.9372" stop-color="#2E9AD1"/>
<stop offset="1" stop-color="#30A4DC"/>
</linearGradient>
<clipPath id="clip0_2_22">
<rect width="145.7" height="90" fill="white"/>
</clipPath>
</defs>
</svg>
