<svg width="98" height="60" viewBox="0 0 98 60" fill="none" xmlns="http://www.w3.org/2000/svg">
<g clip-path="url(#clip0_2_23)">
<path d="M16.3031 34.7881C16.3031 35.8826 15.9904 36.8207 15.404 37.5243C14.8177 38.2669 14.036 38.8142 13.0197 39.1659C12.0425 39.5177 10.948 39.7132 9.73628 39.7132H0.43335V20.521H11.1044C12.0034 20.521 12.7851 20.7555 13.4496 21.2246C14.1141 21.6936 14.6223 22.319 14.9741 23.0617C15.3259 23.8044 15.5213 24.5861 15.5213 25.407C15.5213 26.306 15.2868 27.1659 14.8177 27.9868C14.3487 28.8076 13.6451 29.433 12.7461 29.8239C13.8405 30.1366 14.7005 30.7229 15.3649 31.5438C15.9904 32.4428 16.3031 33.4982 16.3031 34.7881ZM4.88938 24.3125V28.2995H9.22814C9.54084 28.2995 9.85355 28.2213 10.1272 28.065C10.4008 27.9086 10.6353 27.7132 10.8307 27.4005C11.0262 27.0878 11.1044 26.736 11.1044 26.2669C11.1044 25.837 11.0262 25.4852 10.8698 25.1725C10.7135 24.8988 10.518 24.6643 10.2444 24.508C10.0099 24.3516 9.69719 24.2734 9.38449 24.2734H4.88938V24.3125ZM11.8079 33.9282C11.8079 33.4982 11.7298 33.1464 11.5734 32.8337C11.4171 32.521 11.1825 32.2474 10.948 32.091C10.6744 31.8956 10.3617 31.8174 10.0099 31.8174H4.88938V35.9607H9.81446C10.2053 35.9607 10.518 35.8826 10.8307 35.6871C11.1434 35.4917 11.378 35.2572 11.5343 34.9444C11.6907 34.6708 11.8079 34.319 11.8079 33.9282Z" fill="white"/>
<path d="M33.5408 24.4298H27.6776V39.7523H23.2607V24.4298H17.3975V20.521H33.5408V24.4298Z" fill="white"/>
<path d="M40.1077 29.9413C40.1077 28.7686 40.3422 27.6351 40.7722 26.5015C41.2021 25.368 41.8275 24.3517 42.6484 23.4136C43.4692 22.4755 44.4855 21.7719 45.6972 21.2247C46.8699 20.6774 48.238 20.4038 49.7624 20.4038C51.5604 20.4038 53.124 20.7947 54.4529 21.5764C55.7819 22.3582 56.7591 23.3745 57.4236 24.6253L53.9839 26.9706C53.7103 26.267 53.3194 25.7589 52.8503 25.368C52.3813 24.9771 51.8341 24.7426 51.2868 24.5862C50.7005 24.4299 50.1533 24.3517 49.6451 24.3517C48.7852 24.3517 48.0425 24.508 47.4171 24.8598C46.7917 25.2116 46.2445 25.6416 45.8536 26.1888C45.4236 26.7361 45.15 27.3615 44.9155 28.065C44.72 28.7686 44.6028 29.4331 44.6028 30.1367C44.6028 30.8794 44.72 31.622 44.9546 32.3256C45.1891 33.0292 45.5409 33.6546 45.9709 34.2019C46.4008 34.7491 46.9481 35.1791 47.5735 35.4918C48.1989 35.8045 48.9025 35.9608 49.6451 35.9608C50.1924 35.9608 50.7396 35.8826 51.2868 35.6872C51.8341 35.4918 52.3813 35.2181 52.8503 34.8273C53.3194 34.4364 53.7103 33.9282 53.9448 33.3028L57.58 35.4527C57.1891 36.3908 56.5637 37.2116 55.7038 37.8761C54.8438 38.5406 53.8666 39.0488 52.7722 39.4006C51.6777 39.7523 50.5832 39.9478 49.5279 39.9478C48.1207 39.9478 46.8699 39.6742 45.6972 39.0878C44.5246 38.5015 43.5474 37.7589 42.6875 36.8207C41.8666 35.8826 41.2021 34.8273 40.7331 33.6155C40.3422 32.3647 40.1077 31.153 40.1077 29.9413Z" fill="white"/>
<path d="M59.8469 39.7132V20.521H68.5244C69.4235 20.521 70.2443 20.7164 71.0261 21.0682C71.8078 21.42 72.4723 21.9282 73.0196 22.5536C73.5668 23.179 73.9968 23.8826 74.3486 24.6643C74.7003 25.4461 74.8176 26.2278 74.8176 27.0096C74.8176 27.7914 74.7003 28.5731 74.4267 29.2767C74.1922 29.9803 73.8013 30.6448 73.3323 31.192C72.8632 31.7392 72.316 32.2083 71.6515 32.5992L75.873 39.7523H70.987L67.2736 33.5373H64.2639V39.7523H59.8469V39.7132ZM64.2639 29.6676H68.329C68.6808 29.6676 68.9935 29.5503 69.3062 29.3158C69.5798 29.0813 69.8144 28.7686 70.0098 28.3777C70.2052 27.9868 70.2834 27.5177 70.2834 27.0096C70.2834 26.5015 70.1661 26.0324 69.9707 25.6415C69.7753 25.2506 69.5016 24.9379 69.1889 24.7425C68.8762 24.508 68.5635 24.4298 68.2117 24.4298H64.3029V29.6676H64.2639Z" fill="white"/>
<path d="M93.1109 39.7132V28.2995L88.9676 36.6252H86.5442L82.4008 28.2995V39.7523H77.9448V20.521H82.7526L87.7168 30.5666L92.7201 20.521H97.5279V39.7523H93.1109V39.7132Z" fill="white"/>
<path d="M69.15 13.8762L68.9155 13.5635C64.0295 7.62215 56.7591 4.18241 49.0197 4.18241C41.2803 4.18241 34.0099 7.58306 29.1239 13.5635L28.8894 13.8762H23.6516L24.5506 12.5863C30.1793 4.69055 39.2868 0 48.9806 0C58.6744 0 67.821 4.69055 73.4106 12.5863L74.3096 13.8762H69.15Z" fill="white"/>
<path d="M48.9806 60C39.2868 60 30.1402 55.3094 24.5506 47.4137L23.6516 46.1238H28.8503L29.0848 46.4365C33.9708 52.3779 41.2412 55.8176 48.9806 55.8176C56.72 55.8176 63.9904 52.4169 68.8764 46.4365L69.1109 46.1238H74.3096L73.4106 47.4137C67.821 55.3094 58.7135 60 48.9806 60Z" fill="white"/>
</g>
<defs>
<clipPath id="clip0_2_23">
<rect width="97.1335" height="60" fill="white" transform="translate(0.43335)"/>
</clipPath>
</defs>
</svg>
