<svg width="64" height="64" viewBox="0 0 64 64" fill="none" xmlns="http://www.w3.org/2000/svg">
<circle cx="41.8846" cy="42.3843" r="21.5" fill="url(#paint0_linear_18_222)"/>
<path d="M27.3846 40.2593C34.2192 40.2593 39.7596 34.7188 39.7596 27.8843C39.7596 21.0498 34.2192 15.5093 27.3846 15.5093C20.5501 15.5093 15.0096 21.0498 15.0096 27.8843C15.0096 34.7188 20.5501 40.2593 27.3846 40.2593Z" stroke="#393939" stroke-width="3" stroke-linecap="round" stroke-linejoin="round"/>
<path d="M41.7445 11.668C42.3977 12.2695 43.0164 12.8883 43.6008 13.5242L50.6391 14.5297C51.7859 16.5213 52.6698 18.6531 53.2687 20.8719L48.9891 26.5695C48.9891 26.5695 49.0664 28.3227 48.9891 29.1992L53.2687 34.8969C52.6726 37.1166 51.7885 39.2487 50.6391 41.2391L43.6008 42.2445C43.6008 42.2445 42.3891 43.5078 41.7445 44.1008L40.7391 51.1391C38.7474 52.2859 36.6156 53.1698 34.3969 53.7687L28.6992 49.4891C27.8244 49.5664 26.9444 49.5664 26.0695 49.4891L20.3719 53.7687C18.1522 53.1726 16.02 52.2885 14.0297 51.1391L13.0242 44.1008C12.3883 43.4992 11.7695 42.8805 11.168 42.2445L4.12969 41.2391C2.98289 39.2474 2.09897 37.1156 1.5 34.8969L5.77969 29.1992C5.77969 29.1992 5.70234 27.4461 5.77969 26.5695L1.5 20.8719C2.0962 18.6522 2.98026 16.52 4.12969 14.5297L11.168 13.5242C11.7695 12.8883 12.3883 12.2695 13.0242 11.668L14.0297 4.62969C16.0213 3.48289 18.1531 2.59897 20.3719 2L26.0695 6.27969C26.9444 6.20233 27.8244 6.20233 28.6992 6.27969L34.3969 2C36.6166 2.5962 38.7487 3.48026 40.7391 4.62969L41.7445 11.668Z" stroke="#393939" stroke-width="3" stroke-linecap="round" stroke-linejoin="round"/>
<defs>
<linearGradient id="paint0_linear_18_222" x1="20.3846" y1="42.3843" x2="63.3846" y2="42.3843" gradientUnits="userSpaceOnUse">
<stop stop-color="#00D9F5"/>
<stop offset="1" stop-color="#00F5A0"/>
</linearGradient>
</defs>
</svg>
