<svg width="528" height="528" viewBox="0 0 528 528" fill="none" xmlns="http://www.w3.org/2000/svg">
<g id="3">
<g id="Background" filter="url(#filter0_bdi_1_517)">
<rect x="106.31" y="107.193" width="313.536" height="314.392" rx="34.3016" transform="rotate(-0.247747 106.31 107.193)" fill="url(#paint0_linear_1_517)" fill-opacity="0.93" shape-rendering="crispEdges"/>
</g>
<g id="Content">
<g id="4173037_2185110 1" clip-path="url(#clip0_1_517)">
<g id="Group">
<g id="Vector" style="mix-blend-mode:multiply" opacity="0.83">
<path d="M328.42 234.987C311.81 217.849 288.717 207.16 263.004 206.813C237.292 206.466 213.87 216.609 196.756 233.243C179.643 249.877 168.968 273.132 168.622 298.882C168.276 324.631 178.403 348.087 195.013 365.224C211.624 382.362 234.846 393.052 260.558 393.398C286.27 393.745 309.693 383.602 326.806 366.968C343.919 350.334 354.594 327.079 354.94 301.33C355.158 275.58 345.159 252.124 328.42 234.987Z" fill="url(#paint1_radial_1_517)"/>
</g>
<g id="lft-bottom">
<path id="Vector_2" d="M157.937 287.07C157.587 313.984 168.228 338.606 185.611 356.393C202.994 374.309 227.248 385.521 254.123 385.871L255.361 288.308L157.937 287.07Z" fill="#FCC103"/>
</g>
<path id="Vector_3" d="M196.183 287.589C195.998 303.892 202.408 318.795 212.966 329.701C223.525 340.606 238.232 347.385 254.512 347.57L255.232 288.308L196.183 287.589Z" fill="#F97F06"/>
<g id="lft-top">
<path id="Vector_4" d="M180.549 211.578C160.973 230.662 148.606 257.405 148.247 287.037L255.36 288.438L256.761 181.17C227.172 180.681 200.256 192.365 180.549 211.578Z" fill="#35BAE9"/>
</g>
<path id="Vector_5" d="M214.157 245.983C203.267 256.557 196.497 271.285 196.183 287.589L255.361 288.308L256.08 229.046C239.799 228.99 224.918 235.409 214.157 245.983Z" fill="#1891B2"/>
<g id="right-top">
<path id="Vector_6" d="M343.39 202.559C321.501 179.968 290.925 165.889 256.944 165.385L255.36 288.438L378.238 290.022C378.612 255.991 365.279 225.149 343.39 202.559Z" fill="#42DABF"/>
</g>
<path id="Vector_7" d="M297.755 247.045C287.196 236.14 272.489 229.361 256.209 229.176L255.49 288.438L314.667 289.158C314.723 272.854 308.313 257.951 297.755 247.045Z" fill="#1AA086"/>
<g id="right-bottom">
<path id="Vector_8" d="M255.36 288.438L254.285 376.167C278.447 376.508 300.446 367.008 316.522 351.276C332.599 335.544 342.622 313.839 342.964 289.513L255.36 288.438Z" fill="#F9327A"/>
</g>
<path id="Vector_9" opacity="0.08" d="M242.415 181.898L241.147 288.26L255.49 288.438L256.89 181.171C251.851 181.024 247.198 181.267 242.415 181.898Z" fill="url(#paint2_linear_1_517)"/>
<path id="Vector_10" opacity="0.08" d="M255.199 297.883L255.361 288.308L157.938 287.07C157.926 290.305 158.045 293.411 158.292 296.647L255.199 297.883Z" fill="url(#paint3_linear_1_517)"/>
<path id="Vector_11" d="M255.36 288.438L254.641 347.7C270.921 347.885 285.803 341.466 296.693 330.893C307.583 320.319 314.353 305.591 314.538 289.287L255.36 288.438Z" fill="#CE2469"/>
<path id="Vector_12" opacity="0.08" d="M272.158 288.624L255.36 288.438L254.285 376.167C260.1 376.187 265.658 375.688 271.088 374.801L272.158 288.624Z" fill="url(#paint4_linear_1_517)"/>
<path id="Vector_13" opacity="0.08" d="M255.544 272.522L255.36 288.438L378.238 290.022C378.256 284.587 378.016 279.281 377.388 274.103L255.544 272.522Z" fill="url(#paint5_linear_1_517)"/>
<g id="Vector_14" style="mix-blend-mode:multiply" opacity="0.83">
<path d="M294.582 267.997C286.985 260.207 276.535 255.384 264.777 255.214C253.019 255.045 242.408 259.667 234.629 267.275C226.85 274.883 222.034 285.348 221.864 297.123C221.695 308.897 226.31 319.524 233.907 327.314C241.504 335.104 251.954 339.927 263.712 340.097C275.47 340.266 286.081 335.644 293.86 328.036C301.639 320.428 306.456 309.963 306.625 298.188C306.795 286.414 302.179 275.787 294.582 267.997Z" fill="url(#paint6_radial_1_517)"/>
</g>
<path id="Vector_15" d="M285.698 258.78C278.101 250.99 267.651 246.166 255.893 245.997C244.135 245.827 233.524 250.449 225.745 258.057C217.966 265.665 213.149 276.13 212.98 287.905C212.811 299.68 217.426 310.306 225.023 318.096C232.62 325.886 243.07 330.709 254.828 330.879C266.586 331.048 277.197 326.426 284.976 318.818C292.755 311.21 297.571 300.745 297.741 288.971C297.91 277.196 293.295 266.569 285.698 258.78Z" fill="white"/>
<path id="75%" d="M302.1 232.58L305.664 224.848L301.018 224.832L301.024 223.157L307.783 223.18L307.778 224.43L304.187 232.587L302.1 232.58ZM312.165 226.597C312.741 226.599 313.252 226.71 313.698 226.931C314.148 227.151 314.501 227.475 314.758 227.901C315.014 228.327 315.141 228.851 315.139 229.474C315.136 230.153 314.993 230.739 314.708 231.232C314.427 231.72 314.007 232.095 313.447 232.355C312.892 232.615 312.2 232.744 311.371 232.741C310.877 232.739 310.411 232.695 309.973 232.607C309.54 232.524 309.16 232.396 308.834 232.223L308.84 230.503C309.166 230.676 309.556 230.823 310.011 230.945C310.471 231.063 310.902 231.122 311.306 231.123C311.701 231.125 312.034 231.074 312.305 230.972C312.576 230.866 312.781 230.703 312.919 230.485C313.061 230.262 313.133 229.978 313.134 229.635C313.136 229.175 312.983 228.822 312.674 228.577C312.366 228.331 311.891 228.207 311.251 228.204C311.007 228.204 310.751 228.226 310.484 228.273C310.222 228.319 310.003 228.366 309.827 228.412L309.036 227.984L309.406 223.185L314.516 223.203L314.51 224.891L311.147 224.879L310.966 226.728C311.113 226.698 311.272 226.669 311.444 226.639C311.616 226.61 311.856 226.596 312.165 226.597ZM318.402 223.081C319.14 223.083 319.7 223.343 320.081 223.86C320.461 224.376 320.65 225.101 320.647 226.033C320.644 226.965 320.461 227.692 320.098 228.215C319.735 228.738 319.163 228.998 318.381 228.996C317.655 228.993 317.104 228.729 316.728 228.204C316.352 227.678 316.165 226.95 316.169 226.018C316.172 225.085 316.35 224.362 316.704 223.848C317.063 223.334 317.628 223.078 318.402 223.081ZM318.41 224.427C318.199 224.427 318.044 224.559 317.945 224.825C317.845 225.091 317.794 225.495 317.792 226.036C317.79 226.577 317.838 226.983 317.936 227.254C318.034 227.525 318.188 227.661 318.399 227.662C318.609 227.663 318.764 227.53 318.864 227.264C318.968 226.994 319.021 226.586 319.023 226.04C319.025 225.499 318.975 225.095 318.872 224.828C318.775 224.562 318.62 224.428 318.41 224.427ZM325.089 223.239L319.832 232.641L318.285 232.636L323.543 223.233L325.089 223.239ZM324.987 226.866C325.725 226.869 326.285 227.128 326.666 227.645C327.046 228.162 327.235 228.886 327.232 229.818C327.229 230.746 327.046 231.471 326.683 231.994C326.32 232.517 325.748 232.777 324.966 232.774C324.241 232.772 323.689 232.508 323.313 231.983C322.937 231.457 322.75 230.731 322.754 229.803C322.757 228.871 322.935 228.148 323.289 227.633C323.648 227.119 324.213 226.863 324.987 226.866ZM324.995 228.213C324.784 228.212 324.629 228.345 324.53 228.611C324.43 228.877 324.379 229.28 324.377 229.821C324.375 230.363 324.423 230.769 324.521 231.04C324.619 231.311 324.773 231.446 324.984 231.447C325.194 231.448 325.349 231.315 325.449 231.049C325.553 230.779 325.606 230.371 325.608 229.826C325.61 229.284 325.56 228.88 325.457 228.614C325.36 228.347 325.205 228.213 324.995 228.213Z" fill="#1AA086"/>
<path id="20%" d="M196.017 343.689L191.646 343.674L191.649 342.755L193.224 341.173C193.542 340.849 193.797 340.579 193.988 340.363C194.183 340.144 194.323 339.945 194.41 339.766C194.499 339.586 194.543 339.394 194.544 339.189C194.545 338.941 194.476 338.755 194.336 338.632C194.2 338.506 194.016 338.443 193.785 338.442C193.543 338.441 193.307 338.496 193.079 338.606C192.85 338.717 192.612 338.874 192.363 339.079L191.647 338.225C191.827 338.072 192.018 337.927 192.218 337.791C192.421 337.655 192.655 337.546 192.92 337.464C193.189 337.379 193.51 337.337 193.883 337.339C194.294 337.34 194.646 337.415 194.939 337.565C195.235 337.714 195.462 337.917 195.621 338.174C195.78 338.429 195.859 338.717 195.858 339.039C195.857 339.384 195.787 339.699 195.649 339.984C195.511 340.269 195.311 340.55 195.048 340.829C194.787 341.107 194.472 341.416 194.103 341.754L193.297 342.508L193.296 342.568L196.021 342.577L196.017 343.689ZM201.007 340.58C201.005 341.084 200.964 341.535 200.882 341.931C200.804 342.327 200.677 342.663 200.503 342.939C200.331 343.215 200.105 343.425 199.825 343.57C199.545 343.714 199.205 343.786 198.806 343.784C198.304 343.783 197.892 343.654 197.571 343.4C197.25 343.142 197.013 342.773 196.86 342.294C196.708 341.811 196.633 341.235 196.635 340.565C196.638 339.889 196.709 339.312 196.851 338.833C196.995 338.352 197.227 337.983 197.548 337.728C197.868 337.472 198.295 337.345 198.828 337.347C199.327 337.349 199.737 337.478 200.058 337.736C200.383 337.991 200.622 338.36 200.777 338.842C200.933 339.322 201.009 339.901 201.007 340.58ZM197.948 340.569C197.947 341.045 197.971 341.443 198.021 341.763C198.075 342.08 198.164 342.318 198.288 342.478C198.413 342.638 198.587 342.719 198.809 342.719C199.029 342.72 199.202 342.642 199.328 342.486C199.457 342.327 199.549 342.089 199.604 341.773C199.659 341.453 199.688 341.054 199.689 340.575C199.691 340.099 199.665 339.701 199.612 339.382C199.559 339.062 199.469 338.822 199.341 338.662C199.216 338.499 199.044 338.417 198.824 338.416C198.602 338.416 198.428 338.496 198.301 338.658C198.175 338.818 198.085 339.057 198.03 339.376C197.977 339.695 197.95 340.093 197.948 340.569ZM203.088 337.37C203.579 337.372 203.95 337.544 204.203 337.887C204.455 338.23 204.581 338.711 204.578 339.33C204.576 339.949 204.455 340.432 204.214 340.779C203.973 341.126 203.594 341.299 203.075 341.297C202.593 341.295 202.227 341.12 201.977 340.771C201.727 340.422 201.604 339.939 201.606 339.32C201.608 338.701 201.726 338.221 201.961 337.88C202.199 337.538 202.575 337.368 203.088 337.37ZM203.094 338.264C202.954 338.264 202.851 338.352 202.785 338.528C202.718 338.705 202.685 338.973 202.684 339.332C202.682 339.691 202.714 339.961 202.779 340.141C202.844 340.321 202.946 340.411 203.086 340.411C203.226 340.412 203.329 340.324 203.395 340.147C203.464 339.968 203.499 339.697 203.501 339.335C203.502 338.976 203.468 338.707 203.401 338.53C203.336 338.353 203.233 338.265 203.094 338.264ZM207.528 337.475L204.037 343.717L203.011 343.713L206.501 337.472L207.528 337.475ZM207.46 339.883C207.95 339.885 208.322 340.057 208.574 340.4C208.827 340.743 208.952 341.224 208.95 341.843C208.948 342.459 208.826 342.94 208.586 343.287C208.345 343.635 207.965 343.807 207.446 343.805C206.964 343.804 206.598 343.629 206.349 343.28C206.099 342.931 205.975 342.449 205.977 341.833C205.979 341.214 206.098 340.734 206.333 340.393C206.571 340.051 206.946 339.881 207.46 339.883ZM207.465 340.777C207.325 340.777 207.222 340.865 207.156 341.041C207.09 341.218 207.056 341.486 207.055 341.845C207.054 342.204 207.086 342.474 207.151 342.654C207.216 342.834 207.318 342.924 207.458 342.924C207.597 342.925 207.7 342.837 207.767 342.66C207.836 342.481 207.871 342.21 207.872 341.848C207.873 341.489 207.84 341.22 207.772 341.043C207.707 340.866 207.605 340.778 207.465 340.777Z" fill="#F97F06"/>
<path id="5%" d="M296.069 340.614C296.436 340.615 296.762 340.686 297.047 340.827C297.334 340.967 297.559 341.174 297.723 341.446C297.886 341.718 297.967 342.052 297.966 342.45C297.965 342.883 297.873 343.256 297.691 343.571C297.512 343.883 297.244 344.121 296.887 344.287C296.533 344.453 296.091 344.535 295.562 344.534C295.247 344.533 294.95 344.504 294.671 344.448C294.394 344.395 294.152 344.314 293.944 344.203L293.948 343.106C294.155 343.216 294.404 343.31 294.695 343.388C294.988 343.463 295.263 343.501 295.521 343.502C295.773 343.503 295.985 343.47 296.158 343.405C296.331 343.337 296.462 343.234 296.55 343.094C296.641 342.952 296.686 342.771 296.687 342.552C296.688 342.259 296.59 342.034 296.394 341.877C296.197 341.72 295.894 341.641 295.486 341.639C295.33 341.639 295.167 341.653 294.997 341.683C294.829 341.713 294.689 341.742 294.577 341.772L294.072 341.499L294.309 338.437L297.569 338.448L297.565 339.525L295.419 339.518L295.304 340.697C295.397 340.679 295.499 340.66 295.608 340.641C295.718 340.622 295.872 340.613 296.069 340.614ZM300.048 338.371C300.519 338.372 300.876 338.538 301.119 338.867C301.362 339.197 301.482 339.659 301.48 340.254C301.478 340.849 301.361 341.313 301.13 341.646C300.899 341.98 300.534 342.146 300.035 342.144C299.572 342.143 299.22 341.974 298.98 341.639C298.74 341.304 298.621 340.839 298.623 340.244C298.625 339.65 298.739 339.188 298.965 338.86C299.193 338.532 299.554 338.369 300.048 338.371ZM300.053 339.23C299.919 339.229 299.82 339.314 299.756 339.484C299.692 339.653 299.66 339.911 299.659 340.256C299.658 340.601 299.688 340.86 299.751 341.033C299.813 341.206 299.912 341.293 300.046 341.293C300.18 341.294 300.279 341.209 300.343 341.039C300.409 340.867 300.443 340.607 300.444 340.259C300.445 339.913 300.413 339.656 300.348 339.486C300.286 339.315 300.187 339.23 300.053 339.23ZM304.314 338.471L300.96 344.47L299.973 344.467L303.328 338.468L304.314 338.471ZM304.249 340.786C304.72 340.787 305.077 340.953 305.32 341.283C305.563 341.612 305.683 342.074 305.681 342.669C305.679 343.261 305.562 343.724 305.331 344.057C305.1 344.391 304.735 344.557 304.236 344.555C303.773 344.554 303.421 344.385 303.181 344.05C302.941 343.715 302.822 343.251 302.824 342.659C302.826 342.065 302.94 341.603 303.166 341.275C303.395 340.947 303.756 340.784 304.249 340.786ZM304.254 341.645C304.12 341.644 304.021 341.729 303.957 341.899C303.894 342.068 303.861 342.326 303.86 342.671C303.859 343.016 303.89 343.275 303.952 343.448C304.014 343.621 304.113 343.708 304.247 343.708C304.381 343.709 304.48 343.624 304.544 343.454C304.61 343.282 304.644 343.022 304.645 342.674C304.646 342.328 304.614 342.071 304.549 341.901C304.487 341.73 304.388 341.645 304.254 341.645Z" fill="#CE2469"/>
<path id="50%" d="M191.526 226.76C192.032 226.762 192.481 226.859 192.873 227.053C193.269 227.247 193.58 227.532 193.805 227.906C194.03 228.281 194.142 228.742 194.14 229.29C194.138 229.887 194.012 230.402 193.761 230.835C193.514 231.265 193.145 231.594 192.653 231.823C192.165 232.052 191.556 232.165 190.827 232.162C190.393 232.161 189.983 232.122 189.598 232.045C189.217 231.972 188.883 231.859 188.597 231.707L188.602 230.194C188.888 230.347 189.232 230.476 189.632 230.583C190.035 230.687 190.415 230.739 190.77 230.74C191.117 230.741 191.41 230.697 191.648 230.607C191.887 230.514 192.067 230.371 192.188 230.178C192.313 229.982 192.377 229.733 192.378 229.431C192.379 229.027 192.244 228.717 191.973 228.501C191.702 228.284 191.285 228.175 190.722 228.173C190.507 228.173 190.282 228.193 190.048 228.233C189.817 228.274 189.624 228.315 189.469 228.356L188.774 227.98L189.1 223.76L193.592 223.776L193.587 225.26L190.63 225.25L190.471 226.875C190.6 226.849 190.74 226.823 190.891 226.797C191.042 226.771 191.254 226.759 191.526 226.76ZM200.892 227.942C200.89 228.61 200.835 229.207 200.728 229.732C200.624 230.256 200.456 230.701 200.224 231.067C199.997 231.433 199.697 231.711 199.326 231.902C198.956 232.094 198.506 232.189 197.977 232.187C197.312 232.184 196.767 232.015 196.342 231.677C195.916 231.336 195.602 230.847 195.4 230.212C195.199 229.573 195.099 228.81 195.102 227.922C195.105 227.027 195.2 226.262 195.388 225.629C195.579 224.991 195.886 224.503 196.311 224.164C196.735 223.826 197.3 223.658 198.006 223.66C198.667 223.663 199.21 223.834 199.636 224.176C200.066 224.513 200.383 225.002 200.589 225.641C200.794 226.276 200.895 227.043 200.892 227.942ZM196.842 227.928C196.839 228.559 196.872 229.086 196.938 229.509C197.008 229.929 197.126 230.244 197.292 230.456C197.457 230.669 197.687 230.775 197.982 230.776C198.273 230.777 198.502 230.674 198.668 230.467C198.839 230.256 198.961 229.941 199.034 229.522C199.108 229.099 199.145 228.57 199.147 227.936C199.15 227.305 199.115 226.778 199.045 226.355C198.975 225.932 198.855 225.614 198.686 225.402C198.52 225.186 198.292 225.078 198.001 225.077C197.707 225.076 197.476 225.182 197.309 225.397C197.142 225.608 197.022 225.925 196.949 226.348C196.879 226.771 196.844 227.297 196.842 227.928ZM203.649 223.691C204.299 223.693 204.791 223.921 205.125 224.376C205.46 224.83 205.626 225.467 205.623 226.287C205.62 227.106 205.459 227.746 205.141 228.206C204.822 228.665 204.319 228.894 203.631 228.892C202.993 228.89 202.508 228.658 202.178 228.196C201.847 227.734 201.683 227.093 201.686 226.273C201.688 225.454 201.845 224.818 202.157 224.366C202.472 223.913 202.969 223.689 203.649 223.691ZM203.656 224.875C203.471 224.874 203.335 224.991 203.247 225.225C203.159 225.459 203.115 225.814 203.113 226.29C203.112 226.765 203.154 227.122 203.24 227.361C203.326 227.599 203.461 227.718 203.647 227.719C203.832 227.72 203.968 227.603 204.056 227.369C204.147 227.132 204.194 226.773 204.195 226.293C204.197 225.817 204.153 225.462 204.063 225.228C203.977 224.993 203.841 224.876 203.656 224.875ZM209.529 223.83L204.906 232.097L203.547 232.092L208.17 223.825L209.529 223.83ZM209.439 227.019C210.089 227.022 210.581 227.25 210.915 227.704C211.25 228.159 211.416 228.796 211.413 229.615C211.41 230.431 211.25 231.069 210.931 231.528C210.612 231.988 210.109 232.217 209.421 232.215C208.783 232.212 208.298 231.98 207.968 231.518C207.637 231.056 207.473 230.418 207.476 229.602C207.478 228.782 207.635 228.146 207.947 227.694C208.262 227.242 208.759 227.017 209.439 227.019ZM209.446 228.203C209.261 228.203 209.125 228.319 209.037 228.553C208.95 228.787 208.905 229.142 208.903 229.618C208.902 230.094 208.944 230.451 209.03 230.689C209.116 230.927 209.252 231.047 209.437 231.047C209.622 231.048 209.758 230.931 209.846 230.698C209.937 230.46 209.984 230.101 209.985 229.622C209.987 229.146 209.943 228.791 209.853 228.556C209.767 228.322 209.631 228.204 209.446 228.203Z" fill="#1891B2"/>
<g id="Group_2">
<path id="DATA" d="M267.605 183.262C267.603 183.757 267.506 184.171 267.315 184.504C267.125 184.834 266.85 185.083 266.491 185.25C266.131 185.415 265.699 185.497 265.193 185.495L263.948 185.491L263.963 181.092L265.344 181.097C265.805 181.099 266.205 181.182 266.543 181.348C266.881 181.512 267.143 181.754 267.329 182.076C267.514 182.395 267.606 182.791 267.605 183.262ZM266.636 183.283C266.637 182.958 266.59 182.691 266.494 182.482C266.401 182.271 266.261 182.115 266.074 182.014C265.89 181.913 265.662 181.862 265.389 181.862L264.893 181.86L264.883 184.724L265.283 184.725C265.738 184.727 266.077 184.607 266.298 184.365C266.522 184.123 266.634 183.762 266.636 183.283ZM271.201 185.516L270.886 184.468L269.282 184.462L268.96 185.508L267.955 185.505L269.522 181.093L270.663 181.097L272.206 185.519L271.201 185.516ZM270.666 183.685L270.35 182.661C270.331 182.592 270.304 182.505 270.27 182.399C270.238 182.29 270.206 182.181 270.172 182.07C270.14 181.958 270.114 181.861 270.095 181.778C270.074 181.86 270.046 181.963 270.009 182.085C269.975 182.205 269.941 182.319 269.909 182.428C269.876 182.536 269.853 182.613 269.839 182.659L269.52 183.681L270.666 183.685ZM274.459 185.527L273.527 185.524L273.539 181.901L272.345 181.897L272.347 181.121L275.669 181.132L275.666 181.909L274.472 181.905L274.459 185.527ZM279.023 185.542L278.708 184.494L277.104 184.489L276.782 185.535L275.777 185.531L277.344 181.12L278.485 181.124L280.028 185.546L279.023 185.542ZM278.488 183.711L278.172 182.687C278.153 182.619 278.126 182.532 278.092 182.425C278.06 182.317 278.028 182.208 277.994 182.097C277.962 181.985 277.936 181.887 277.917 181.805C277.896 181.887 277.868 181.989 277.831 182.112C277.797 182.232 277.763 182.346 277.731 182.454C277.699 182.562 277.675 182.64 277.661 182.686L277.342 183.707L278.488 183.711Z" fill="#1AA086"/>
<path id="01" d="M266.666 192.876C266.665 193.231 266.636 193.548 266.579 193.827C266.524 194.105 266.434 194.342 266.311 194.536C266.19 194.73 266.032 194.878 265.835 194.98C265.638 195.081 265.399 195.132 265.118 195.131C264.765 195.129 264.476 195.039 264.25 194.86C264.024 194.679 263.857 194.419 263.75 194.082C263.643 193.743 263.59 193.337 263.591 192.866C263.593 192.391 263.644 191.985 263.743 191.648C263.844 191.309 264.008 191.05 264.233 190.871C264.458 190.691 264.758 190.602 265.134 190.603C265.485 190.604 265.773 190.695 265.999 190.877C266.227 191.056 266.396 191.315 266.505 191.654C266.614 191.992 266.668 192.399 266.666 192.876ZM264.515 192.869C264.514 193.204 264.531 193.484 264.566 193.709C264.604 193.931 264.666 194.099 264.754 194.212C264.842 194.324 264.964 194.381 265.121 194.381C265.275 194.382 265.397 194.327 265.485 194.217C265.576 194.105 265.641 193.938 265.679 193.715C265.718 193.491 265.738 193.21 265.74 192.873C265.741 192.538 265.723 192.259 265.685 192.034C265.648 191.809 265.584 191.64 265.494 191.528C265.407 191.413 265.285 191.355 265.131 191.355C264.975 191.354 264.852 191.411 264.763 191.525C264.675 191.637 264.611 191.805 264.572 192.03C264.535 192.254 264.516 192.534 264.515 192.869ZM269.432 195.085L268.503 195.082L268.512 192.537C268.512 192.467 268.513 192.38 268.515 192.278C268.518 192.174 268.521 192.068 268.526 191.959C268.53 191.849 268.534 191.75 268.539 191.661C268.516 191.687 268.471 191.732 268.403 191.796C268.336 191.858 268.274 191.914 268.216 191.964L267.709 192.369L267.262 191.807L268.683 190.684L269.447 190.687L269.432 195.085Z" fill="#1AA086"/>
</g>
<g id="Group_3">
<path id="DATA_2" d="M161.432 267.057C161.43 267.552 161.334 267.966 161.142 268.298C160.952 268.629 160.678 268.877 160.318 269.045C159.959 269.21 159.526 269.292 159.021 269.29L157.775 269.286L157.79 264.887L159.171 264.892C159.632 264.893 160.032 264.977 160.371 265.143C160.709 265.306 160.971 265.549 161.156 265.87C161.342 266.19 161.434 266.585 161.432 267.057ZM160.463 267.077C160.464 266.753 160.417 266.486 160.322 266.277C160.228 266.066 160.088 265.91 159.902 265.809C159.718 265.708 159.489 265.657 159.217 265.656L158.72 265.654L158.71 268.519L159.111 268.52C159.566 268.521 159.904 268.401 160.126 268.159C160.349 267.917 160.462 267.557 160.463 267.077ZM165.029 269.31L164.713 268.262L163.11 268.257L162.787 269.303L161.782 269.299L163.35 264.888L164.49 264.892L166.033 269.314L165.029 269.31ZM164.493 267.479L164.178 266.455C164.158 266.387 164.131 266.3 164.098 266.193C164.066 266.085 164.033 265.975 163.999 265.865C163.968 265.753 163.942 265.655 163.922 265.573C163.902 265.655 163.873 265.757 163.837 265.88C163.802 266 163.769 266.114 163.736 266.222C163.704 266.33 163.681 266.408 163.666 266.454L163.347 267.475L164.493 267.479ZM168.287 269.321L167.354 269.318L167.366 265.696L166.172 265.692L166.175 264.916L169.496 264.927L169.493 265.703L168.299 265.699L168.287 269.321ZM172.851 269.337L172.535 268.289L170.932 268.284L170.609 269.329L169.604 269.326L171.172 264.915L172.312 264.919L173.855 269.34L172.851 269.337ZM172.315 267.506L172 266.482C171.98 266.414 171.953 266.326 171.92 266.22C171.888 266.112 171.855 266.002 171.821 265.892C171.79 265.779 171.764 265.682 171.744 265.6C171.724 265.682 171.695 265.784 171.659 265.906C171.624 266.026 171.591 266.141 171.558 266.249C171.526 266.357 171.503 266.434 171.488 266.48L171.169 267.502L172.315 267.506Z" fill="#1891B2"/>
<path id="02" d="M160.494 276.671C160.492 277.026 160.463 277.343 160.406 277.622C160.351 277.9 160.262 278.137 160.139 278.331C160.018 278.525 159.859 278.673 159.662 278.774C159.465 278.876 159.226 278.926 158.946 278.925C158.593 278.924 158.303 278.834 158.077 278.655C157.851 278.473 157.684 278.214 157.577 277.877C157.47 277.537 157.417 277.132 157.419 276.661C157.421 276.185 157.471 275.779 157.571 275.443C157.672 275.104 157.835 274.845 158.061 274.665C158.286 274.485 158.586 274.396 158.961 274.398C159.312 274.399 159.601 274.49 159.827 274.671C160.055 274.851 160.223 275.11 160.332 275.449C160.442 275.786 160.495 276.194 160.494 276.671ZM158.343 276.664C158.341 276.999 158.359 277.279 158.394 277.503C158.431 277.726 158.494 277.894 158.582 278.006C158.67 278.119 158.792 278.176 158.948 278.176C159.103 278.177 159.224 278.122 159.313 278.012C159.403 277.9 159.468 277.733 159.507 277.51C159.546 277.286 159.566 277.005 159.567 276.668C159.568 276.333 159.55 276.053 159.513 275.828C159.475 275.604 159.412 275.435 159.322 275.322C159.234 275.208 159.113 275.15 158.958 275.15C158.802 275.149 158.68 275.206 158.591 275.32C158.502 275.432 158.438 275.6 158.4 275.825C158.363 276.049 158.344 276.329 158.343 276.664ZM164.036 278.882L160.961 278.872L160.964 278.225L162.072 277.113C162.295 276.885 162.474 276.695 162.609 276.543C162.746 276.389 162.845 276.249 162.905 276.123C162.968 275.997 163 275.861 163 275.717C163.001 275.543 162.952 275.412 162.854 275.325C162.758 275.237 162.629 275.192 162.466 275.192C162.296 275.191 162.13 275.23 161.969 275.307C161.809 275.385 161.641 275.496 161.466 275.64L160.963 275.039C161.089 274.931 161.223 274.829 161.364 274.734C161.506 274.638 161.671 274.561 161.858 274.504C162.047 274.444 162.272 274.415 162.535 274.416C162.824 274.417 163.071 274.47 163.278 274.575C163.486 274.68 163.646 274.823 163.758 275.004C163.869 275.182 163.925 275.385 163.924 275.612C163.923 275.855 163.874 276.076 163.777 276.276C163.68 276.476 163.539 276.675 163.354 276.87C163.171 277.066 162.95 277.283 162.69 277.521L162.123 278.052L162.122 278.094L164.039 278.1L164.036 278.882Z" fill="#1891B2"/>
</g>
<g id="Group_4">
<path id="DATA_3" d="M234.935 362.834C234.933 363.268 234.849 363.63 234.681 363.921C234.515 364.211 234.274 364.429 233.959 364.575C233.644 364.72 233.265 364.792 232.822 364.79L231.731 364.786L231.745 360.933L232.954 360.938C233.358 360.939 233.708 361.012 234.005 361.157C234.301 361.301 234.531 361.513 234.693 361.795C234.856 362.075 234.936 362.421 234.935 362.834ZM234.086 362.852C234.087 362.567 234.046 362.334 233.962 362.151C233.88 361.966 233.758 361.829 233.594 361.741C233.433 361.653 233.233 361.608 232.994 361.607L232.559 361.606L232.551 364.114L232.901 364.116C233.3 364.117 233.596 364.012 233.79 363.8C233.986 363.588 234.085 363.272 234.086 362.852ZM238.085 364.808L237.809 363.89L236.404 363.885L236.122 364.801L235.242 364.798L236.615 360.934L237.613 360.938L238.965 364.811L238.085 364.808ZM237.616 363.204L237.34 362.307C237.323 362.247 237.299 362.171 237.27 362.078C237.242 361.983 237.213 361.887 237.184 361.79C237.156 361.692 237.133 361.606 237.116 361.534C237.098 361.606 237.073 361.696 237.041 361.803C237.011 361.908 236.982 362.008 236.953 362.103C236.925 362.198 236.904 362.265 236.892 362.306L236.612 363.201L237.616 363.204ZM240.939 364.818L240.122 364.815L240.133 361.642L239.087 361.638L239.089 360.959L241.999 360.968L241.996 361.648L240.95 361.645L240.939 364.818ZM244.937 364.831L244.661 363.913L243.256 363.909L242.974 364.825L242.094 364.822L243.467 360.958L244.465 360.961L245.817 364.834L244.937 364.831ZM244.468 363.227L244.192 362.331C244.175 362.271 244.151 362.194 244.122 362.101C244.094 362.006 244.065 361.91 244.036 361.813C244.008 361.715 243.985 361.63 243.968 361.558C243.95 361.63 243.925 361.719 243.893 361.826C243.863 361.931 243.834 362.032 243.805 362.126C243.777 362.221 243.756 362.289 243.744 362.329L243.464 363.224L244.468 363.227Z" fill="#F97F06"/>
<path id="03" d="M244.966 371.316C244.965 371.627 244.94 371.905 244.89 372.149C244.842 372.393 244.764 372.6 244.656 372.77C244.55 372.94 244.411 373.069 244.238 373.158C244.066 373.247 243.856 373.291 243.61 373.291C243.301 373.29 243.048 373.21 242.85 373.053C242.652 372.895 242.506 372.668 242.412 372.372C242.318 372.075 242.272 371.72 242.273 371.307C242.275 370.89 242.319 370.535 242.406 370.24C242.495 369.943 242.638 369.716 242.835 369.559C243.032 369.401 243.295 369.323 243.624 369.324C243.931 369.325 244.184 369.405 244.382 369.564C244.582 369.721 244.73 369.948 244.825 370.246C244.921 370.541 244.968 370.898 244.966 371.316ZM243.082 371.31C243.081 371.603 243.096 371.848 243.127 372.045C243.16 372.24 243.215 372.387 243.292 372.486C243.369 372.584 243.476 372.634 243.613 372.634C243.748 372.635 243.854 372.587 243.932 372.491C244.011 372.392 244.068 372.246 244.102 372.051C244.136 371.854 244.154 371.608 244.155 371.313C244.156 371.02 244.14 370.775 244.107 370.578C244.075 370.381 244.019 370.233 243.94 370.135C243.863 370.034 243.757 369.984 243.622 369.983C243.485 369.983 243.377 370.032 243.3 370.132C243.222 370.23 243.166 370.378 243.132 370.575C243.1 370.771 243.083 371.016 243.082 371.31ZM247.93 370.261C247.929 370.439 247.892 370.593 247.817 370.722C247.743 370.852 247.643 370.958 247.516 371.04C247.391 371.122 247.25 371.182 247.094 371.221L247.093 371.236C247.403 371.276 247.637 371.372 247.796 371.523C247.957 371.675 248.037 371.877 248.037 372.13C248.036 372.355 247.98 372.556 247.868 372.733C247.759 372.91 247.59 373.049 247.361 373.151C247.132 373.252 246.838 373.302 246.478 373.3C246.265 373.3 246.067 373.281 245.882 373.246C245.7 373.212 245.528 373.159 245.366 373.088L245.369 372.395C245.533 372.48 245.706 372.545 245.887 372.589C246.068 372.632 246.237 372.654 246.393 372.654C246.685 372.655 246.889 372.606 247.005 372.506C247.123 372.405 247.182 372.263 247.183 372.08C247.183 371.973 247.156 371.882 247.102 371.808C247.048 371.734 246.953 371.678 246.818 371.639C246.685 371.6 246.498 371.58 246.257 371.579L245.964 371.578L245.966 370.953L246.264 370.954C246.501 370.955 246.682 370.934 246.805 370.89C246.93 370.845 247.014 370.784 247.058 370.707C247.104 370.628 247.127 370.538 247.128 370.438C247.128 370.301 247.086 370.194 247.002 370.116C246.918 370.038 246.778 369.999 246.581 369.999C246.458 369.998 246.346 370.014 246.244 370.045C246.143 370.074 246.053 370.111 245.972 370.155C245.891 370.197 245.82 370.238 245.758 370.278L245.383 369.715C245.535 369.607 245.711 369.517 245.914 369.446C246.118 369.374 246.36 369.339 246.641 369.34C247.038 369.341 247.353 369.422 247.584 369.583C247.815 369.744 247.931 369.97 247.93 370.261Z" fill="#F97F06"/>
</g>
<g id="Group_5">
<path id="DATA_4" d="M322.396 298.595C322.394 299.029 322.31 299.391 322.142 299.682C321.976 299.972 321.735 300.19 321.42 300.336C321.105 300.481 320.726 300.553 320.284 300.551L319.193 300.547L319.206 296.694L320.415 296.699C320.819 296.7 321.17 296.773 321.466 296.918C321.763 297.062 321.992 297.274 322.154 297.556C322.317 297.836 322.397 298.182 322.396 298.595ZM321.547 298.613C321.548 298.328 321.507 298.095 321.423 297.912C321.341 297.727 321.219 297.59 321.056 297.502C320.894 297.413 320.694 297.369 320.455 297.368L320.02 297.367L320.012 299.875L320.362 299.877C320.761 299.878 321.058 299.773 321.252 299.561C321.447 299.349 321.546 299.033 321.547 298.613ZM325.546 300.569L325.27 299.651L323.866 299.646L323.583 300.562L322.703 300.559L324.076 296.695L325.075 296.699L326.427 300.572L325.546 300.569ZM325.077 298.965L324.801 298.068C324.784 298.008 324.76 297.932 324.731 297.839C324.703 297.744 324.674 297.648 324.645 297.551C324.617 297.453 324.595 297.367 324.577 297.295C324.559 297.367 324.534 297.457 324.502 297.564C324.472 297.669 324.443 297.769 324.414 297.864C324.386 297.959 324.366 298.026 324.353 298.067L324.073 298.962L325.077 298.965ZM328.4 300.579L327.583 300.576L327.594 297.403L326.548 297.399L326.55 296.72L329.46 296.729L329.457 297.409L328.411 297.406L328.4 300.579ZM332.398 300.592L332.122 299.674L330.717 299.67L330.435 300.586L329.555 300.583L330.928 296.719L331.927 296.722L333.278 300.595L332.398 300.592ZM331.929 298.988L331.653 298.092C331.636 298.032 331.612 297.955 331.583 297.862C331.555 297.767 331.526 297.671 331.497 297.574C331.469 297.476 331.446 297.391 331.429 297.319C331.411 297.391 331.386 297.48 331.354 297.587C331.324 297.692 331.295 297.792 331.266 297.887C331.238 297.982 331.217 298.05 331.205 298.09L330.925 298.985L331.929 298.988Z" fill="#CE2469"/>
<path id="04" d="M332.428 307.077C332.427 307.388 332.401 307.666 332.351 307.91C332.303 308.154 332.225 308.361 332.117 308.531C332.011 308.701 331.872 308.83 331.699 308.919C331.527 309.008 331.318 309.052 331.072 309.052C330.762 309.051 330.509 308.971 330.311 308.814C330.113 308.656 329.967 308.428 329.873 308.133C329.779 307.836 329.733 307.481 329.734 307.068C329.736 306.651 329.78 306.296 329.867 306.001C329.956 305.704 330.099 305.477 330.296 305.32C330.494 305.162 330.757 305.084 331.085 305.085C331.393 305.086 331.645 305.166 331.843 305.325C332.043 305.482 332.191 305.709 332.286 306.007C332.382 306.302 332.429 306.659 332.428 307.077ZM330.543 307.071C330.542 307.364 330.557 307.609 330.588 307.806C330.621 308.001 330.676 308.148 330.753 308.247C330.83 308.345 330.937 308.395 331.074 308.395C331.209 308.396 331.316 308.348 331.393 308.252C331.473 308.153 331.529 308.007 331.563 307.812C331.597 307.615 331.615 307.369 331.616 307.074C331.617 306.781 331.601 306.536 331.568 306.339C331.536 306.142 331.48 305.994 331.401 305.896C331.324 305.795 331.218 305.745 331.083 305.744C330.946 305.744 330.839 305.793 330.761 305.893C330.683 305.991 330.627 306.139 330.593 306.336C330.561 306.532 330.544 306.777 330.543 307.071ZM335.62 308.216L335.157 308.214L335.154 309.013L334.358 309.01L334.361 308.212L332.716 308.206L332.718 307.639L334.416 305.157L335.167 305.16L335.159 307.582L335.623 307.583L335.62 308.216ZM334.363 307.579L334.365 306.926C334.365 306.864 334.366 306.791 334.369 306.707C334.372 306.623 334.376 306.538 334.38 306.454C334.384 306.37 334.388 306.295 334.391 306.23C334.397 306.163 334.4 306.117 334.402 306.09L334.381 306.09C334.348 306.162 334.312 306.232 334.275 306.301C334.238 306.367 334.195 306.437 334.145 306.511L333.435 307.576L334.363 307.579Z" fill="#CE2469"/>
</g>
</g>
</g>
<g id="Text">
<path id="Sale" d="M236.718 279.445C237.025 279.989 237.366 280.462 237.743 280.862C238.135 281.262 238.554 281.569 239.002 281.781C239.464 281.994 239.947 282.099 240.45 282.095C240.983 282.091 241.421 281.958 241.764 281.697C242.108 281.421 242.278 281.053 242.274 280.592C242.272 280.204 242.169 279.895 241.966 279.666C241.762 279.423 241.437 279.195 240.989 278.983C240.542 278.77 239.95 278.53 239.214 278.261C238.853 278.134 238.435 277.958 237.958 277.731C237.496 277.504 237.055 277.212 236.635 276.855C236.215 276.484 235.867 276.04 235.59 275.524C235.312 274.994 235.171 274.354 235.166 273.606C235.16 272.714 235.384 271.942 235.84 271.291C236.31 270.641 236.94 270.147 237.729 269.81C238.533 269.459 239.424 269.28 240.402 269.273C241.409 269.266 242.281 269.425 243.017 269.751C243.768 270.077 244.39 270.489 244.883 270.99C245.375 271.49 245.753 271.998 246.016 272.514L243.243 274.088C243.024 273.73 242.77 273.422 242.48 273.165C242.205 272.894 241.894 272.687 241.548 272.546C241.216 272.39 240.855 272.313 240.467 272.316C239.949 272.32 239.554 272.438 239.282 272.67C239.01 272.888 238.876 273.162 238.878 273.493C238.88 273.839 239.012 274.14 239.273 274.397C239.548 274.654 239.931 274.889 240.422 275.101C240.927 275.313 241.533 275.539 242.24 275.779C242.774 275.977 243.272 276.211 243.734 276.481C244.197 276.736 244.602 277.05 244.95 277.422C245.312 277.793 245.596 278.223 245.801 278.711C246.006 279.199 246.111 279.759 246.115 280.392C246.121 281.155 245.967 281.84 245.655 282.446C245.357 283.039 244.943 283.538 244.414 283.945C243.898 284.351 243.303 284.658 242.629 284.864C241.968 285.085 241.285 285.197 240.58 285.202C239.602 285.209 238.687 285.043 237.835 284.704C236.998 284.35 236.268 283.873 235.645 283.273C235.022 282.673 234.535 282.015 234.185 281.298L236.718 279.445ZM251.304 281.543C251.306 281.802 251.372 282.024 251.503 282.21C251.634 282.382 251.808 282.518 252.024 282.617C252.241 282.702 252.478 282.743 252.737 282.741C253.112 282.739 253.456 282.657 253.772 282.497C254.087 282.336 254.345 282.097 254.544 281.779C254.743 281.461 254.841 281.071 254.838 280.611L255.192 281.904C255.197 282.537 255.028 283.078 254.686 283.526C254.343 283.96 253.9 284.294 253.355 284.529C252.809 284.748 252.22 284.86 251.587 284.865C250.954 284.869 250.363 284.759 249.814 284.532C249.28 284.291 248.846 283.935 248.512 283.462C248.192 282.99 248.029 282.415 248.024 281.739C248.018 280.789 248.351 280.038 249.023 279.487C249.695 278.921 250.65 278.633 251.888 278.624C252.492 278.62 253.032 278.674 253.508 278.786C253.998 278.897 254.416 279.038 254.763 279.208C255.109 279.379 255.37 279.557 255.544 279.742L255.554 281.189C255.207 280.932 254.803 280.741 254.341 280.614C253.894 280.474 253.419 280.405 252.915 280.409C252.526 280.412 252.217 280.457 251.988 280.545C251.758 280.633 251.586 280.764 251.473 280.937C251.359 281.096 251.302 281.298 251.304 281.543ZM249.831 277.776L248.715 275.603C249.274 275.326 249.948 275.062 250.738 274.812C251.528 274.562 252.39 274.433 253.326 274.426C254.204 274.42 254.989 274.544 255.681 274.798C256.374 275.038 256.923 275.394 257.329 275.866C257.736 276.338 257.941 276.919 257.946 277.61L257.996 284.603L254.866 284.626L254.822 278.366C254.82 278.121 254.775 277.913 254.688 277.741C254.614 277.554 254.498 277.397 254.339 277.269C254.18 277.14 253.978 277.048 253.733 276.992C253.502 276.936 253.235 276.91 252.933 276.912C252.487 276.915 252.049 276.968 251.618 277.072C251.201 277.176 250.835 277.301 250.519 277.447C250.204 277.579 249.974 277.688 249.831 277.776ZM260.856 267.746L264.137 267.722L264.257 284.559L260.976 284.582L260.856 267.746ZM272.386 284.717C271.235 284.725 270.233 284.523 269.381 284.112C268.544 283.686 267.892 283.087 267.426 282.313C266.96 281.539 266.723 280.627 266.716 279.577C266.708 278.512 266.924 277.589 267.365 276.809C267.806 276.029 268.442 275.427 269.273 275.004C270.119 274.58 271.118 274.364 272.269 274.356C273.42 274.348 274.393 274.543 275.187 274.94C275.982 275.323 276.59 275.887 277.013 276.632C277.435 277.378 277.651 278.283 277.658 279.347C277.659 279.506 277.66 279.664 277.661 279.822C277.663 279.966 277.649 280.089 277.621 280.19L268.555 280.254L268.542 278.441L274.672 278.397L273.902 279.396C273.974 279.295 274.03 279.172 274.073 279.028C274.129 278.869 274.157 278.739 274.156 278.638C274.153 278.207 274.071 277.833 273.911 277.518C273.75 277.202 273.525 276.959 273.236 276.789C272.947 276.618 272.608 276.534 272.22 276.537C271.731 276.54 271.321 276.651 270.992 276.869C270.662 277.088 270.413 277.42 270.243 277.868C270.088 278.3 270.006 278.848 269.996 279.51C270 280.114 270.09 280.632 270.266 281.062C270.442 281.493 270.703 281.822 271.05 282.05C271.397 282.263 271.823 282.368 272.326 282.364C272.902 282.36 273.39 282.249 273.792 282.03C274.207 281.811 274.536 281.485 274.778 281.052L277.697 281.743C277.186 282.725 276.486 283.464 275.597 283.96C274.723 284.456 273.652 284.708 272.386 284.717Z" fill="#303030"/>
<path id="(75% )" d="M234.579 296.606L235.793 296.597C235.241 297.81 234.84 299.092 234.59 300.443C234.341 301.794 234.221 303.16 234.231 304.541C234.241 305.912 234.38 307.271 234.648 308.618C234.917 309.965 235.336 311.247 235.906 312.462L234.692 312.471C234.036 311.256 233.552 309.975 233.24 308.628C232.939 307.281 232.784 305.922 232.774 304.552C232.764 303.17 232.9 301.804 233.182 300.453C233.474 299.102 233.94 297.819 234.579 296.606ZM237.316 299.177L237.306 297.882L245.239 297.825L239.896 309.196L238.456 309.206L243.192 299.135L237.316 299.177ZM254.403 305.369C254.408 306.017 254.309 306.584 254.107 307.071C253.906 307.558 253.623 307.965 253.258 308.291C252.893 308.618 252.474 308.864 252.001 309.029C251.527 309.194 251.015 309.279 250.464 309.283C249.774 309.288 249.168 309.184 248.649 308.972C248.14 308.76 247.701 308.477 247.332 308.123C246.973 307.759 246.668 307.362 246.416 306.932L247.576 306.13C247.751 306.453 247.98 306.759 248.263 307.048C248.556 307.326 248.892 307.556 249.272 307.737C249.65 307.907 250.045 307.99 250.455 307.988C250.995 307.984 251.453 307.872 251.829 307.654C252.205 307.435 252.489 307.131 252.68 306.741C252.883 306.351 252.982 305.897 252.978 305.379C252.975 304.861 252.858 304.409 252.629 304.022C252.41 303.635 252.106 303.335 251.716 303.122C251.336 302.908 250.904 302.804 250.418 302.807C250.062 302.81 249.733 302.844 249.431 302.911C249.14 302.967 248.844 303.072 248.543 303.225C248.253 303.368 247.914 303.575 247.528 303.848L248.974 297.799L254.316 297.761L254.325 298.975L250.051 299.005L249.312 302.005C249.58 301.863 249.855 301.759 250.135 301.692C250.426 301.614 250.712 301.575 250.992 301.573C251.64 301.568 252.218 301.726 252.728 302.046C253.248 302.366 253.656 302.811 253.952 303.381C254.247 303.951 254.398 304.614 254.403 305.369ZM256.127 300.176C256.124 299.69 256.223 299.253 256.425 298.863C256.639 298.473 256.939 298.163 257.325 297.933C257.712 297.693 258.159 297.571 258.667 297.568C259.185 297.564 259.633 297.679 260.013 297.914C260.403 298.138 260.702 298.444 260.91 298.831C261.128 299.218 261.239 299.654 261.243 300.14C261.246 300.615 261.141 301.052 260.928 301.453C260.726 301.843 260.432 302.158 260.045 302.399C259.669 302.628 259.222 302.744 258.703 302.748C258.196 302.752 257.748 302.642 257.357 302.418C256.967 302.183 256.663 301.872 256.444 301.485C256.236 301.087 256.131 300.651 256.127 300.176ZM257.277 300.168C257.279 300.438 257.334 300.691 257.444 300.928C257.564 301.164 257.728 301.352 257.934 301.491C258.15 301.63 258.405 301.698 258.696 301.696C258.998 301.694 259.251 301.622 259.455 301.48C259.659 301.338 259.815 301.148 259.921 300.91C260.038 300.672 260.095 300.418 260.093 300.148C260.091 299.867 260.03 299.614 259.91 299.388C259.8 299.152 259.643 298.964 259.436 298.825C259.23 298.686 258.976 298.618 258.674 298.62C258.383 298.622 258.13 298.694 257.915 298.836C257.711 298.978 257.55 299.168 257.433 299.406C257.327 299.633 257.275 299.887 257.277 300.168ZM262.082 306.61C262.079 306.124 262.178 305.686 262.38 305.296C262.594 304.906 262.894 304.596 263.28 304.367C263.667 304.127 264.114 304.005 264.622 304.001C265.14 303.997 265.588 304.113 265.968 304.348C266.358 304.572 266.657 304.877 266.865 305.264C267.083 305.651 267.194 306.087 267.198 306.573C267.201 307.048 267.096 307.486 266.883 307.887C266.681 308.277 266.387 308.592 266 308.832C265.624 309.061 265.177 309.178 264.659 309.182C264.151 309.185 263.703 309.075 263.312 308.851C262.922 308.616 262.618 308.306 262.399 307.919C262.191 307.521 262.086 307.084 262.082 306.61ZM263.232 306.601C263.234 306.871 263.289 307.124 263.399 307.361C263.519 307.598 263.683 307.785 263.889 307.924C264.106 308.063 264.36 308.131 264.651 308.129C264.953 308.127 265.206 308.055 265.41 307.913C265.614 307.772 265.77 307.582 265.876 307.343C265.993 307.105 266.05 306.851 266.049 306.581C266.047 306.301 265.985 306.047 265.865 305.822C265.755 305.585 265.598 305.397 265.392 305.258C265.185 305.12 264.931 305.051 264.629 305.053C264.338 305.055 264.085 305.127 263.87 305.269C263.666 305.411 263.505 305.601 263.388 305.839C263.282 306.067 263.23 306.321 263.232 306.601ZM264.658 297.687L265.872 297.678L258.668 309.062L257.453 309.071L264.658 297.687ZM275.437 312.181L274.223 312.189C274.786 310.966 275.187 309.679 275.426 308.328C275.675 306.977 275.795 305.616 275.785 304.245C275.775 302.864 275.636 301.5 275.368 300.152C275.11 298.805 274.691 297.529 274.11 296.324L275.324 296.316C275.98 297.52 276.459 298.795 276.76 300.142C277.072 301.489 277.232 302.854 277.242 304.235C277.252 305.606 277.111 306.967 276.818 308.318C276.536 309.669 276.076 310.957 275.437 312.181Z" fill="#404040"/>
</g>
<path id="Global Statistic" d="M150.849 151.461L150.859 149.505L156.776 149.538C156.806 150.453 156.692 151.315 156.436 152.126C156.192 152.936 155.805 153.654 155.275 154.28C154.757 154.895 154.115 155.377 153.347 155.728C152.579 156.078 151.703 156.25 150.72 156.245C149.793 156.24 148.937 156.081 148.15 155.768C147.374 155.455 146.696 155.017 146.116 154.453C145.547 153.89 145.105 153.218 144.789 152.439C144.485 151.66 144.335 150.807 144.34 149.881C144.345 148.955 144.51 148.11 144.834 147.346C145.17 146.57 145.631 145.909 146.217 145.364C146.803 144.818 147.491 144.399 148.282 144.106C149.073 143.813 149.931 143.669 150.857 143.674C151.68 143.679 152.417 143.797 153.068 144.029C153.729 144.261 154.311 144.585 154.812 144.999C155.324 145.402 155.762 145.885 156.124 146.447L154.025 147.653C153.731 147.126 153.316 146.7 152.78 146.377C152.256 146.043 151.611 145.873 150.845 145.869C150.125 145.865 149.466 146.028 148.87 146.356C148.274 146.673 147.797 147.133 147.439 147.737C147.093 148.341 146.917 149.061 146.913 149.895C146.908 150.719 147.076 151.446 147.415 152.076C147.755 152.696 148.215 153.178 148.796 153.525C149.389 153.871 150.057 154.046 150.8 154.05C151.292 154.053 151.732 153.992 152.122 153.869C152.511 153.734 152.844 153.547 153.12 153.308C153.407 153.07 153.648 152.796 153.844 152.489C154.041 152.181 154.191 151.845 154.296 151.479L150.849 151.461ZM159.04 142.587L161.269 142.599L161.196 155.976L158.967 155.964L159.04 142.587ZM163.307 152.043C163.311 151.22 163.504 150.501 163.885 149.885C164.277 149.27 164.8 148.793 165.453 148.453C166.118 148.114 166.868 147.947 167.703 147.951C168.538 147.956 169.28 148.131 169.93 148.478C170.591 148.824 171.108 149.308 171.482 149.927C171.868 150.547 172.058 151.268 172.054 152.091C172.049 152.903 171.851 153.622 171.459 154.249C171.078 154.864 170.555 155.342 169.89 155.681C169.237 156.02 168.492 156.188 167.658 156.183C166.823 156.179 166.075 156.003 165.414 155.657C164.764 155.31 164.246 154.827 163.861 154.207C163.487 153.576 163.302 152.855 163.307 152.043ZM165.571 152.056C165.568 152.502 165.658 152.897 165.839 153.241C166.031 153.573 166.287 153.838 166.606 154.034C166.925 154.218 167.279 154.312 167.668 154.314C168.057 154.316 168.412 154.227 168.733 154.045C169.054 153.853 169.307 153.591 169.492 153.261C169.688 152.919 169.787 152.525 169.79 152.079C169.792 151.633 169.697 151.238 169.505 150.894C169.324 150.55 169.074 150.285 168.754 150.101C168.435 149.916 168.081 149.823 167.693 149.821C167.304 149.818 166.949 149.908 166.628 150.089C166.307 150.27 166.048 150.532 165.852 150.874C165.667 151.216 165.573 151.61 165.571 152.056ZM176.379 142.682L176.306 156.059L174.076 156.047L174.149 142.67L176.379 142.682ZM182.81 152.15C182.805 153.019 182.624 153.761 182.266 154.377C181.908 154.992 181.437 155.458 180.852 155.775C180.279 156.092 179.66 156.249 178.997 156.245C178.345 156.242 177.763 156.073 177.251 155.739C176.749 155.404 176.352 154.927 176.058 154.308C175.764 153.689 175.619 152.957 175.624 152.111C175.629 151.253 175.781 150.522 176.082 149.918C176.383 149.302 176.785 148.83 177.29 148.501C177.807 148.172 178.391 148.01 179.042 148.013C179.705 148.017 180.322 148.18 180.892 148.504C181.473 148.827 181.939 149.298 182.291 149.918C182.642 150.526 182.815 151.27 182.81 152.15ZM180.512 152.137C180.514 151.669 180.419 151.262 180.227 150.918C180.034 150.574 179.773 150.31 179.442 150.125C179.123 149.94 178.769 149.847 178.381 149.845C178.049 149.843 177.723 149.933 177.401 150.114C177.092 150.284 176.833 150.539 176.625 150.881C176.429 151.223 176.33 151.634 176.327 152.115C176.324 152.595 176.419 153.007 176.612 153.351C176.816 153.695 177.072 153.96 177.379 154.144C177.699 154.317 178.024 154.405 178.356 154.407C178.744 154.409 179.099 154.319 179.42 154.138C179.753 153.957 180.017 153.696 180.214 153.354C180.41 153.012 180.509 152.606 180.512 152.137ZM186.465 153.662C186.463 153.891 186.519 154.091 186.633 154.263C186.746 154.424 186.9 154.551 187.094 154.643C187.299 154.724 187.522 154.766 187.762 154.767C188.105 154.769 188.414 154.702 188.689 154.566C188.964 154.419 189.189 154.215 189.361 153.953C189.534 153.679 189.622 153.354 189.624 152.976L189.893 154.007C189.89 154.51 189.745 154.932 189.457 155.274C189.181 155.615 188.819 155.87 188.372 156.04C187.937 156.209 187.479 156.292 186.999 156.289C186.507 156.287 186.051 156.187 185.629 155.99C185.207 155.794 184.865 155.512 184.604 155.144C184.355 154.766 184.231 154.307 184.234 153.77C184.239 153.004 184.511 152.4 185.05 151.957C185.59 151.514 186.352 151.295 187.335 151.3C187.838 151.303 188.278 151.357 188.655 151.462C189.043 151.567 189.368 151.694 189.63 151.844C189.892 151.994 190.08 152.138 190.194 152.276L190.188 153.305C189.881 153.075 189.533 152.902 189.145 152.785C188.768 152.669 188.368 152.609 187.945 152.607C187.602 152.605 187.322 152.649 187.104 152.74C186.887 152.818 186.726 152.938 186.622 153.097C186.518 153.245 186.466 153.434 186.465 153.662ZM185.625 150.45L184.81 148.937C185.222 148.722 185.727 148.519 186.322 148.327C186.918 148.125 187.582 148.026 188.313 148.03C188.988 148.033 189.588 148.134 190.113 148.331C190.638 148.528 191.048 148.816 191.343 149.195C191.638 149.563 191.784 150.015 191.781 150.553L191.751 156.144L189.607 156.132L189.635 151.004C189.636 150.787 189.603 150.604 189.535 150.455C189.467 150.294 189.359 150.162 189.211 150.058C189.075 149.955 188.909 149.88 188.715 149.833C188.521 149.786 188.304 149.762 188.064 149.761C187.698 149.759 187.349 149.797 187.017 149.875C186.685 149.953 186.399 150.049 186.158 150.162C185.917 150.275 185.739 150.371 185.625 150.45ZM194.319 142.78L196.549 142.792L196.475 156.17L194.246 156.157L194.319 142.78ZM205.941 152.191C206.19 152.638 206.462 153.029 206.758 153.362C207.065 153.695 207.4 153.954 207.765 154.139C208.13 154.324 208.524 154.418 208.947 154.42C209.439 154.423 209.84 154.299 210.15 154.049C210.46 153.799 210.616 153.457 210.618 153.023C210.621 152.645 210.525 152.342 210.332 152.112C210.15 151.882 209.871 151.681 209.495 151.507C209.13 151.322 208.679 151.125 208.143 150.917C207.858 150.812 207.527 150.673 207.151 150.5C206.786 150.315 206.438 150.084 206.108 149.808C205.778 149.52 205.506 149.176 205.291 148.774C205.076 148.362 204.97 147.869 204.973 147.298C204.977 146.612 205.151 146.024 205.497 145.534C205.854 145.033 206.331 144.652 206.927 144.393C207.534 144.122 208.21 143.988 208.953 143.992C209.719 143.996 210.376 144.131 210.923 144.397C211.482 144.652 211.943 144.98 212.307 145.383C212.682 145.773 212.971 146.181 213.175 146.605L211.248 147.658C211.09 147.371 210.897 147.113 210.669 146.883C210.453 146.642 210.203 146.452 209.918 146.313C209.633 146.163 209.307 146.087 208.941 146.085C208.461 146.082 208.1 146.194 207.859 146.422C207.618 146.638 207.496 146.894 207.495 147.191C207.493 147.489 207.589 147.752 207.782 147.982C207.975 148.2 208.271 148.413 208.67 148.621C209.069 148.818 209.571 149.021 210.176 149.23C210.564 149.369 210.935 149.543 211.288 149.751C211.653 149.958 211.977 150.212 212.262 150.511C212.557 150.798 212.784 151.142 212.942 151.543C213.111 151.933 213.195 152.385 213.192 152.9C213.189 153.483 213.071 154.002 212.84 154.458C212.609 154.915 212.293 155.302 211.891 155.619C211.489 155.926 211.036 156.158 210.532 156.315C210.039 156.484 209.519 156.567 208.97 156.564C208.238 156.56 207.553 156.419 206.914 156.141C206.287 155.852 205.74 155.466 205.274 154.983C204.808 154.5 204.445 153.978 204.185 153.416L205.941 152.191ZM214.427 148.378L219.298 148.405L219.288 150.275L214.417 150.248L214.427 148.378ZM215.797 145.642L217.941 145.654L217.883 156.287L215.739 156.275L215.797 145.642ZM222.457 153.859C222.456 154.088 222.512 154.288 222.625 154.461C222.739 154.621 222.893 154.748 223.086 154.84C223.292 154.922 223.515 154.963 223.755 154.964C224.098 154.966 224.407 154.899 224.682 154.763C224.957 154.616 225.181 154.412 225.354 154.15C225.527 153.876 225.615 153.551 225.617 153.173L225.886 154.204C225.883 154.707 225.738 155.129 225.45 155.471C225.174 155.812 224.812 156.068 224.365 156.237C223.93 156.406 223.472 156.489 222.992 156.486C222.5 156.484 222.043 156.384 221.621 156.187C221.199 155.991 220.858 155.709 220.597 155.341C220.347 154.963 220.224 154.505 220.227 153.967C220.231 153.201 220.503 152.597 221.043 152.154C221.583 151.711 222.344 151.492 223.328 151.497C223.831 151.5 224.271 151.554 224.647 151.659C225.036 151.764 225.361 151.891 225.623 152.042C225.885 152.192 226.073 152.336 226.187 152.473L226.181 153.502C225.873 153.272 225.526 153.099 225.138 152.982C224.761 152.866 224.361 152.806 223.938 152.804C223.595 152.802 223.315 152.846 223.097 152.937C222.879 153.016 222.718 153.135 222.615 153.294C222.511 153.442 222.458 153.631 222.457 153.859ZM221.617 150.648L220.802 149.134C221.215 148.919 221.719 148.716 222.315 148.525C222.911 148.322 223.574 148.223 224.306 148.227C224.981 148.23 225.58 148.331 226.105 148.528C226.63 148.725 227.04 149.014 227.335 149.392C227.631 149.76 227.777 150.212 227.774 150.75L227.743 156.341L225.599 156.329L225.628 151.201C225.629 150.984 225.595 150.801 225.528 150.652C225.46 150.491 225.352 150.359 225.204 150.256C225.067 150.152 224.902 150.077 224.708 150.03C224.514 149.983 224.297 149.959 224.056 149.958C223.691 149.956 223.342 149.994 223.01 150.072C222.678 150.15 222.391 150.246 222.151 150.359C221.91 150.472 221.732 150.568 221.617 150.648ZM229.27 148.46L234.14 148.486L234.13 150.356L229.26 150.329L229.27 148.46ZM230.64 145.723L232.783 145.735L232.725 156.368L230.581 156.356L230.64 145.723ZM235.666 145.442C235.668 145.076 235.801 144.779 236.065 144.552C236.329 144.314 236.644 144.195 237.01 144.197C237.376 144.199 237.684 144.321 237.934 144.562C238.196 144.793 238.326 145.091 238.324 145.456C238.322 145.811 238.189 146.107 237.925 146.346C237.672 146.585 237.362 146.703 236.996 146.701C236.631 146.699 236.317 146.577 236.055 146.336C235.793 146.094 235.664 145.796 235.666 145.442ZM235.889 148.496L238.05 148.508L238.007 156.397L235.846 156.385L235.889 148.496ZM241.203 153.688C241.533 153.998 241.84 154.251 242.125 154.447C242.41 154.632 242.678 154.77 242.929 154.863C243.191 154.956 243.437 155.003 243.665 155.005C243.963 155.006 244.192 154.945 244.352 154.82C244.513 154.683 244.594 154.501 244.595 154.272C244.597 154.066 244.529 153.894 244.392 153.757C244.268 153.607 244.08 153.475 243.829 153.359C243.578 153.243 243.258 153.121 242.87 152.994C242.505 152.854 242.152 152.692 241.81 152.507C241.468 152.311 241.183 152.058 240.956 151.748C240.741 151.427 240.634 151.02 240.637 150.529C240.639 150.06 240.767 149.666 241.021 149.347C241.274 149.017 241.613 148.773 242.037 148.615C242.472 148.446 242.953 148.363 243.479 148.366C243.925 148.369 244.342 148.428 244.73 148.544C245.118 148.661 245.477 148.817 245.808 149.013C246.138 149.198 246.429 149.417 246.679 149.67L245.694 151.037C245.41 150.726 245.068 150.473 244.669 150.276C244.281 150.08 243.899 149.981 243.521 149.979C243.27 149.977 243.069 150.027 242.92 150.13C242.782 150.22 242.713 150.363 242.712 150.557C242.711 150.729 242.779 150.883 242.915 151.021C243.063 151.148 243.268 151.263 243.531 151.368C243.805 151.472 244.113 151.6 244.455 151.75C244.877 151.913 245.265 152.098 245.618 152.305C245.983 152.502 246.273 152.749 246.489 153.048C246.704 153.346 246.811 153.735 246.808 154.216C246.804 155.005 246.543 155.621 246.026 156.064C245.509 156.495 244.799 156.709 243.896 156.704C243.336 156.701 242.822 156.624 242.354 156.472C241.897 156.321 241.481 156.125 241.105 155.882C240.74 155.629 240.41 155.358 240.115 155.071L241.203 153.688ZM247.79 148.561L252.661 148.588L252.651 150.457L247.78 150.431L247.79 148.561ZM249.16 145.825L251.304 145.836L251.246 156.47L249.102 156.458L249.16 145.825ZM254.186 145.543C254.188 145.177 254.321 144.881 254.585 144.654C254.85 144.415 255.165 144.297 255.531 144.299C255.897 144.301 256.205 144.422 256.455 144.664C256.717 144.894 256.846 145.192 256.844 145.558C256.842 145.912 256.709 146.209 256.445 146.448C256.192 146.686 255.883 146.805 255.517 146.803C255.151 146.801 254.837 146.679 254.576 146.437C254.314 146.196 254.184 145.898 254.186 145.543ZM254.409 148.597L256.57 148.609L256.527 156.499L254.366 156.487L254.409 148.597ZM261.016 152.578C261.014 153.036 261.114 153.436 261.318 153.781C261.522 154.125 261.795 154.395 262.137 154.591C262.491 154.787 262.879 154.887 263.302 154.889C263.645 154.891 263.977 154.841 264.297 154.74C264.618 154.628 264.905 154.481 265.157 154.299C265.421 154.106 265.623 153.884 265.761 153.633L265.749 155.914C265.473 156.164 265.112 156.363 264.665 156.509C264.23 156.644 263.721 156.709 263.138 156.706C262.303 156.702 261.549 156.526 260.876 156.179C260.215 155.833 259.692 155.35 259.307 154.73C258.933 154.099 258.748 153.378 258.752 152.566C258.757 151.743 258.95 151.023 259.33 150.408C259.722 149.793 260.251 149.315 260.916 148.976C261.592 148.637 262.348 148.469 263.183 148.474C263.766 148.477 264.274 148.554 264.708 148.705C265.153 148.845 265.512 149.036 265.785 149.277L265.773 151.558C265.637 151.306 265.432 151.088 265.159 150.903C264.897 150.707 264.606 150.557 264.287 150.452C263.967 150.348 263.647 150.295 263.327 150.293C262.904 150.29 262.515 150.391 262.159 150.595C261.815 150.788 261.539 151.055 261.331 151.397C261.124 151.739 261.019 152.132 261.016 152.578Z" fill="#353E6C"/>
</g>
</g>
<defs>
<filter id="filter0_bdi_1_517" x="85.0198" y="84.5471" width="391.775" height="397.772" filterUnits="userSpaceOnUse" color-interpolation-filters="sRGB">
<feFlood flood-opacity="0" result="BackgroundImageFix"/>
<feGaussianBlur in="BackgroundImageFix" stdDeviation="10.7192"/>
<feComposite in2="SourceAlpha" operator="in" result="effect1_backgroundBlur_1_517"/>
<feColorMatrix in="SourceAlpha" type="matrix" values="0 0 0 0 0 0 0 0 0 0 0 0 0 0 0 0 0 0 127 0" result="hardAlpha"/>
<feOffset dx="19.7234" dy="24.8686"/>
<feGaussianBlur stdDeviation="18.0083"/>
<feComposite in2="hardAlpha" operator="out"/>
<feColorMatrix type="matrix" values="0 0 0 0 0.633333 0 0 0 0 0.633333 0 0 0 0 0.633333 0 0 0 0.25 0"/>
<feBlend mode="multiply" in2="effect1_backgroundBlur_1_517" result="effect2_dropShadow_1_517"/>
<feBlend mode="normal" in="SourceGraphic" in2="effect2_dropShadow_1_517" result="shape"/>
<feColorMatrix in="SourceAlpha" type="matrix" values="0 0 0 0 0 0 0 0 0 0 0 0 0 0 0 0 0 0 127 0" result="hardAlpha"/>
<feOffset dx="-2.57262" dy="2.57262"/>
<feComposite in2="hardAlpha" operator="arithmetic" k2="-1" k3="1"/>
<feColorMatrix type="matrix" values="0 0 0 0 1 0 0 0 0 1 0 0 0 0 1 0 0 0 1 0"/>
<feBlend mode="normal" in2="shape" result="effect3_innerShadow_1_517"/>
</filter>
<linearGradient id="paint0_linear_1_517" x1="392.181" y1="221.84" x2="120.321" y2="191.026" gradientUnits="userSpaceOnUse">
<stop stop-color="#F4F4F4"/>
<stop offset="0.421875" stop-color="#F4F4F4"/>
<stop offset="1" stop-color="white"/>
</linearGradient>
<radialGradient id="paint1_radial_1_517" cx="0" cy="0" r="1" gradientUnits="userSpaceOnUse" gradientTransform="translate(261.766 300.084) rotate(0.740783) scale(93.1276 93.2608)">
<stop/>
<stop offset="1" stop-color="white"/>
</radialGradient>
<linearGradient id="paint2_linear_1_517" x1="241.777" y1="234.571" x2="256.062" y2="234.755" gradientUnits="userSpaceOnUse">
<stop stop-color="white"/>
<stop offset="1"/>
</linearGradient>
<linearGradient id="paint3_linear_1_517" x1="206.5" y1="299.206" x2="206.645" y2="287.985" gradientUnits="userSpaceOnUse">
<stop stop-color="white"/>
<stop offset="1"/>
</linearGradient>
<linearGradient id="paint4_linear_1_517" x1="254.799" y1="332.255" x2="271.623" y2="332.472" gradientUnits="userSpaceOnUse">
<stop/>
<stop offset="1" stop-color="white"/>
</linearGradient>
<linearGradient id="paint5_linear_1_517" x1="316.75" y1="291.732" x2="316.956" y2="275.837" gradientUnits="userSpaceOnUse">
<stop/>
<stop offset="0.0961573" stop-color="#1D1D1D"/>
<stop offset="0.4331" stop-color="#7C7C7C"/>
<stop offset="0.706" stop-color="#C3C3C3"/>
<stop offset="0.9012" stop-color="#EEEEEE"/>
<stop offset="1" stop-color="white"/>
</linearGradient>
<radialGradient id="paint6_radial_1_517" cx="0" cy="0" r="1" gradientUnits="userSpaceOnUse" gradientTransform="translate(264.296 297.568) rotate(0.740783) scale(42.3758 42.4364)">
<stop/>
<stop offset="1" stop-color="white"/>
</radialGradient>
<clipPath id="clip0_1_517">
<rect width="230" height="228" fill="white" transform="translate(148.663 165.015) rotate(0.19571)"/>
</clipPath>
</defs>
</svg>
