<svg width="23" height="18" viewBox="0 0 23 18" fill="none" xmlns="http://www.w3.org/2000/svg">
<path d="M22.296 2.45131C21.4906 2.80102 20.6384 3.03141 19.7665 3.13521C20.6828 2.59899 21.372 1.7471 21.7047 0.739324C20.8383 1.24559 19.8919 1.6008 18.9063 1.78976C18.4912 1.35507 17.992 1.00927 17.439 0.77336C16.8861 0.537455 16.2909 0.416378 15.6896 0.417488C13.2554 0.417488 11.2854 2.35744 11.2854 4.74886C11.2837 5.0815 11.3218 5.41314 11.399 5.73672C9.65344 5.65494 7.94418 5.20997 6.38058 4.43027C4.81698 3.65056 3.43345 2.5533 2.31853 1.20867C1.92739 1.86759 1.72053 2.6194 1.71958 3.38553C1.71958 4.88743 2.50372 6.215 3.68776 6.99277C2.98625 6.97613 2.29911 6.7906 1.68469 6.45191V6.50555C1.68469 8.60642 3.20555 10.3542 5.21847 10.752C4.83994 10.8528 4.44988 10.9039 4.05813 10.904C3.78016 10.9045 3.50283 10.8775 3.23016 10.8235C3.78975 12.5444 5.41842 13.796 7.34768 13.8318C5.78001 15.0391 3.85533 15.6916 1.87614 15.6868C1.52483 15.6863 1.17384 15.6654 0.824951 15.6242C2.83839 16.909 5.17885 17.5886 7.56776 17.5821C15.6802 17.5821 20.1122 10.98 20.1122 5.25396C20.1122 5.06623 20.1073 4.87849 20.0984 4.69522C20.9586 4.08376 21.7028 3.32389 22.296 2.45131Z" fill="white"/>
</svg>
