<svg width="381" height="189" viewBox="0 0 381 189" fill="none" xmlns="http://www.w3.org/2000/svg">
<g id="wave-graph-innner">
<path id="Background" d="M38.6993 2.92531L38.9171 188.831M209.338 2.82008L209.556 188.726M125.331 2.8719L125.549 188.778M295.094 2.7671L295.312 188.673M80.7021 2.89941L80.9199 188.805M252.216 2.79353L252.434 188.699M167.334 2.846L167.551 188.752M337.972 2.74066L338.19 188.646M3.44783 155.933L380.601 155.7M3.35449 76.4189L380.508 76.1861M3.40081 116.736L380.554 116.503M3.3065 36.102L380.46 35.8693" stroke="url(#paint0_linear_3_56)" stroke-width="0.857539"/>
<path id="pattern" d="M369.717 28.1616L376.527 36.4206L363.16 36.6228L369.717 28.1616Z" fill="#45B751"/>
<g id="pattren-1">
<path id="pattern_2" d="M83.9148 92.0166C51.5705 74.0849 15.432 81.5894 1.40582 87.5832L1.49774 148.636L378.432 150.432L378.372 110.98C370.065 96.8505 344.259 73.4902 307.496 93.0818C261.543 117.571 233.094 107.024 210.848 88.581C193.051 73.8265 170.392 83.5191 161.287 90.2096C148.973 98.2835 116.259 109.948 83.9148 92.0166Z" fill="url(#paint1_linear_3_56)"/>
</g>
<g id="pattren-4">
<path id="pattern_3" d="M1.40581 87.572C15.3996 81.587 51.4545 74.0933 83.724 91.9986C115.993 109.904 148.632 98.2561 160.917 90.194C170.001 83.5132 192.608 73.8347 210.364 88.5675C232.558 106.983 260.941 117.515 306.788 93.0613C343.466 73.4983 369.212 96.8242 377.501 110.933" stroke="#24B8D2" stroke-width="1.71508" stroke-linecap="round" stroke-linejoin="round"/>
</g>
<g id="pattren-2">
<path id="pattern_4" d="M150.097 100.278C74.1713 -26.726 4.76943 123.193 1.82333 123.188L1.78932 143.92C1.76182 160.687 15.3318 174.302 32.0987 174.329L347.861 174.847C364.628 174.874 378.242 161.304 378.27 144.538L378.367 85.0626C341.546 147.979 319.571 134.36 313.186 119.685C298.401 89.9737 259.445 43.0066 221.901 92.8324C184.357 142.658 158.388 118.557 150.097 100.278Z" fill="url(#paint2_linear_3_56)"/>
</g>
<g id="pattren-3">
<path id="pattern_5" d="M2.20456 123.108C5.1436 123.113 74.3795 -26.6436 150.123 100.223C158.394 118.482 184.301 142.557 221.755 92.7851C259.209 43.0131 298.071 89.9293 312.821 119.609C319.191 134.267 341.113 147.872 377.846 85.0233" stroke="#7F7CFF" stroke-width="1.71508" stroke-linecap="round" stroke-linejoin="round"/>
</g>
</g>
<defs>
<linearGradient id="paint0_linear_3_56" x1="191.024" y1="1.42661" x2="192.88" y2="190.076" gradientUnits="userSpaceOnUse">
<stop stop-color="#DADADA"/>
<stop offset="1" stop-color="white" stop-opacity="0"/>
</linearGradient>
<linearGradient id="paint1_linear_3_56" x1="189.861" y1="80.8469" x2="189.534" y2="149.532" gradientUnits="userSpaceOnUse">
<stop stop-color="#65D2E5"/>
<stop offset="1" stop-color="white" stop-opacity="0"/>
</linearGradient>
<linearGradient id="paint2_linear_3_56" x1="190.185" y1="49.3874" x2="189.98" y2="174.588" gradientUnits="userSpaceOnUse">
<stop stop-color="#6865E5"/>
<stop offset="1" stop-color="white" stop-opacity="0"/>
</linearGradient>
</defs>
</svg>
