<svg width="603" height="534" viewBox="0 0 603 534" fill="none" xmlns="http://www.w3.org/2000/svg">
<g id="5">
<g id="Background" filter="url(#filter0_bdi_1_501)">
<rect x="78.3583" y="152.276" width="445.52" height="231.466" rx="25.7262" transform="rotate(-0.247747 78.3583 152.276)" fill="url(#paint0_linear_1_501)" fill-opacity="0.93" shape-rendering="crispEdges"/>
</g>
<path id="Background_2" d="M147.699 188.925L147.917 374.831M318.338 188.82L318.556 374.726M234.331 188.872L234.549 374.778M404.094 188.767L404.312 374.673M189.702 188.899L189.92 374.805M361.216 188.793L361.434 374.699M276.334 188.846L276.551 374.752M446.972 188.741L447.19 374.646M112.448 341.933L489.601 341.7M112.354 262.419L489.508 262.186M112.401 302.736L489.554 302.503M112.306 222.102L489.46 221.869" stroke="url(#paint1_linear_1_501)" stroke-width="0.857539"/>
<path id="Contacts Created" d="M115.271 217.721C115.266 218.509 115.44 219.202 115.791 219.799C116.154 220.384 116.626 220.838 117.207 221.161C117.788 221.473 118.422 221.631 119.108 221.635C119.68 221.638 120.189 221.566 120.636 221.42C121.082 221.274 121.484 221.076 121.84 220.827C122.207 220.577 122.523 220.304 122.787 220.009L122.772 222.77C122.278 223.156 121.739 223.456 121.155 223.67C120.582 223.884 119.856 223.989 118.975 223.984C118.061 223.979 117.21 223.826 116.422 223.524C115.646 223.222 114.968 222.79 114.388 222.226C113.82 221.663 113.377 221.003 113.061 220.247C112.757 219.479 112.607 218.632 112.612 217.706C112.617 216.78 112.776 215.94 113.089 215.187C113.413 214.423 113.863 213.762 114.438 213.205C115.024 212.648 115.707 212.223 116.486 211.93C117.276 211.637 118.129 211.493 119.044 211.498C119.924 211.503 120.649 211.616 121.22 211.836C121.802 212.056 122.338 212.362 122.827 212.754L122.812 215.515C122.551 215.216 122.238 214.94 121.873 214.687C121.52 214.433 121.121 214.231 120.676 214.08C120.231 213.929 119.722 213.852 119.151 213.849C118.465 213.845 117.829 214.001 117.244 214.318C116.66 214.624 116.183 215.067 115.814 215.648C115.456 216.229 115.275 216.92 115.271 217.721ZM124.92 219.832C124.925 219.008 125.117 218.289 125.498 217.674C125.89 217.058 126.413 216.581 127.066 216.242C127.731 215.902 128.481 215.735 129.316 215.739C130.151 215.744 130.893 215.919 131.543 216.266C132.204 216.613 132.722 217.096 133.096 217.715C133.481 218.335 133.671 219.056 133.667 219.879C133.662 220.691 133.464 221.41 133.072 222.037C132.691 222.653 132.168 223.13 131.503 223.469C130.85 223.809 130.106 223.976 129.271 223.972C128.436 223.967 127.688 223.791 127.027 223.445C126.377 223.098 125.86 222.615 125.474 221.996C125.1 221.365 124.916 220.643 124.92 219.832ZM127.184 219.844C127.181 220.29 127.271 220.685 127.452 221.029C127.644 221.361 127.9 221.626 128.219 221.822C128.538 222.007 128.892 222.1 129.281 222.102C129.67 222.104 130.025 222.015 130.346 221.834C130.667 221.641 130.92 221.379 131.105 221.049C131.301 220.707 131.4 220.313 131.403 219.867C131.405 219.421 131.31 219.026 131.118 218.682C130.937 218.338 130.687 218.074 130.368 217.889C130.048 217.704 129.694 217.611 129.306 217.609C128.917 217.607 128.562 217.696 128.241 217.877C127.92 218.059 127.661 218.32 127.465 218.662C127.28 219.004 127.186 219.398 127.184 219.844ZM140.861 219.061C140.863 218.535 140.763 218.135 140.558 217.859C140.354 217.583 140.023 217.444 139.566 217.442C139.257 217.44 138.982 217.507 138.742 217.643C138.501 217.768 138.317 217.95 138.19 218.189C138.063 218.429 137.998 218.714 137.996 219.046L137.97 223.848L135.741 223.836L135.784 215.946L138.013 215.958L138.007 217.159C138.249 216.714 138.566 216.379 138.956 216.152C139.357 215.914 139.838 215.797 140.398 215.8C141.336 215.805 142.032 216.078 142.486 216.618C142.941 217.146 143.165 217.885 143.16 218.834L143.132 223.876L140.834 223.863L140.861 219.061ZM144.781 215.996L149.652 216.022L149.641 217.892L144.771 217.865L144.781 215.996ZM146.151 213.259L148.295 213.271L148.236 223.904L146.092 223.892L146.151 213.259ZM152.811 221.476C152.81 221.705 152.866 221.905 152.979 222.078C153.092 222.238 153.246 222.365 153.44 222.457C153.645 222.539 153.868 222.58 154.108 222.581C154.451 222.583 154.76 222.516 155.035 222.38C155.311 222.233 155.535 222.029 155.708 221.767C155.881 221.493 155.968 221.168 155.97 220.791L156.239 221.821C156.236 222.324 156.091 222.746 155.803 223.088C155.527 223.429 155.166 223.685 154.719 223.854C154.283 224.023 153.825 224.106 153.345 224.103C152.854 224.101 152.397 224.001 151.975 223.804C151.553 223.608 151.211 223.326 150.95 222.958C150.701 222.58 150.578 222.122 150.581 221.584C150.585 220.818 150.857 220.214 151.397 219.771C151.936 219.328 152.698 219.109 153.681 219.114C154.184 219.117 154.624 219.171 155.001 219.276C155.389 219.381 155.714 219.508 155.977 219.659C156.239 219.809 156.427 219.953 156.54 220.09L156.535 221.119C156.227 220.889 155.879 220.716 155.491 220.599C155.114 220.483 154.715 220.423 154.292 220.421C153.949 220.419 153.668 220.463 153.45 220.554C153.233 220.633 153.072 220.752 152.968 220.911C152.865 221.059 152.812 221.248 152.811 221.476ZM151.971 218.265L151.156 216.751C151.569 216.536 152.073 216.333 152.669 216.142C153.264 215.939 153.928 215.84 154.66 215.844C155.334 215.848 155.934 215.948 156.459 216.145C156.984 216.343 157.394 216.631 157.689 217.01C157.984 217.377 158.13 217.829 158.128 218.367L158.097 223.958L155.953 223.946L155.981 218.818C155.982 218.601 155.949 218.418 155.881 218.269C155.814 218.108 155.706 217.976 155.558 217.873C155.421 217.769 155.256 217.694 155.061 217.647C154.867 217.6 154.65 217.576 154.41 217.575C154.044 217.573 153.695 217.611 153.363 217.689C153.031 217.767 152.745 217.863 152.504 217.976C152.263 218.089 152.086 218.185 151.971 218.265ZM162.294 220.036C162.292 220.494 162.393 220.894 162.597 221.238C162.8 221.583 163.073 221.853 163.415 222.049C163.769 222.245 164.157 222.345 164.58 222.347C164.923 222.349 165.255 222.299 165.576 222.198C165.896 222.085 166.183 221.938 166.436 221.757C166.7 221.564 166.901 221.342 167.039 221.091L167.027 223.372C166.751 223.622 166.39 223.82 165.943 223.967C165.508 224.101 164.999 224.167 164.416 224.164C163.581 224.159 162.827 223.984 162.155 223.637C161.493 223.291 160.97 222.807 160.585 222.188C160.211 221.557 160.026 220.836 160.031 220.024C160.035 219.201 160.228 218.481 160.608 217.866C161 217.251 161.529 216.773 162.194 216.434C162.871 216.095 163.626 215.927 164.461 215.932C165.044 215.935 165.552 216.012 165.986 216.163C166.431 216.303 166.79 216.493 167.063 216.735L167.051 219.016C166.915 218.764 166.71 218.545 166.437 218.361C166.175 218.165 165.884 218.015 165.565 217.91C165.245 217.806 164.925 217.752 164.605 217.751C164.182 217.748 163.793 217.849 163.437 218.053C163.093 218.245 162.817 218.513 162.61 218.854C162.402 219.196 162.297 219.59 162.294 220.036ZM168.443 216.125L173.314 216.152L173.304 218.021L168.433 217.995L168.443 216.125ZM169.813 213.388L171.957 213.4L171.899 224.034L169.755 224.022L169.813 213.388ZM175.291 221.325C175.621 221.636 175.929 221.889 176.213 222.085C176.498 222.269 176.766 222.408 177.017 222.501C177.28 222.594 177.525 222.641 177.754 222.642C178.051 222.644 178.28 222.582 178.441 222.457C178.602 222.321 178.683 222.138 178.684 221.91C178.685 221.704 178.617 221.532 178.481 221.394C178.356 221.245 178.168 221.112 177.917 220.996C177.666 220.881 177.347 220.759 176.959 220.631C176.594 220.492 176.24 220.33 175.898 220.145C175.556 219.949 175.272 219.696 175.045 219.386C174.829 219.064 174.723 218.658 174.725 218.166C174.728 217.697 174.856 217.304 175.109 216.985C175.363 216.655 175.701 216.411 176.125 216.253C176.561 216.084 177.041 216.001 177.567 216.004C178.013 216.006 178.43 216.065 178.818 216.182C179.206 216.298 179.566 216.455 179.896 216.651C180.227 216.836 180.517 217.055 180.767 217.307L179.782 218.674C179.498 218.364 179.156 218.11 178.757 217.914C178.37 217.717 177.987 217.618 177.61 217.616C177.358 217.615 177.158 217.665 177.009 217.767C176.871 217.858 176.802 218 176.801 218.195C176.8 218.366 176.867 218.521 177.004 218.659C177.152 218.785 177.357 218.901 177.619 219.005C177.893 219.11 178.201 219.237 178.543 219.388C178.966 219.55 179.353 219.735 179.707 219.943C180.071 220.139 180.362 220.387 180.577 220.685C180.793 220.984 180.899 221.373 180.897 221.853C180.892 222.642 180.632 223.258 180.115 223.701C179.598 224.133 178.888 224.346 177.985 224.341C177.424 224.338 176.91 224.261 176.442 224.11C175.986 223.959 175.57 223.762 175.194 223.52C174.829 223.266 174.499 222.996 174.203 222.708L175.291 221.325ZM190.629 218.133C190.625 218.922 190.798 219.615 191.149 220.211C191.512 220.796 191.984 221.251 192.565 221.574C193.147 221.886 193.781 222.044 194.467 222.048C195.038 222.051 195.548 221.979 195.994 221.833C196.441 221.687 196.842 221.489 197.198 221.239C197.565 220.99 197.881 220.717 198.146 220.421L198.131 223.182C197.637 223.568 197.098 223.869 196.514 224.083C195.941 224.297 195.214 224.401 194.334 224.397C193.419 224.391 192.568 224.238 191.781 223.937C191.005 223.635 190.327 223.203 189.747 222.639C189.178 222.076 188.736 221.416 188.42 220.659C188.115 219.892 187.966 219.045 187.971 218.119C187.976 217.193 188.135 216.353 188.448 215.6C188.772 214.836 189.221 214.175 189.796 213.618C190.382 213.061 191.065 212.636 191.844 212.343C192.635 212.05 193.487 211.906 194.402 211.911C195.282 211.916 196.008 212.028 196.578 212.249C197.16 212.469 197.696 212.775 198.186 213.167L198.17 215.928C197.909 215.629 197.596 215.353 197.232 215.099C196.879 214.846 196.48 214.644 196.034 214.493C195.589 214.341 195.081 214.264 194.509 214.261C193.823 214.257 193.188 214.414 192.603 214.731C192.018 215.037 191.541 215.48 191.172 216.061C190.814 216.642 190.633 217.333 190.629 218.133ZM203.01 216.314L202.967 224.204L200.789 224.192L200.832 216.302L203.01 216.314ZM205.313 218.642C205.165 218.504 205.011 218.401 204.851 218.331C204.703 218.25 204.515 218.209 204.286 218.208C204.011 218.207 203.777 218.28 203.581 218.427C203.386 218.575 203.236 218.785 203.132 219.059C203.039 219.322 202.992 219.642 202.99 220.019L202.376 219.398C202.379 218.769 202.502 218.215 202.745 217.737C202.988 217.246 203.304 216.859 203.695 216.575C204.085 216.28 204.486 216.134 204.897 216.136C205.183 216.138 205.452 216.191 205.703 216.295C205.965 216.399 206.176 216.555 206.335 216.761L205.313 218.642ZM211.37 224.421C210.512 224.416 209.764 224.241 209.126 223.894C208.487 223.548 207.992 223.071 207.641 222.463C207.302 221.843 207.134 221.116 207.139 220.282C207.143 219.436 207.319 218.711 207.665 218.106C208.023 217.491 208.523 217.019 209.165 216.691C209.807 216.352 210.563 216.184 211.432 216.189C212.301 216.194 213.037 216.358 213.642 216.681C214.257 216.993 214.724 217.453 215.04 218.061C215.357 218.657 215.513 219.379 215.509 220.225C215.508 220.328 215.502 220.436 215.49 220.55C215.489 220.665 215.483 220.756 215.471 220.825L208.405 220.786L208.413 219.414L213.541 219.442L212.936 220.228C212.982 220.159 213.023 220.068 213.058 219.954C213.104 219.828 213.127 219.726 213.128 219.646C213.13 219.257 213.058 218.925 212.91 218.65C212.775 218.375 212.576 218.156 212.314 217.995C212.052 217.833 211.743 217.751 211.389 217.75C210.954 217.747 210.588 217.842 210.29 218.035C210.003 218.216 209.778 218.495 209.616 218.872C209.466 219.237 209.383 219.694 209.369 220.243C209.366 220.768 209.438 221.215 209.584 221.581C209.742 221.948 209.975 222.23 210.283 222.426C210.59 222.622 210.961 222.721 211.396 222.723C211.888 222.726 212.305 222.637 212.649 222.456C213.005 222.263 213.298 221.979 213.529 221.603L215.464 222.214C215.048 222.955 214.496 223.512 213.808 223.886C213.131 224.248 212.319 224.426 211.37 224.421ZM219.182 221.84C219.181 222.069 219.237 222.269 219.35 222.441C219.464 222.602 219.617 222.728 219.811 222.821C220.017 222.902 220.239 222.943 220.479 222.945C220.822 222.947 221.132 222.88 221.407 222.744C221.682 222.597 221.906 222.392 222.079 222.13C222.252 221.857 222.339 221.531 222.342 221.154L222.61 222.185C222.608 222.688 222.462 223.11 222.175 223.451C221.898 223.793 221.537 224.048 221.09 224.217C220.654 224.386 220.197 224.47 219.716 224.467C219.225 224.464 218.768 224.365 218.346 224.168C217.924 223.971 217.583 223.689 217.322 223.322C217.072 222.943 216.949 222.485 216.952 221.948C216.956 221.182 217.228 220.577 217.768 220.134C218.308 219.691 219.069 219.472 220.052 219.478C220.556 219.481 220.995 219.534 221.372 219.639C221.76 219.744 222.086 219.872 222.348 220.022C222.61 220.172 222.798 220.316 222.911 220.454L222.906 221.483C222.598 221.253 222.25 221.079 221.862 220.963C221.486 220.846 221.086 220.787 220.663 220.785C220.32 220.783 220.039 220.827 219.822 220.917C219.604 220.996 219.443 221.115 219.339 221.275C219.236 221.423 219.183 221.611 219.182 221.84ZM218.342 218.628L217.527 217.114C217.94 216.899 218.444 216.696 219.04 216.505C219.635 216.303 220.299 216.203 221.031 216.207C221.705 216.211 222.305 216.311 222.83 216.509C223.355 216.706 223.765 216.994 224.06 217.373C224.355 217.741 224.502 218.193 224.499 218.73L224.468 224.321L222.324 224.31L222.352 219.182C222.354 218.964 222.32 218.781 222.252 218.632C222.185 218.472 222.077 218.34 221.929 218.236C221.792 218.132 221.627 218.057 221.433 218.01C221.238 217.964 221.021 217.94 220.781 217.938C220.415 217.936 220.066 217.974 219.734 218.053C219.402 218.131 219.116 218.226 218.875 218.339C218.635 218.452 218.457 218.549 218.342 218.628ZM225.995 216.44L230.865 216.467L230.855 218.336L225.984 218.31L225.995 216.44ZM227.364 213.704L229.508 213.715L229.45 224.349L227.306 224.337L227.364 213.704ZM236.154 224.557C235.296 224.552 234.549 224.377 233.91 224.03C233.272 223.684 232.777 223.206 232.426 222.598C232.086 221.979 231.919 221.252 231.923 220.418C231.928 219.571 232.103 218.846 232.45 218.242C232.808 217.627 233.307 217.155 233.95 216.827C234.592 216.487 235.347 216.32 236.216 216.325C237.085 216.33 237.822 216.494 238.426 216.817C239.042 217.129 239.508 217.589 239.825 218.197C240.142 218.793 240.298 219.514 240.293 220.36C240.293 220.463 240.286 220.572 240.274 220.686C240.274 220.801 240.267 220.892 240.256 220.961L233.19 220.922L233.197 219.55L238.325 219.578L237.721 220.363C237.767 220.295 237.807 220.204 237.842 220.09C237.889 219.964 237.912 219.861 237.912 219.781C237.915 219.393 237.842 219.061 237.695 218.785C237.559 218.51 237.36 218.292 237.098 218.13C236.836 217.969 236.528 217.887 236.173 217.885C235.739 217.883 235.373 217.978 235.074 218.171C234.787 218.352 234.563 218.631 234.401 219.008C234.25 219.373 234.168 219.83 234.153 220.378C234.15 220.904 234.222 221.351 234.369 221.717C234.527 222.084 234.76 222.365 235.067 222.561C235.375 222.758 235.746 222.857 236.18 222.859C236.672 222.862 237.09 222.773 237.434 222.592C237.789 222.399 238.083 222.115 238.313 221.739L240.248 222.35C239.832 223.091 239.28 223.648 238.592 224.021C237.916 224.384 237.103 224.562 236.154 224.557ZM248.4 211.075L250.629 211.087L250.556 224.464L248.326 224.452L248.4 211.075ZM241.865 220.472C241.87 219.592 242.051 218.849 242.409 218.245C242.767 217.63 243.238 217.164 243.823 216.847C244.408 216.53 245.026 216.373 245.678 216.377C246.341 216.38 246.923 216.549 247.425 216.884C247.937 217.218 248.335 217.695 248.617 218.314C248.911 218.921 249.056 219.654 249.051 220.511C249.047 221.357 248.894 222.088 248.593 222.704C248.304 223.32 247.901 223.792 247.385 224.121C246.88 224.45 246.296 224.612 245.633 224.609C244.981 224.605 244.365 224.442 243.783 224.118C243.202 223.795 242.736 223.324 242.385 222.704C242.034 222.085 241.86 221.341 241.865 220.472ZM244.163 220.485C244.161 220.953 244.256 221.36 244.448 221.704C244.641 222.048 244.902 222.312 245.233 222.497C245.563 222.682 245.917 222.775 246.295 222.777C246.626 222.779 246.947 222.695 247.257 222.525C247.578 222.344 247.836 222.083 248.033 221.741C248.24 221.399 248.345 220.988 248.348 220.507C248.351 220.027 248.25 219.615 248.046 219.271C247.854 218.927 247.598 218.668 247.279 218.495C246.971 218.31 246.651 218.217 246.32 218.215C245.942 218.213 245.587 218.303 245.255 218.484C244.922 218.665 244.658 218.926 244.462 219.268C244.265 219.61 244.166 220.016 244.163 220.485Z" fill="#353E6C"/>
<path id="15%" d="M439.148 215.901L439.16 213.689L444.432 212.603L444.365 224.814L441.981 224.801L442.034 215.162L439.148 215.901ZM456.704 221.005C456.7 221.714 456.565 222.325 456.299 222.838C456.033 223.351 455.677 223.773 455.229 224.102C454.781 224.431 454.282 224.674 453.733 224.831C453.183 224.988 452.617 225.065 452.034 225.062C451.302 225.058 450.645 224.968 450.063 224.794C449.492 224.619 448.99 224.393 448.557 224.117C448.124 223.828 447.743 223.518 447.413 223.184L448.573 221.287C448.857 221.574 449.164 221.833 449.494 222.064C449.836 222.294 450.19 222.479 450.555 222.618C450.92 222.746 451.268 222.811 451.6 222.813C452.114 222.816 452.549 222.738 452.905 222.58C453.271 222.422 453.553 222.195 453.749 221.898C453.945 221.591 454.044 221.214 454.047 220.768C454.049 220.333 453.937 219.967 453.71 219.668C453.494 219.37 453.198 219.145 452.821 218.995C452.456 218.833 452.057 218.75 451.622 218.748C451.302 218.746 450.965 218.773 450.61 218.828C450.255 218.872 449.889 218.956 449.511 219.079C449.144 219.192 448.755 219.361 448.342 219.588L450.025 212.839L456.56 212.875L456.548 215.002L451.832 214.976L451.098 217.442C451.396 217.283 451.711 217.176 452.043 217.121C452.386 217.054 452.735 217.022 453.09 217.024C453.741 217.027 454.341 217.191 454.888 217.514C455.435 217.837 455.872 218.297 456.201 218.893C456.541 219.478 456.708 220.182 456.704 221.005ZM458.296 215.646C458.299 215.074 458.433 214.56 458.699 214.105C458.976 213.649 459.349 213.291 459.819 213.03C460.29 212.758 460.816 212.624 461.4 212.627C461.994 212.63 462.519 212.771 462.975 213.047C463.442 213.313 463.806 213.675 464.067 214.134C464.327 214.593 464.456 215.108 464.453 215.68C464.45 216.228 464.316 216.737 464.05 217.204C463.785 217.66 463.417 218.024 462.946 218.295C462.488 218.567 461.961 218.702 461.366 218.698C460.783 218.695 460.258 218.555 459.791 218.278C459.323 218.001 458.954 217.633 458.682 217.174C458.422 216.704 458.293 216.195 458.296 215.646ZM460.148 215.656C460.147 215.885 460.197 216.102 460.299 216.309C460.401 216.504 460.543 216.659 460.725 216.774C460.907 216.889 461.124 216.948 461.376 216.949C461.627 216.95 461.839 216.894 462.011 216.781C462.195 216.668 462.339 216.514 462.443 216.32C462.547 216.115 462.599 215.898 462.601 215.669C462.602 215.429 462.552 215.212 462.45 215.017C462.348 214.822 462.206 214.667 462.024 214.552C461.853 214.425 461.642 214.361 461.39 214.359C461.139 214.358 460.921 214.42 460.737 214.544C460.554 214.658 460.41 214.811 460.306 215.005C460.202 215.199 460.149 215.416 460.148 215.656ZM466.064 222.172C466.067 221.611 466.201 221.103 466.467 220.647C466.744 220.18 467.117 219.816 467.587 219.556C468.058 219.284 468.584 219.15 469.168 219.153C469.762 219.156 470.287 219.296 470.743 219.573C471.21 219.839 471.574 220.206 471.835 220.677C472.095 221.136 472.224 221.645 472.221 222.205C472.218 222.766 472.084 223.274 471.818 223.73C471.553 224.185 471.185 224.549 470.714 224.821C470.256 225.093 469.729 225.227 469.134 225.224C468.551 225.221 468.026 225.081 467.559 224.804C467.091 224.527 466.722 224.159 466.45 223.7C466.189 223.241 466.061 222.732 466.064 222.172ZM467.916 222.182C467.915 222.41 467.965 222.628 468.067 222.834C468.169 223.029 468.311 223.184 468.493 223.3C468.675 223.415 468.892 223.473 469.144 223.475C469.395 223.476 469.607 223.42 469.779 223.307C469.963 223.193 470.107 223.04 470.211 222.846C470.315 222.641 470.367 222.424 470.369 222.195C470.37 221.955 470.32 221.737 470.218 221.543C470.116 221.348 469.974 221.192 469.792 221.077C469.621 220.962 469.409 220.904 469.158 220.902C468.906 220.901 468.689 220.957 468.505 221.07C468.322 221.183 468.178 221.337 468.074 221.531C467.97 221.725 467.917 221.942 467.916 222.182ZM468.55 212.941L470.797 212.953L461.984 224.911L459.737 224.898L468.55 212.941Z" fill="#45B751"/>
<path id="pattern" d="M486.211 214.162L493.02 222.421L479.654 222.623L486.211 214.162Z" fill="#45B751"/>
<g id="ptrn-4">
<path id="pattern_2" d="M192.915 278.017C160.57 260.085 124.432 267.59 110.406 273.583L110.498 334.636L487.432 336.432L487.372 296.98C479.065 282.851 453.258 259.49 416.496 279.082C370.543 303.571 342.094 293.024 319.848 274.581C302.051 259.827 279.392 269.519 270.287 276.21C257.973 284.284 225.259 295.949 192.915 278.017Z" fill="url(#paint2_linear_1_501)"/>
</g>
<g id="ptrm-3">
<path id="pattern_3" d="M110.406 273.572C124.4 267.587 160.454 260.093 192.724 277.999C224.993 295.904 257.632 284.256 269.917 276.194C279.001 269.513 301.608 259.835 319.364 274.567C341.558 292.983 369.941 303.515 415.788 279.061C452.466 259.498 478.212 282.824 486.501 296.932" stroke="#24B8D2" stroke-width="1.71508" stroke-linecap="round" stroke-linejoin="round"/>
</g>
<g id="ptrn-2">
<path id="pattern_4" d="M259.097 286.278C183.171 159.274 113.769 309.193 110.823 309.188L110.789 329.92C110.762 346.687 124.332 360.301 141.099 360.329L456.861 360.847C473.628 360.874 487.242 347.304 487.27 330.537L487.367 271.063C450.546 333.979 428.571 320.36 422.186 305.685C407.401 275.974 368.445 229.007 330.901 278.832C293.357 328.658 267.388 304.557 259.097 286.278Z" fill="url(#paint3_linear_1_501)"/>
</g>
<g id="ptrn-1">
<path id="pattern_5" d="M111.205 309.108C114.144 309.113 183.379 159.356 259.123 286.223C267.394 304.482 293.301 328.557 330.755 278.785C368.209 229.013 407.071 275.929 421.821 305.609C428.191 320.267 450.113 333.871 486.846 271.023" stroke="#7F7CFF" stroke-width="1.71508" stroke-linecap="round" stroke-linejoin="round"/>
</g>
</g>
<defs>
<filter id="filter0_bdi_1_501" x="47.1726" y="129.022" width="518.328" height="315.491" filterUnits="userSpaceOnUse" color-interpolation-filters="sRGB">
<feFlood flood-opacity="0" result="BackgroundImageFix"/>
<feGaussianBlur in="BackgroundImageFix" stdDeviation="10.7192"/>
<feComposite in2="SourceAlpha" operator="in" result="effect1_backgroundBlur_1_501"/>
<feColorMatrix in="SourceAlpha" type="matrix" values="0 0 0 0 0 0 0 0 0 0 0 0 0 0 0 0 0 0 127 0" result="hardAlpha"/>
<feOffset dx="4.72" dy="24.8686"/>
<feGaussianBlur stdDeviation="18.0083"/>
<feComposite in2="hardAlpha" operator="out"/>
<feColorMatrix type="matrix" values="0 0 0 0 0.633333 0 0 0 0 0.633333 0 0 0 0 0.633333 0 0 0 0.25 0"/>
<feBlend mode="multiply" in2="effect1_backgroundBlur_1_501" result="effect2_dropShadow_1_501"/>
<feBlend mode="normal" in="SourceGraphic" in2="effect2_dropShadow_1_501" result="shape"/>
<feColorMatrix in="SourceAlpha" type="matrix" values="0 0 0 0 0 0 0 0 0 0 0 0 0 0 0 0 0 0 127 0" result="hardAlpha"/>
<feOffset dx="-2.57262" dy="2.57262"/>
<feComposite in2="hardAlpha" operator="arithmetic" k2="-1" k3="1"/>
<feColorMatrix type="matrix" values="0 0 0 0 1 0 0 0 0 1 0 0 0 0 1 0 0 0 1 0"/>
<feBlend mode="normal" in2="shape" result="effect3_innerShadow_1_501"/>
</filter>
<linearGradient id="paint0_linear_1_501" x1="484.567" y1="236.683" x2="111.173" y2="154.999" gradientUnits="userSpaceOnUse">
<stop stop-color="#F4F4F4"/>
<stop offset="0.421875" stop-color="#F4F4F4"/>
<stop offset="1" stop-color="white"/>
</linearGradient>
<linearGradient id="paint1_linear_1_501" x1="300.024" y1="187.427" x2="301.88" y2="376.076" gradientUnits="userSpaceOnUse">
<stop stop-color="#DADADA"/>
<stop offset="1" stop-color="white" stop-opacity="0"/>
</linearGradient>
<linearGradient id="paint2_linear_1_501" x1="298.861" y1="266.847" x2="298.534" y2="335.532" gradientUnits="userSpaceOnUse">
<stop stop-color="#65D2E5"/>
<stop offset="1" stop-color="white" stop-opacity="0"/>
</linearGradient>
<linearGradient id="paint3_linear_1_501" x1="299.185" y1="235.387" x2="298.98" y2="360.588" gradientUnits="userSpaceOnUse">
<stop stop-color="#6865E5"/>
<stop offset="1" stop-color="white" stop-opacity="0"/>
</linearGradient>
</defs>
</svg>
