<svg width="27" height="20" viewBox="0 0 27 20" fill="none" xmlns="http://www.w3.org/2000/svg">
<path d="M25.8789 4.69522C25.8789 2.46872 24.1978 0.677625 22.1206 0.677625C19.307 0.549478 16.4375 0.5 13.505 0.5H12.5908C9.66545 0.5 6.79087 0.549478 3.97723 0.67812C1.9051 0.67812 0.224025 2.47911 0.224025 4.70562C0.097056 6.46653 0.0432211 8.22794 0.0462683 9.98935C0.0411896 11.7508 0.0987489 13.5138 0.218946 15.2785C0.218946 17.505 1.90002 19.311 3.97215 19.311C6.928 19.4446 9.96002 19.5039 13.0428 19.499C16.1307 19.5089 19.1543 19.4462 22.1135 19.311C24.1907 19.311 25.8718 17.505 25.8718 15.2785C25.9937 13.5122 26.0495 11.7508 26.0445 9.9844C26.056 8.22299 26.0008 6.45993 25.8789 4.69522ZM10.5593 14.8431V5.12073L17.9235 9.97946L10.5593 14.8431Z" fill="white"/>
</svg>
